<svg width="60" height="60" viewBox="0 0 60 60" fill="none" xmlns="http://www.w3.org/2000/svg">
<g id="time-square-svgrepo-com 1">
<path id="Vector" fill-rule="evenodd" clip-rule="evenodd" d="M27.5137 5H32.4862C35.9512 4.99998 38.707 4.99998 40.929 5.1845C43.2047 5.37348 45.1437 5.76888 46.9145 6.6888C49.6542 8.11193 51.888 10.3457 53.3112 13.0854C54.2312 14.8563 54.6265 16.7953 54.8155 19.071C55 21.293 55 24.0487 55 27.5137V32.4862C55 35.9512 55 38.707 54.8155 40.929C54.6265 43.2047 54.2312 45.1437 53.3112 46.9145C51.888 49.6542 49.6542 51.888 46.9145 53.3112C45.1437 54.2312 43.2047 54.6265 40.929 54.8155C38.707 55 35.9512 55 32.4862 55H27.5137C24.0487 55 21.293 55 19.071 54.8155C16.7953 54.6265 14.8563 54.2312 13.0854 53.3112C10.3457 51.888 8.11193 49.6542 6.6888 46.9145C5.76888 45.1437 5.37348 43.2047 5.1845 40.929C4.99998 38.707 4.99998 35.9512 5 32.4862V27.5137C4.99998 24.0487 4.99998 21.293 5.1845 19.071C5.37348 16.7953 5.76888 14.8563 6.6888 13.0854C8.11193 10.3457 10.3457 8.11193 13.0854 6.6888C14.8563 5.76888 16.7953 5.37348 19.071 5.1845C21.293 4.99998 24.0487 4.99998 27.5137 5ZM19.4848 10.1673C17.5239 10.3302 16.3285 10.6384 15.3902 11.1259C13.5638 12.0746 12.0746 13.5638 11.1259 15.3902C10.6384 16.3285 10.3302 17.5239 10.1673 19.4848C10.002 21.4756 10 24.0237 10 27.625V32.375C10 35.9762 10.002 38.5242 10.1673 40.5152C10.3302 42.4762 10.6384 43.6715 11.1259 44.6097C12.0746 46.4362 13.5638 47.9255 15.3902 48.8742C16.3285 49.3615 17.5239 49.6697 19.4848 49.8327C21.4756 49.998 24.0237 50 27.625 50H32.375C35.9762 50 38.5242 49.998 40.5152 49.8327C42.4762 49.6697 43.6715 49.3615 44.6097 48.8742C46.4362 47.9255 47.9255 46.4362 48.8742 44.6097C49.3615 43.6715 49.6697 42.4762 49.8327 40.5152C49.998 38.5242 50 35.9762 50 32.375V27.625C50 24.0237 49.998 21.4756 49.8327 19.4848C49.6697 17.5239 49.3615 16.3285 48.8742 15.3902C47.9255 13.5638 46.4362 12.0746 44.6097 11.1259C43.6715 10.6384 42.4762 10.3302 40.5152 10.1673C38.5242 10.002 35.9762 10 32.375 10H27.625C24.0237 10 21.4756 10.002 19.4848 10.1673ZM29.571 16.8934C30.9517 16.8934 32.071 18.0127 32.071 19.3934V31.8112L40.8882 35.1632C42.179 35.6537 42.8275 37.0977 42.3367 38.3882C41.8462 39.679 40.4022 40.3275 39.1117 39.8367L28.6827 35.8725C27.7125 35.5035 27.071 34.5735 27.071 33.5355V19.3934C27.071 18.0127 28.1902 16.8934 29.571 16.8934Z" fill="white"/>
</g>
</svg>
