<svg width="60" height="60" viewBox="0 0 60 60" fill="none" xmlns="http://www.w3.org/2000/svg">
<g id="people-svgrepo-com 2" clip-path="url(#clip0_246_1447)">
<path id="Vector" d="M43.7119 48.9413L31.9069 42.4013C36.2944 38.9494 37.4869 32.1656 37.4869 28.3613V20.4431C37.4869 15.2006 30.5212 9.36189 23.5237 9.36189C16.53 9.36189 9.37875 15.2006 9.37875 20.4431V28.3613C9.37875 31.8206 10.8412 38.8163 15.2738 42.3713L3.165 48.9394C3.165 48.9394 0 50.3494 0 52.1063V56.8575C0 58.6069 1.41937 60.0244 3.165 60.0244H43.7119C45.4575 60.0244 46.8769 58.605 46.8769 56.8575V52.1063C46.8769 50.2425 43.71 48.9394 43.71 48.9394L43.7119 48.9413ZM43.1269 56.2781H3.75V52.9256C4.01813 52.7288 4.395 52.5019 4.69125 52.3669C4.77938 52.3275 4.8675 52.2844 4.95188 52.2356L17.0625 45.6675C18.1669 45.0675 18.8981 43.9575 19.0106 42.7069C19.1231 41.4563 18.6 40.2319 17.6213 39.4463C14.4769 36.9244 13.1287 31.3425 13.1287 28.3631V20.445C13.1287 17.7506 18.2062 13.1138 23.5237 13.1138C28.9406 13.1138 33.7369 17.6888 33.7369 20.445V28.3631C33.7369 31.2994 32.8256 36.9075 29.5894 39.4538C28.5994 40.2338 28.065 41.46 28.17 42.7144C28.275 43.9688 29.0063 45.09 30.1106 45.6938L41.9156 52.2338C42.0187 52.29 42.1519 52.3519 42.2606 52.4006C42.5381 52.5188 42.8775 52.7138 43.1269 52.8863V56.2781ZM56.835 39.6056L44.8538 33.0656C49.2413 29.6138 50.61 22.83 50.61 19.0256V11.1075C50.61 5.86502 43.47 -0.0318604 36.4725 -0.0318604C31.9256 -0.0318604 27.2775 2.44126 24.5719 5.60627C26.115 5.70189 27.8156 5.70376 29.2856 6.17251C31.2619 4.63314 33.7594 3.72001 36.4725 3.72001C41.8894 3.72001 46.86 8.35127 46.86 11.1094V19.0275C46.86 21.9638 45.7725 27.5719 42.5381 30.1181C41.5462 30.8981 41.0138 32.1244 41.1188 33.3788C41.2238 34.635 41.9531 35.7544 43.0594 36.3581L55.0406 42.8981C55.1437 42.9544 55.2769 43.0163 55.3856 43.065C55.6631 43.1831 56.0025 43.3781 56.2519 43.5506V46.8863H48.6825C49.8263 47.7488 50.1713 48.9825 50.6156 50.6363H56.8387C58.5844 50.6363 60.0037 49.2169 60.0037 47.4694V42.7763C60.0019 40.9106 56.835 39.6056 56.835 39.6056Z" fill="white"/>
</g>
<defs>
<clipPath id="clip0_246_1447">
<rect width="60" height="60" fill="white"/>
</clipPath>
</defs>
</svg>
