<svg width="60" height="60" viewBox="0 0 60 60" fill="none" xmlns="http://www.w3.org/2000/svg">
<g id="check-file-svgrepo-com 1">
<path id="Vector" fill-rule="evenodd" clip-rule="evenodd" d="M25 2.5C24.337 2.5 23.7011 2.7634 23.2322 3.23222L8.23223 18.2322C7.7634 18.7011 7.5 19.3369 7.5 20V50C7.5 54.1422 10.8579 57.5 15 57.5H45C49.1423 57.5 52.5 54.1422 52.5 50V10C52.5 5.85787 49.1423 2.5 45 2.5H25ZM27.5 7.5H45C46.3807 7.5 47.5 8.6193 47.5 10V50C47.5 51.3807 46.3807 52.5 45 52.5H15C13.6193 52.5 12.5 51.3807 12.5 50V22.5H25C26.3808 22.5 27.5 21.3807 27.5 20V7.5ZM22.5 17.5H16.0355L22.5 11.0355V17.5ZM41.9205 31.6005C42.8045 30.5397 42.6612 28.9632 41.6005 28.0795C40.5397 27.1955 38.9633 27.3387 38.0795 28.3995L27.332 41.2965L21.7678 35.7322C20.7915 34.756 19.2086 34.756 18.2322 35.7322C17.2559 36.7085 17.2559 38.2915 18.2322 39.2677L25.7323 46.7677C26.229 47.2645 26.9115 47.5292 27.6132 47.4975C28.315 47.4655 28.971 47.14 29.4205 46.6005L41.9205 31.6005Z" fill="white"/>
</g>
</svg>
