<svg width="60" height="60" viewBox="0 0 60 60" fill="none" xmlns="http://www.w3.org/2000/svg">
<g id="vacuum-cleaner-svgrepo-com 1">
<g id="Vacuum_Cleaner">
<g id="XMLID_598_">
<path id="XMLID_962_" d="M30 45.3724V58.4766H37.9688V54.1641C37.9688 49.5786 34.4531 45.7994 30 45.3724Z" fill="white"/>
<path id="XMLID_963_" d="M48.2812 34.5703H45.5859V39.9609H48.2812V34.5703Z" fill="white"/>
<path id="XMLID_964_" d="M48.2812 52.1626V42.3047H44.3432C43.6984 42.3047 43.2422 41.736 43.2422 41.0912V33.3858C43.2422 32.741 43.6984 32.2266 44.3432 32.2266H48.2812V29.2969H44.3002C44.1764 29.2969 44.0572 29.2969 43.9453 29.2969H40.0419C34.4954 29.2969 30 33.8367 30 39.4137V43.0279C35.7422 43.4612 40.3125 48.2903 40.3125 54.1639V58.4766H44.6351C44.4979 58.0078 44.4075 57.5518 44.4075 57.05C44.4074 54.667 46.0547 52.6841 48.2812 52.1626Z" fill="white"/>
<path id="XMLID_965_" d="M49.4614 54.3638C47.9707 54.3638 46.7578 55.5767 46.7578 57.0675C46.7578 57.678 46.9615 58.2416 47.304 58.6947C47.4691 58.7999 47.6064 58.9447 47.7011 59.1168C48.1745 59.524 48.7895 59.771 49.4614 59.771C50.9523 59.771 52.1652 58.5581 52.1652 57.0674C52.1652 55.5767 50.9523 54.3638 49.4614 54.3638Z" fill="white"/>
<path id="XMLID_1009_" d="M24.145 18.9088C29.295 18.9088 33.5156 14.7189 33.5156 9.56885V8.40131C33.5156 5.18252 36.1562 2.56385 39.375 2.56385C42.5938 2.56385 45.2344 5.18252 45.2344 8.40131V22.8516H44.0625V26.9531H48.2812V22.8516H47.4609V8.40143C47.4609 3.8951 43.8226 0.229004 39.3164 0.229004C34.8102 0.229004 31.1719 3.89521 31.1719 8.40143V9.56896C31.1719 13.4315 27.9988 16.574 24.1363 16.574C18.9862 16.574 14.7656 20.7639 14.7656 25.9139V43.5128C13.4766 43.8374 12.5391 45.0448 12.5391 46.4813V48.0469H8.96812C8.32336 48.0469 7.85156 48.6189 7.85156 49.2636V53.9336C7.85156 54.5783 8.32336 55.078 8.96812 55.078H22.978C23.6228 55.078 24.1406 54.5783 24.1406 53.9336V49.2636C24.1406 48.6189 23.6228 48.0469 22.978 48.0469H19.4531V46.4812C19.4531 45.0447 18.5156 43.8373 17.1094 43.5127V25.9138C17.1094 22.0513 20.2825 18.9088 24.145 18.9088ZM14.7656 48.0469V46.4812C14.7656 46.0841 15.1286 45.7031 15.5256 45.7031H16.4205C16.8176 45.7031 17.1094 46.0842 17.1094 46.4812V48.0469H14.7656Z" fill="white"/>
</g>
</g>
</g>
</svg>
