<svg width="80" height="80" viewBox="0 0 80 80" fill="none" xmlns="http://www.w3.org/2000/svg">
<g id="glass-cleaner-svgrepo-com 1">
<path id="Vector" fill-rule="evenodd" clip-rule="evenodd" d="M69.6757 29.2576C67.2803 29.2576 67.3886 25.8349 69.637 25.8349C71.8774 25.8349 71.8635 29.2576 69.6757 29.2576ZM67.9035 21.4867C65.5086 21.4867 65.6172 18.064 67.8656 18.064C70.106 18.064 70.0921 21.4867 67.9035 21.4867ZM67.9077 31.0071C71.1094 31.0071 71.0888 35.8981 67.9629 35.8981C64.5401 35.8981 64.6947 31.0071 67.9077 31.0071ZM60.1776 32.232C57.7827 32.232 57.8904 28.8092 60.1397 28.8092C62.3797 28.8092 62.3658 32.232 60.1776 32.232ZM59.1397 26.7002C55.7161 26.7002 55.8715 21.8092 59.0846 21.8092C62.2862 21.8092 62.2656 26.7002 59.1397 26.7002ZM52.3241 29.2576C49.9288 29.2576 50.037 25.8349 52.2854 25.8349C54.5254 25.8349 54.5115 29.2576 52.3241 29.2576ZM44.573 30.2025L44.5081 29.5376L42.8824 29.9099C43.3456 32.8109 45.3275 35.5073 46.4399 36.8484L45.3864 37.8374C43.17 36.9393 41.0631 32.7751 41.0631 32.7751H39.9406L39.5953 36.2648L33.9035 36.536C33.9035 36.536 33.3987 30.0063 31.3987 28.8395C32.3157 27.9229 32.9827 26.3595 32.9827 26.3595L44.2201 26.5958L44.1321 25.6985L47.4126 25.405L47.3149 30.4968L44.573 30.2025ZM39.7902 39.2383L41.6799 42.0779C40.5435 47.6202 40.9957 51.4202 44.957 52.8303L46.3574 61.9355L29.0201 61.9145C28.7481 52.9806 29.2938 43.6627 34.0193 39.0682L39.7902 39.2383Z" fill="white"/>
</g>
</svg>
