<svg width="100" height="100" viewBox="0 0 100 100" fill="none" xmlns="http://www.w3.org/2000/svg">
<g id="manager-profile-svgrepo-com 1" clip-path="url(#clip0_216_834)">
<path id="Vector" d="M94.9598 100H5.04054C4.22309 100 3.56055 99.3375 3.56055 98.52V81.3447C3.56055 74.7001 7.54665 68.8122 13.7157 66.3445L34.9911 57.8346C35.3636 57.6856 35.7809 57.694 36.1465 57.8583C36.5125 58.0225 36.7962 58.3279 36.9328 58.7053L43.1952 76.0192L45.2558 70.0953L43.4344 65.6435C43.2475 65.1872 43.3008 64.6672 43.5751 64.2582C43.8503 63.8488 44.3106 63.6031 44.8039 63.6031H55.1964C55.6898 63.6031 56.1505 63.8488 56.4253 64.2582C56.7001 64.6677 56.7529 65.1872 56.5659 65.6435L54.745 70.0958L56.8057 76.0197L63.068 58.7058C63.2042 58.3284 63.4883 58.023 63.8544 57.8587C64.2199 57.6945 64.6373 57.6861 65.0097 57.8351L86.2846 66.345C92.4542 68.8127 96.4403 74.701 96.4403 81.3452V98.5205C96.4398 99.3375 95.7778 100 94.9598 100ZM6.52053 97.04H93.4803V81.3447C93.4803 75.9176 90.2243 71.1081 85.1855 69.0929L65.3314 61.1512L58.1702 80.9491C57.9571 81.5381 57.3957 81.9214 56.7692 81.9254C56.1421 81.9214 55.5867 81.5233 55.3804 80.9313L51.7663 70.5388C51.6479 70.1984 51.6573 69.826 51.7944 69.4925L52.9927 66.5626H47.0081L48.2069 69.492C48.3436 69.826 48.3534 70.1979 48.2355 70.5388L44.6209 80.9313C44.4147 81.5233 43.8587 81.9214 43.2322 81.9254C42.5874 81.9234 42.0442 81.5381 41.8311 80.9491L34.6699 61.1512L14.8149 69.0929C9.77601 71.1081 6.52053 75.9171 6.52053 81.3447V97.04ZM83.5994 93.526H67.0349C66.2174 93.526 65.5549 92.8635 65.5549 92.046V81.8489C65.5549 81.0314 66.2174 80.3689 67.0349 80.3689H83.5994C84.4169 80.3689 85.0794 81.0314 85.0794 81.8489V92.046C85.0794 92.863 84.4169 93.526 83.5994 93.526ZM68.5149 90.566H82.1194V83.3289H68.5149V90.566ZM50.0002 57.4863C47.7092 57.4863 45.4754 57.061 43.3604 56.2219C41.726 55.5732 40.3753 54.7572 39.3467 53.7967C36.5056 51.145 33.5521 45.4707 32.4633 43.2616C30.6143 43.1718 26.8221 42.1861 25.1802 35.9095C24.3653 32.7926 24.5513 30.2875 25.7328 28.4642C26.3776 27.4686 27.1891 26.8825 27.8605 26.5421C27.8487 25.7647 27.8664 24.6315 27.9907 23.2738C26.9503 21.6848 24.6746 16.9464 28.5818 10.0111C28.5827 10.0097 28.5832 10.0087 28.5842 10.0072C28.5842 10.0072 28.5887 9.99931 28.5897 9.99734C28.5901 9.99635 28.6099 9.96231 28.6114 9.95935C28.6148 9.95392 28.6183 9.948 28.6212 9.94258C28.6252 9.93616 28.6286 9.92975 28.6321 9.92334C28.6331 9.92186 28.6341 9.92038 28.635 9.9189C31.1925 5.44637 34.5012 4.5041 36.8307 4.50262C36.8312 4.50262 36.8317 4.50262 36.8322 4.50262H36.8332C36.8342 4.50262 36.8357 4.50262 36.8357 4.50262H36.8367C37.4079 4.50262 37.923 4.56084 38.3596 4.64026C39.4212 2.77449 42.3989 0 50.7076 0C50.7066 0 50.7081 0 50.7076 0H50.7086C50.7135 0 50.7185 0 50.7234 0L51.0993 0.00197332C51.1028 0.00197332 51.1062 0.00197332 51.1097 0.00197332H51.1121C51.1171 0.00197332 51.1215 0.00197332 51.1255 0.00197332C56.6098 0.0626529 60.9827 2.07297 63.7064 3.76904C68.8804 6.30032 72.0441 11.5888 72.8202 14.3337C73.1596 15.536 73.3298 16.9336 73.3248 18.4871C73.3248 18.4875 73.3248 18.488 73.3248 18.4885C73.3248 18.4885 73.3248 18.489 73.3248 18.4895C73.3248 18.491 73.3248 18.493 73.3248 18.4949C73.3248 18.4954 73.3248 18.4964 73.3248 18.4969C73.3248 18.4979 73.3248 18.4994 73.3248 18.5009C73.3248 18.5028 73.3248 18.5058 73.3248 18.5083C73.3248 18.5102 73.3248 18.5127 73.3248 18.5147C73.3248 18.5171 73.3248 18.5201 73.3248 18.5226C73.3081 22.0785 72.3979 25.4889 72.1413 26.3808C72.1408 26.4356 72.1403 26.4889 72.1394 26.5402C72.8108 26.8806 73.6228 27.4667 74.2671 28.4622C75.4491 30.286 75.6346 32.7907 74.8196 35.9075C73.1783 42.1842 69.3861 43.1703 67.5371 43.2601C66.4483 45.4693 63.4947 51.1435 60.6531 53.7957C59.6241 54.7562 58.2738 55.5722 56.6394 56.2204C54.5245 57.061 52.2907 57.4863 50.0002 57.4863ZM33.3528 40.2661C33.9245 40.2661 34.4701 40.5902 34.7158 41.1176C34.7509 41.1936 38.2925 48.7637 41.3664 51.6329C42.1242 52.3404 43.1621 52.9585 44.4517 53.4706C46.2178 54.1711 48.0841 54.5268 49.9997 54.5268C51.9153 54.5268 53.7816 54.1716 55.5477 53.4706C56.8367 52.959 57.8752 52.3409 58.6335 51.6334C61.7074 48.7637 65.249 41.1941 65.284 41.1181C65.5731 40.4975 66.252 40.1566 66.9209 40.2918C66.9204 40.2918 66.9204 40.2918 66.9204 40.2918C66.9244 40.2918 67.0452 40.3095 67.2342 40.3095C68.4946 40.3095 70.7837 39.6406 71.9554 35.1606C72.534 32.948 72.4842 31.2051 71.8123 30.1208C71.2449 29.2056 70.3826 29.0172 70.3456 29.0098C69.5849 28.883 69.0763 28.1983 69.1414 27.4297C69.1414 27.4267 69.1784 26.9709 69.1818 26.2126C69.1552 25.7987 68.947 24.5491 68.3205 23.9541C67.5627 23.3488 62.9521 22.4594 58.4934 21.599C56.6192 21.2374 54.4954 20.8279 52.2567 20.3696C52.2542 20.3691 52.2512 20.3686 52.2483 20.3681C50.7851 20.1022 49.5231 19.7421 48.4945 19.2986C44.7339 17.9099 42.1464 15.9183 40.5736 14.3988C40.0073 15.9691 39.0981 17.9173 37.734 19.3903C35.3142 22.004 32.3868 23.3878 30.9019 23.9675C30.744 26.0251 30.855 27.4149 30.8565 27.4306C30.9206 28.1983 30.3849 28.8889 29.6252 29.0152C29.6153 29.0182 28.7529 29.2066 28.1856 30.1218C27.5137 31.2061 27.4639 32.949 28.0425 35.1616C29.2147 39.642 31.5042 40.3105 32.7642 40.3105C32.9714 40.3105 33.0972 40.2893 33.0982 40.2893C33.184 40.273 33.2689 40.2661 33.3528 40.2661ZM39.9047 9.91396C40.3955 9.91396 40.8627 10.1587 41.14 10.579C41.1622 10.612 43.76 14.4038 49.5567 16.534C49.5848 16.5443 49.6114 16.5547 49.6386 16.5665C50.4708 16.9296 51.5364 17.23 52.8053 17.4594C52.824 17.4629 52.8423 17.4664 52.861 17.4703C55.0736 17.9232 57.1885 18.3317 59.0553 18.6918C65.7848 19.9902 68.799 20.6034 70.1241 21.6074C70.2613 20.6355 70.3604 19.5724 70.3653 18.5097C70.3653 18.5078 70.3653 18.5053 70.3653 18.5028C70.3653 18.5014 70.3653 18.4994 70.3653 18.4979C70.3653 18.4964 70.3653 18.4945 70.3653 18.493C70.3653 18.493 70.3653 18.4925 70.3653 18.492C70.3653 18.491 70.3653 18.4895 70.3653 18.4885C70.3653 18.488 70.3653 18.4875 70.3653 18.4866C70.3653 18.4866 70.3653 18.4861 70.3653 18.4856C70.3653 18.4841 70.3653 18.4826 70.3653 18.4806C70.3653 18.4792 70.3653 18.4777 70.3653 18.4762C70.3688 17.2848 70.2534 16.2281 70.024 15.3317C70.0072 15.2671 69.9904 15.2034 69.9727 15.1408C69.9366 15.013 69.8937 14.8793 69.8449 14.7402C68.9929 12.3209 66.2179 8.29288 62.3818 6.41773C62.3211 6.39011 62.2624 6.35853 62.2057 6.32301C59.8105 4.82033 55.9374 3.01721 51.0939 2.96393C51.0899 2.96393 51.0855 2.96393 51.0821 2.96393L50.7081 2.95998C50.4718 2.95998 50.2414 2.96245 50.0165 2.96689C50.0135 2.96689 50.0115 2.96689 50.0086 2.96689C41.696 3.1435 40.7557 6.46559 40.7118 6.64565C40.7053 6.68314 40.6984 6.72064 40.6896 6.75813C40.6382 6.97668 40.5401 7.1745 40.4074 7.34174C40.3057 7.46951 40.1854 7.57755 40.0512 7.66388C39.8386 7.80103 39.5904 7.8849 39.3275 7.89871C39.1701 7.90759 39.0127 7.89082 38.8568 7.8479C38.7843 7.82767 38.7138 7.803 38.6462 7.77291C38.5431 7.73196 37.8238 7.46211 36.8357 7.46211C36.8347 7.46211 36.8342 7.46211 36.8332 7.46211C34.5767 7.4631 32.6764 8.79509 31.1851 11.4211C31.1841 11.4226 31.1831 11.424 31.1821 11.4255C31.1821 11.426 31.1816 11.426 31.1816 11.4265C31.1796 11.43 31.1777 11.4329 31.1757 11.4364C31.1727 11.4418 31.1698 11.4467 31.1668 11.4522C31.1658 11.4541 31.1648 11.4556 31.1638 11.4576C31.1629 11.4586 31.1624 11.4596 31.1619 11.4606C28.4402 16.2893 29.4022 19.6168 30.1367 21.081C31.4243 20.5418 33.702 19.3879 35.5624 17.3785C37.2915 15.5113 38.2338 12.2208 38.4508 11.1103C38.5663 10.5203 39.027 10.059 39.6166 9.94258C39.7133 9.92284 39.8095 9.91396 39.9047 9.91396Z" fill="black"/>
</g>
<defs>
<clipPath id="clip0_216_834">
<rect width="100" height="100" fill="white"/>
</clipPath>
</defs>
</svg>
