<svg width="60" height="60" viewBox="0 0 60 60" fill="none" xmlns="http://www.w3.org/2000/svg">
<g clip-path="url(#clip0_162_470)">
<path d="M30.8906 37.9688H29.1094H3.53906V56.5664V56.7188H29.1094H56.4492V51.0586V49.2773V45.3984V43.6172V37.9688H30.8906ZM29.1094 43.6172V45.3984V49.2773V51.0586V54.7852H5.32031V39.7383H29.1094V43.6172ZM54.6797 54.9375H30.8906V51.0586H54.6797V54.9375ZM54.6797 49.2773H30.8906V45.3984H54.6797V49.2773ZM54.6797 43.6172H30.8906V39.7383H54.6797V43.6172Z" fill="white"/>
<path d="M0.0585938 0V16.7695H14.2266V20.3086H45.75V16.7695H59.918V0H0.0585938ZM43.9922 18.5391H16.0078V16.7812H43.9805L43.9922 18.5391ZM45.7617 15H14.2383H1.83984V1.78125H58.1602V15H45.7617Z" fill="white"/>
<path d="M39.4102 2.82422H37.6289H22.3711H20.5898H3.53906V13.957H20.5898H22.3711H37.6406H39.4219H56.4609V2.82422H39.4102ZM20.5898 12.1758H5.32031V4.59375H20.5898V12.1758ZM37.6289 12.1758H22.3711V4.59375H37.6406V12.1758H37.6289ZM54.6797 12.1758H39.4102V4.59375H54.6797V12.1758Z" fill="white"/>
<path d="M56.2617 34.6758C56.6367 34.1719 56.8828 33.5742 56.9766 32.9297L57.832 26.9766H45.1523L46.0078 32.9297C46.1016 33.5742 46.3594 34.1719 46.7227 34.6758H42.9258V31.7578H40.4062V29.4844H37.875V31.2656H38.6367V31.7578H34.2539V31.2656H35.1094V29.4844H32.4727V31.7578H27.5391V29.4844H25.0078V31.2656H25.7695V31.7578H21.3867V31.2656H22.2422V29.4844H19.6172V31.7578H17.0977V34.6758H0.0585938V60H59.9297V34.6758H56.2617ZM55.7812 28.7578L55.2188 32.6836C55.0664 33.7266 54.1641 34.5 53.1211 34.5H49.875C48.8203 34.5 47.918 33.7148 47.7773 32.6836L47.2148 28.7578H55.7812ZM18.8438 33.5391H19.5938H27.5273H32.4609H40.3945H41.1445V34.6758H18.8438V33.5391ZM58.1602 58.2187H1.83984V36.457H17.0742H42.9258H58.1602V58.2187Z" fill="white"/>
<path d="M14.9414 9.44531H10.4297V11.2266H14.9414V9.44531Z" fill="white"/>
<path d="M17.6602 9.44531H15.8789V11.2148H17.6602V9.44531Z" fill="white"/>
<path d="M18.6797 42.4219H14.168V44.2031H18.6797V42.4219Z" fill="white"/>
<path d="M21.3984 42.4219H19.6172V44.1914H21.3984V42.4219Z" fill="white"/>
<path d="M44.4375 40.793H39.9258V42.5742H44.4375V40.793Z" fill="white"/>
<path d="M47.168 40.793H45.3867V42.5625H47.168V40.793Z" fill="white"/>
<path d="M44.4375 46.4531H39.9258V48.2344H44.4375V46.4531Z" fill="white"/>
<path d="M47.168 46.4531H45.3867V48.2227H47.168V46.4531Z" fill="white"/>
<path d="M44.4375 52.1133H39.9258V53.8945H44.4375V52.1133Z" fill="white"/>
<path d="M47.168 52.1133H45.3867V53.8828H47.168V52.1133Z" fill="white"/>
<path d="M31.6992 9.44531H27.1875V11.2266H31.6992V9.44531Z" fill="white"/>
<path d="M34.418 9.44531H32.6367V11.2148H34.418V9.44531Z" fill="white"/>
<path d="M48.9141 9.44531H44.4023V11.2266H48.9141V9.44531Z" fill="white"/>
<path d="M51.6445 9.44531H49.8633V11.2148H51.6445V9.44531Z" fill="white"/>
</g>
<defs>
<clipPath id="clip0_162_470">
<rect width="60" height="60" fill="white"/>
</clipPath>
</defs>
</svg>
