<svg width="60" height="60" viewBox="0 0 60 60" fill="none" xmlns="http://www.w3.org/2000/svg">
<g clip-path="url(#clip0_162_788)">
<path d="M13.6194 9.59998C8.13088 9.59998 3.59984 13.8798 3.59984 19.2V19.6969C1.89669 20.4289 0.595469 21.934 0.166243 23.7726C-0.526542 26.7415 1.10796 29.4439 3.59984 30.5719V39.6C3.59984 42.4415 5.02841 44.9574 7.19984 46.4789V51.6C7.19987 51.9182 7.32631 52.2234 7.55134 52.4485C7.77638 52.6735 8.08159 52.7999 8.39984 52.8H13.1998C13.5181 52.7999 13.8233 52.6735 14.0483 52.4485C14.2734 52.2234 14.3998 51.9182 14.3998 51.6V48H45.5998V51.6C45.5999 51.9182 45.7263 52.2234 45.9513 52.4485C46.1764 52.6735 46.4816 52.7999 46.7998 52.8H51.5998C51.9181 52.7999 52.2233 52.6735 52.4483 52.4485C52.6734 52.2234 52.7998 51.9182 52.7998 51.6V46.4789C54.9713 44.9574 56.3998 42.4415 56.3998 39.6V30.5929C58.494 29.658 59.9998 27.6346 59.9998 25.2C59.9998 22.7553 58.5088 20.6438 56.3998 19.7109V19.2C56.3998 13.8798 51.8688 9.59998 46.3803 9.59998H13.6194ZM13.6194 12H46.3803C50.6334 12 53.9998 15.2418 53.9998 19.2V19.2023C53.8062 19.2022 53.611 19.2093 53.4139 19.2281C50.265 19.5279 47.9998 22.3146 47.9998 25.4062V31.2H33.5998C32.1633 31.2 30.882 31.8554 29.9998 32.8664C29.1177 31.8554 27.8364 31.2 26.3998 31.2H11.9998V25.2C11.9998 21.903 9.26999 19.2201 5.99984 19.2047V19.2C5.99984 15.2418 9.36626 12 13.6194 12ZM15.5998 15.6C15.2816 15.6 14.9764 15.7264 14.7513 15.9514C14.5263 16.1765 14.3998 16.4817 14.3998 16.8C14.3998 17.1182 14.5263 17.4235 14.7513 17.6485C14.9764 17.8735 15.2816 18 15.5998 18C15.9181 18 16.2233 17.8735 16.4484 17.6485C16.6734 17.4235 16.7998 17.1182 16.7998 16.8C16.7998 16.4817 16.6734 16.1765 16.4484 15.9514C16.2233 15.7264 15.9181 15.6 15.5998 15.6ZM25.1998 15.6C24.8816 15.6 24.5764 15.7264 24.3513 15.9514C24.1263 16.1765 23.9998 16.4817 23.9998 16.8C23.9998 17.1182 24.1263 17.4235 24.3513 17.6485C24.5764 17.8735 24.8816 18 25.1998 18C25.5181 18 25.8233 17.8735 26.0484 17.6485C26.2734 17.4235 26.3998 17.1182 26.3998 16.8C26.3998 16.4817 26.2734 16.1765 26.0484 15.9514C25.8233 15.7264 25.5181 15.6 25.1998 15.6ZM34.7998 15.6C34.4816 15.6 34.1764 15.7264 33.9513 15.9514C33.7263 16.1765 33.5998 16.4817 33.5998 16.8C33.5998 17.1182 33.7263 17.4235 33.9513 17.6485C34.1764 17.8735 34.4816 18 34.7998 18C35.1181 18 35.4233 17.8735 35.6484 17.6485C35.8734 17.4235 35.9998 17.1182 35.9998 16.8C35.9998 16.4817 35.8734 16.1765 35.6484 15.9514C35.4233 15.7264 35.1181 15.6 34.7998 15.6ZM44.3998 15.6C44.0816 15.6 43.7764 15.7264 43.5513 15.9514C43.3263 16.1765 43.1998 16.4817 43.1998 16.8C43.1998 17.1182 43.3263 17.4235 43.5513 17.6485C43.7764 17.8735 44.0816 18 44.3998 18C44.7181 18 45.0233 17.8735 45.2484 17.6485C45.4734 17.4235 45.5998 17.1182 45.5998 16.8C45.5998 16.4817 45.4734 16.1765 45.2484 15.9514C45.0233 15.7264 44.7181 15.6 44.3998 15.6ZM20.3998 20.4C20.0816 20.4 19.7764 20.5264 19.5513 20.7514C19.3263 20.9765 19.1998 21.2817 19.1998 21.6C19.1998 21.9182 19.3263 22.2235 19.5513 22.4485C19.7764 22.6735 20.0816 22.8 20.3998 22.8C20.7181 22.8 21.0233 22.6735 21.2484 22.4485C21.4734 22.2235 21.5998 21.9182 21.5998 21.6C21.5998 21.2817 21.4734 20.9765 21.2484 20.7514C21.0233 20.5264 20.7181 20.4 20.3998 20.4ZM29.9998 20.4C29.6816 20.4 29.3764 20.5264 29.1513 20.7514C28.9263 20.9765 28.7998 21.2817 28.7998 21.6C28.7998 21.9182 28.9263 22.2235 29.1513 22.4485C29.3764 22.6735 29.6816 22.8 29.9998 22.8C30.3181 22.8 30.6233 22.6735 30.8484 22.4485C31.0734 22.2235 31.1998 21.9182 31.1998 21.6C31.1998 21.2817 31.0734 20.9765 30.8484 20.7514C30.6233 20.5264 30.3181 20.4 29.9998 20.4ZM39.5998 20.4C39.2816 20.4 38.9764 20.5264 38.7513 20.7514C38.5263 20.9765 38.3998 21.2817 38.3998 21.6C38.3998 21.9182 38.5263 22.2235 38.7513 22.4485C38.9764 22.6735 39.2816 22.8 39.5998 22.8C39.9181 22.8 40.2233 22.6735 40.4484 22.4485C40.6734 22.2235 40.7998 21.9182 40.7998 21.6C40.7998 21.2817 40.6734 20.9765 40.4484 20.7514C40.2233 20.5264 39.9181 20.4 39.5998 20.4ZM6.02093 21.5976C8.04213 21.594 9.59984 23.203 9.59984 25.2V37.2C9.59984 39.1739 11.2259 40.8 13.1998 40.8H46.7998C48.7738 40.8 50.3998 39.1739 50.3998 37.2V25.4062C50.3998 23.4842 51.7981 21.7918 53.6412 21.6164C55.8225 21.4079 57.5998 23.0796 57.5998 25.2C57.5998 26.8853 56.4507 28.2656 54.8975 28.6687C54.6403 28.7357 54.4125 28.8862 54.2501 29.0966C54.0876 29.307 53.9996 29.5654 53.9998 29.8312V39.6C53.9998 42.9284 51.3282 45.6 47.9998 45.6H11.9998C8.67144 45.6 5.99984 42.9284 5.99984 39.6V29.8429C5.99943 29.5772 5.91084 29.3191 5.74796 29.1092C5.58508 28.8992 5.35713 28.7492 5.09984 28.6828C3.28895 28.2155 2.01102 26.4246 2.50296 24.3164C2.79721 23.0559 3.86846 21.9907 5.13031 21.7008C5.43482 21.6308 5.73219 21.5981 6.02093 21.5976ZM15.5998 25.2C15.2816 25.2 14.9764 25.3264 14.7513 25.5514C14.5263 25.7765 14.3998 26.0817 14.3998 26.4C14.3998 26.7182 14.5263 27.0235 14.7513 27.2485C14.9764 27.4735 15.2816 27.6 15.5998 27.6C15.9181 27.6 16.2233 27.4735 16.4484 27.2485C16.6734 27.0235 16.7998 26.7182 16.7998 26.4C16.7998 26.0817 16.6734 25.7765 16.4484 25.5514C16.2233 25.3264 15.9181 25.2 15.5998 25.2ZM25.1998 25.2C24.8816 25.2 24.5764 25.3264 24.3513 25.5514C24.1263 25.7765 23.9998 26.0817 23.9998 26.4C23.9998 26.7182 24.1263 27.0235 24.3513 27.2485C24.5764 27.4735 24.8816 27.6 25.1998 27.6C25.5181 27.6 25.8233 27.4735 26.0484 27.2485C26.2734 27.0235 26.3998 26.7182 26.3998 26.4C26.3998 26.0817 26.2734 25.7765 26.0484 25.5514C25.8233 25.3264 25.5181 25.2 25.1998 25.2ZM34.7998 25.2C34.4816 25.2 34.1764 25.3264 33.9513 25.5514C33.7263 25.7765 33.5998 26.0817 33.5998 26.4C33.5998 26.7182 33.7263 27.0235 33.9513 27.2485C34.1764 27.4735 34.4816 27.6 34.7998 27.6C35.1181 27.6 35.4233 27.4735 35.6484 27.2485C35.8734 27.0235 35.9998 26.7182 35.9998 26.4C35.9998 26.0817 35.8734 25.7765 35.6484 25.5514C35.4233 25.3264 35.1181 25.2 34.7998 25.2ZM44.3998 25.2C44.0816 25.2 43.7764 25.3264 43.5513 25.5514C43.3263 25.7765 43.1998 26.0817 43.1998 26.4C43.1998 26.7182 43.3263 27.0235 43.5513 27.2485C43.7764 27.4735 44.0816 27.6 44.3998 27.6C44.7181 27.6 45.0233 27.4735 45.2484 27.2485C45.4734 27.0235 45.5998 26.7182 45.5998 26.4C45.5998 26.0817 45.4734 25.7765 45.2484 25.5514C45.0233 25.3264 44.7181 25.2 44.3998 25.2ZM11.9998 33.6H26.3998C27.7398 33.6 28.7998 34.66 28.7998 36V38.4H13.1998C12.5218 38.4 11.9998 37.878 11.9998 37.2V33.6ZM33.5998 33.6H47.9998V37.2C47.9998 37.878 47.4779 38.4 46.7998 38.4H31.1998V36C31.1998 34.66 32.2598 33.6 33.5998 33.6ZM9.59984 47.6437C10.3611 47.8718 11.1662 48 11.9998 48V50.4H9.59984V47.6437ZM50.3998 47.6437V50.4H47.9998V48C48.8334 48 49.6386 47.8718 50.3998 47.6437Z" fill="white"/>
</g>
<defs>
<clipPath id="clip0_162_788">
<rect width="60" height="60" fill="white"/>
</clipPath>
</defs>
</svg>
