<svg width="60" height="60" viewBox="0 0 60 60" fill="none" xmlns="http://www.w3.org/2000/svg">
<path d="M7.92893 19.071C13.1699 14.571 17.3099 11.013 28.5449 17.361C33.9419 20.409 38.2949 21.561 41.9159 21.555C48.2609 21.555 52.3739 18.027 55.9289 14.976C56.5391 14.4451 56.9186 13.6975 56.9869 12.8917C57.0552 12.0858 56.807 11.285 56.2949 10.659C56.0451 10.3518 55.7362 10.0978 55.3866 9.91213C55.0369 9.72641 54.6535 9.61271 54.2592 9.57775C53.8648 9.54279 53.4674 9.58727 53.0905 9.70858C52.7136 9.82988 52.3649 10.0255 52.0649 10.284C46.8269 14.79 42.6839 18.348 31.4489 11.994C16.6049 3.61498 9.65093 9.58498 4.06493 14.385C3.45518 14.9162 3.07627 15.664 3.00851 16.4699C2.94074 17.2758 3.18946 18.0764 3.70193 18.702C3.95189 19.0086 4.26084 19.262 4.61047 19.4472C4.9601 19.6323 5.34332 19.7454 5.73744 19.7798C6.13157 19.8142 6.52859 19.7692 6.90501 19.6475C7.28143 19.5257 7.62961 19.3297 7.92893 19.071ZM52.0649 25.605C46.8269 30.105 42.6839 33.669 31.4489 27.315C16.6049 18.93 9.65093 24.903 4.06493 29.7C3.45518 30.2312 3.07627 30.979 3.00851 31.7849C2.94074 32.5908 3.18946 33.3914 3.70193 34.017C3.95146 34.3241 4.26007 34.578 4.60949 34.7636C4.9589 34.9493 5.34202 35.063 5.73616 35.098C6.1303 35.1329 6.52745 35.0885 6.90409 34.9672C7.28074 34.8459 7.62923 34.6503 7.92893 34.392C13.1699 29.889 17.3099 26.331 28.5449 32.676C33.9419 35.73 38.2949 36.876 41.9159 36.876C48.2609 36.876 52.3739 33.348 55.9289 30.291C56.5396 29.7611 56.9195 29.0139 56.9878 28.2083C57.0562 27.4027 56.8076 26.6022 56.2949 25.977C56.0452 25.6697 55.7362 25.4156 55.3864 25.23C55.0366 25.0443 54.6531 24.9307 54.2586 24.896C53.8641 24.8613 53.4667 24.9062 53.0899 25.028C52.713 25.1498 52.3645 25.346 52.0649 25.605ZM52.0649 40.923C46.8269 45.429 42.6839 48.987 31.4489 42.639C16.6049 34.254 9.65093 40.224 4.06493 45.024C3.45518 45.5552 3.07627 46.303 3.00851 47.1089C2.94074 47.9148 3.18946 48.7154 3.70193 49.341C3.95165 49.648 4.26049 49.9017 4.61013 50.0871C4.95977 50.2724 5.34309 50.3857 5.73733 50.4201C6.13157 50.4545 6.52871 50.4094 6.90518 50.2874C7.28165 50.1654 7.62979 49.9691 7.92893 49.71C13.1699 45.21 17.3099 41.655 28.5449 48C33.9419 51.048 38.2949 52.2 41.9159 52.2C48.2609 52.2 52.3739 48.666 55.9289 45.615C56.5391 45.0841 56.9186 44.3365 56.9869 43.5307C57.0552 42.7248 56.807 41.924 56.2949 41.298C56.0449 40.9912 55.7359 40.7375 55.3862 40.552C55.0366 40.3666 54.6533 40.253 54.259 40.218C53.8648 40.1831 53.4675 40.2275 53.0907 40.3485C52.7138 40.4696 52.3651 40.6649 52.0649 40.923Z" fill="white"/>
</svg>
