<svg width="60" height="60" viewBox="0 0 60 60" fill="none" xmlns="http://www.w3.org/2000/svg">
<g id="building-svgrepo-com 1">
<path id="Vector" d="M10.8002 0C8.82676 0 7.2002 1.62656 7.2002 3.6V60H52.8002V3.6C52.8002 1.62656 51.1736 0 49.2002 0H10.8002ZM10.8002 2.4H49.2002C49.8658 2.4 50.4002 2.93438 50.4002 3.6V57.6H45.6002V43.2H32.4002V57.6H9.6002V3.6C9.6002 2.93438 10.1346 2.4 10.8002 2.4ZM14.4002 7.2V16.8H27.6002V7.2H14.4002ZM32.4002 7.2V16.8H45.6002V7.2H32.4002ZM16.8002 9.6H25.2002V14.4H16.8002V9.6ZM34.8002 9.6H43.2002V14.4H34.8002V9.6ZM14.4002 19.2V28.8H27.6002V19.2H14.4002ZM32.4002 19.2V28.8H45.6002V19.2H32.4002ZM16.8002 21.6H25.2002V26.4H16.8002V21.6ZM34.8002 21.6H43.2002V26.4H34.8002V21.6ZM14.4002 31.2V40.8H27.6002V31.2H14.4002ZM32.4002 31.2V40.8H45.6002V31.2H32.4002ZM16.8002 33.6H25.2002V38.4H16.8002V33.6ZM34.8002 33.6H43.2002V38.4H34.8002V33.6ZM14.4002 43.2V52.8H27.6002V43.2H14.4002ZM16.8002 45.6H25.2002V50.4H16.8002V45.6ZM34.8002 45.6H43.2002V57.6H34.8002V45.6Z" fill="white"/>
</g>
</svg>
