<svg width="60" height="60" viewBox="0 0 60 60" fill="none" xmlns="http://www.w3.org/2000/svg">
<g id="cleaner-vacuum-svgrepo-com 1">
<g id="Group">
<g id="Group_2">
<path id="Vector" d="M28.5952 55.8563H10.7002V41.4778C10.7002 40.9435 10.2672 40.5105 9.73293 40.5105C9.19867 40.5105 8.76566 40.9435 8.76566 41.4778V46.7646H4.46922C3.93496 46.7646 3.50195 47.1976 3.50195 47.7318V59.0315C3.50195 59.5658 3.93496 59.9988 4.46922 59.9988H9.7327C10.267 59.9988 10.7 59.5658 10.7 59.0315V57.7907H28.5953C29.1296 57.7907 29.5626 57.3577 29.5626 56.8235C29.5625 56.2893 29.1295 55.8563 28.5952 55.8563ZM8.76555 58.0642H5.4366V48.6991H8.76555V58.0642Z" fill="white"/>
</g>
</g>
<g id="Group_3">
<g id="Group_4">
<path id="Vector_2" d="M52.1036 52.0471H46.7775V47.5219C46.7775 46.9876 46.3445 46.5546 45.8102 46.5546C45.276 46.5546 44.843 46.9876 44.843 47.5219V52.0471H42.3192V16.6089H44.843V44.2979C44.843 44.8322 45.276 45.2652 45.8102 45.2652C46.3445 45.2652 46.7775 44.8322 46.7775 44.2979V12.954C46.7776 5.81109 40.9664 0 33.8236 0C26.6808 0 20.8695 5.81121 20.8695 12.954V18.6993H20.4079C18.943 18.6993 17.7513 19.8911 17.7513 21.3558V22.4607H15.0693C11.5934 22.4607 8.76562 25.2885 8.76562 28.7644V38.2537C8.76562 38.788 9.19863 39.221 9.73289 39.221C10.2671 39.221 10.7002 38.788 10.7002 38.2537V31.8704H31.1098C31.644 31.8704 32.077 31.4374 32.077 30.9032C32.077 30.3689 31.644 29.9359 31.1098 29.9359H10.6999V28.7641C10.6999 26.355 12.6598 24.395 15.069 24.395H32.5561C34.9652 24.395 36.9252 26.3549 36.9252 28.7641V29.9359H34.3335C33.7992 29.9359 33.3662 30.3689 33.3662 30.9032C33.3662 31.4374 33.7992 31.8704 34.3335 31.8704H36.9252V34.385H30.7618C28.8204 34.385 27.2408 35.9646 27.2408 37.9061V45.3713C27.2408 47.3127 28.8204 48.8923 30.7618 48.8923H36.9252V52.0467H35.1865C32.7638 52.0467 30.7929 54.0177 30.7929 56.4405V59.0326C30.7929 59.5669 31.2259 59.9999 31.7602 59.9999H55.5301C56.0644 59.9999 56.4974 59.5669 56.4974 59.0326V56.4405C56.4973 54.0179 54.5263 52.0471 52.1036 52.0471ZM36.925 46.9582H30.7621C29.8871 46.9582 29.1754 46.2464 29.1754 45.3715V37.9063C29.1754 37.0314 29.8871 36.3196 30.7621 36.3196H36.925V46.9582ZM22.8039 12.954C22.8039 6.87773 27.7472 1.93441 33.8235 1.93441C39.8998 1.93441 44.8431 6.87773 44.8431 12.954V14.6745H42.3193V12.954C42.3193 8.26875 38.5082 4.45676 33.8235 4.45676C29.1388 4.45676 25.3276 8.26852 25.3276 12.954V18.6993H22.8039V12.954ZM27.9389 22.4609H19.6854V21.3559C19.6854 20.9577 20.0094 20.6337 20.4076 20.6337H27.2168C27.615 20.6337 27.9389 20.9577 27.9389 21.3559V22.4609ZM32.5561 22.4609H29.8733V21.3559C29.8733 19.9063 28.7058 18.7261 27.2619 18.7015V12.954C27.2619 9.33527 30.2053 6.39129 33.8235 6.39129C37.4415 6.39129 40.385 9.33527 40.385 12.954V46.7647H38.8597V28.7644C38.8597 25.2887 36.032 22.4609 32.5561 22.4609ZM40.385 48.699V52.047H38.8597V48.699H40.385ZM54.5629 58.0657H32.7273V56.4409C32.7273 55.0848 33.8306 53.9816 35.1866 53.9816H52.1037C53.4596 53.9816 54.563 55.0849 54.563 56.4409V58.0657H54.5629Z" fill="white"/>
</g>
</g>
</g>
</svg>
