<svg width="60" height="60" viewBox="0 0 60 60" fill="none" xmlns="http://www.w3.org/2000/svg">
<g id="construction-worker-svgrepo-com 1" clip-path="url(#clip0_220_931)">
<g id="Group">
<path id="Vector" d="M29.9998 34.0958C34.0987 34.0958 43.7359 29.1628 43.7359 17.3427C43.7359 9.00121 42.7192 2.0849 33.3695 0.80348V0.222235C31.1274 -0.0740785 28.8721 -0.0740785 26.6301 0.222235V0.803649C17.2804 2.08507 16.2637 9.00138 16.2637 17.3429C16.2635 29.1628 25.9008 34.0958 29.9998 34.0958ZM33.3695 2.82314C33.962 2.91353 34.5026 3.02719 34.9945 3.1604L34.192 10.3424H33.3693V2.82314H33.3695ZM26.6301 2.82314V10.3424H25.8074L25.0049 3.1604C25.497 3.02702 26.0376 2.91353 26.6301 2.82314ZM18.3233 14.3728L18.4549 14.2966L18.5215 14.6502C18.8024 16.1435 19.5117 18.2838 20.2089 18.3676C24.2049 18.8467 27.133 19.0514 29.9998 19.0514C32.8666 19.0514 35.7947 18.8467 39.7906 18.3676C40.4884 18.2836 41.1974 16.1435 41.4779 14.6504L41.5443 14.2965L41.676 14.3728C41.722 15.3523 41.7361 16.3496 41.7361 17.3429C41.7361 23.1205 39.185 26.7004 37.0447 28.686C34.348 31.1882 31.3539 32.0964 29.9995 32.0964C28.645 32.0964 25.6509 31.1882 22.9542 28.686C20.8139 26.7004 18.2628 23.1205 18.2628 17.3429C18.2631 16.3496 18.2772 15.3523 18.3233 14.3728Z" fill="white"/>
<path id="Vector_2" d="M55.5013 51.277C54.8001 46.9164 53.3564 41.2995 50.4607 39.3035C48.4834 37.9402 41.5844 34.2543 38.6384 32.6804L38.5874 32.6533C38.2507 32.4732 37.8393 32.5095 37.5391 32.7452C35.9959 33.9568 34.3053 34.7733 32.5145 35.1721C32.1982 35.2426 31.9385 35.4674 31.8235 35.7703L29.9999 40.5771L28.1763 35.7703C28.0613 35.4674 27.8017 35.2426 27.4853 35.1721C25.6945 34.7733 24.004 33.9568 22.4607 32.7452C22.1604 32.5093 21.749 32.4732 21.4124 32.6533C18.5015 34.2087 11.518 37.9699 9.54781 39.2977C6.21445 41.5434 4.75684 49.6707 4.49858 51.2772C4.47292 51.4366 4.48771 51.5995 4.54157 51.7516C4.66084 52.0883 7.72015 60.0001 29.9999 60.0001C52.2797 60.0001 55.339 52.0883 55.4583 51.7516C55.512 51.5993 55.5269 51.4362 55.5013 51.277ZM44.0782 56.9986C40.6671 57.8673 36.1014 58.4774 29.9991 58.4774C23.8964 58.4774 19.3313 57.8673 15.9196 56.9986C16.9621 48.0983 15.9724 40.3844 15.4444 37.2273C15.9755 36.9325 16.517 36.6348 17.0549 36.3398C19.0552 41.6276 19.4089 48.3237 19.4089 48.3237H29.0933H30.9048H40.5889C40.5889 48.3237 40.9432 41.6215 42.9462 36.3327C43.4836 36.6263 44.0245 36.923 44.5555 37.2166C44.0278 40.3674 43.0345 48.0884 44.0782 56.9986Z" fill="white"/>
</g>
</g>
<defs>
<clipPath id="clip0_220_931">
<rect width="60" height="60" fill="white"/>
</clipPath>
</defs>
</svg>
