<svg width="60" height="60" viewBox="0 0 60 60" fill="none" xmlns="http://www.w3.org/2000/svg">
<path d="M30 35.625V22.5" stroke="white" stroke-width="2" stroke-miterlimit="10" stroke-linecap="round" stroke-linejoin="round"/>
<path d="M35.625 35.625V22.5" stroke="white" stroke-width="2" stroke-miterlimit="10" stroke-linecap="round" stroke-linejoin="round"/>
<path d="M41.25 35.625V24.375" stroke="white" stroke-width="2" stroke-miterlimit="10" stroke-linecap="round" stroke-linejoin="round"/>
<path d="M43.1248 54.375C45.5623 48.1875 46.8748 41.625 46.8748 34.875V25.3125C46.8748 23.8125 45.5623 22.5 44.0623 22.5C42.5623 22.5 41.2498 23.8125 41.2498 25.3125V23.4375C41.2498 21.9375 39.9373 20.625 38.4373 20.625C36.9373 20.625 35.6248 21.9375 35.6248 23.4375V21.5625C35.6248 20.0625 34.3123 18.75 32.8123 18.75C31.3123 18.75 29.9998 20.0625 29.9998 21.5625V23.4375C29.9998 21.9375 28.6873 20.625 27.1873 20.625C25.6873 20.625 24.3748 21.9375 24.3748 23.4375V37.5V42L19.6873 37.3125C18.5623 36.1875 16.8748 36 15.7498 36.9375C14.2498 38.0625 14.0623 40.3125 15.3748 41.625L28.1248 54.375" stroke="white" stroke-width="2" stroke-miterlimit="10" stroke-linecap="round" stroke-linejoin="round"/>
<path d="M44.4376 50.6249C51.9376 50.9999 58.1251 44.9999 58.1251 37.4999C58.1251 35.2499 57.5626 33.1874 56.6251 31.3124C55.1251 28.4999 54.9376 25.3124 55.8751 22.4999C56.4376 20.6249 56.6251 18.7499 56.2501 16.6874C55.3126 11.2499 51.0001 6.93741 45.5626 5.99991C42.5626 5.43741 39.5626 5.99991 37.1251 7.31241C33.7501 8.81241 30.0001 9.18741 26.4376 8.06241C24.5626 7.49991 22.3126 7.31241 20.0626 7.68741C14.8126 8.62491 10.5001 12.9374 9.5626 18.1874V18.3749C8.6251 24.1874 6.5626 29.6249 3.5626 34.8749C2.0626 37.4999 1.5001 40.4999 2.0626 43.6874C3.0001 48.9374 7.1251 53.2499 12.3751 54.1874C17.0626 55.1249 21.3751 53.6249 24.3751 50.6249" stroke="white" stroke-width="2" stroke-miterlimit="10" stroke-linecap="round" stroke-linejoin="round"/>
</svg>
