<svg width="23" height="23" viewBox="0 0 23 23" fill="none" xmlns="http://www.w3.org/2000/svg">
<path id="Vector" d="M0 11.28C0 9.24 0.51 7.35 1.52 5.62C2.53 3.89 3.9 2.52 5.63 1.51C7.36 0.5 9.24 0 11.27 0C12.79 0 14.25 0.3 15.64 0.89C17.03 1.48 18.22 2.29 19.23 3.29C20.24 4.29 21.04 5.49 21.63 6.89C22.22 8.29 22.52 9.74 22.52 11.28C22.52 12.8 22.22 14.26 21.63 15.65C21.04 17.04 20.23 18.24 19.23 19.24C18.23 20.24 17.03 21.04 15.64 21.63C14.25 22.22 12.8 22.52 11.27 22.52C9.74 22.52 8.27 22.22 6.88 21.63C5.49 21.04 4.29 20.23 3.28 19.23C2.27 18.23 1.48 17.03 0.88 15.65C0.28 14.27 0 12.81 0 11.28ZM2.48 11.28C2.48 13.65 3.34 15.71 5.07 17.46C6.8 19.19 8.86 20.05 11.27 20.05C12.85 20.05 14.32 19.66 15.66 18.87C17 18.08 18.08 17.02 18.87 15.67C19.66 14.32 20.06 12.86 20.06 11.28C20.06 9.7 19.66 8.23 18.87 6.88C18.08 5.53 17.01 4.46 15.66 3.67C14.31 2.88 12.85 2.49 11.27 2.49C9.69 2.49 8.22 2.88 6.88 3.67C5.54 4.46 4.46 5.53 3.66 6.88C2.86 8.23 2.48 9.7 2.48 11.28ZM10.4 11.28V4.62C10.4 4.39 10.48 4.19 10.64 4.03C10.8 3.87 11 3.79 11.23 3.79C11.46 3.79 11.66 3.87 11.82 4.03C11.98 4.19 12.06 4.39 12.06 4.62V10.44H15.84C16.07 10.44 16.27 10.52 16.43 10.68C16.59 10.84 16.67 11.04 16.67 11.27C16.67 11.49 16.59 11.69 16.43 11.86C16.27 12.03 16.07 12.11 15.84 12.11H11.4C11.37 12.12 11.31 12.12 11.22 12.12C11.1101 12.122 11.0009 12.1015 10.8992 12.0597C10.7974 12.018 10.7053 11.9558 10.6285 11.8772C10.5517 11.7985 10.4918 11.7049 10.4525 11.6022C10.4132 11.4995 10.3953 11.3899 10.4 11.28Z" fill="#E0E0E0"/>
</svg>
