<svg width="235" height="92" viewBox="0 0 235 92" fill="none" xmlns="http://www.w3.org/2000/svg">
<g id="Group">
<path id="Vector" d="M126.767 38.7238H112.064V41.1903C112.064 41.5602 111.94 41.9302 111.569 42.3002C111.199 42.6701 110.952 42.7935 110.457 42.7935H108.481C108.11 42.7935 107.739 42.6701 107.369 42.3002C106.998 41.9302 106.874 41.6835 106.874 41.1903V35.1474C106.874 34.7774 106.998 34.4074 107.369 34.0374C107.739 33.6675 107.986 33.5441 108.481 33.5441H109.469C110.21 32.6809 110.828 30.9543 111.569 28.4878C112.311 26.0213 112.681 23.0616 112.929 19.6085L113.052 16.402C113.052 16.0321 113.299 15.6621 113.546 15.2921C113.917 15.0455 114.288 14.7988 114.658 14.7988H127.014C127.384 14.7988 127.755 14.9222 128.126 15.2921C128.373 15.5388 128.62 15.9087 128.62 16.402V33.5441H130.226C130.597 33.5441 130.967 33.6675 131.338 34.0374C131.709 34.4074 131.832 34.6541 131.832 35.1474V41.1903C131.832 41.5602 131.709 41.9302 131.338 42.3002C130.967 42.6701 130.72 42.7935 130.226 42.7935H128.249C127.879 42.7935 127.508 42.6701 127.137 42.3002C126.89 42.0535 126.643 41.6835 126.643 41.1903V38.7238H126.767ZM115.523 33.5441H123.307V19.9785H118.488L118.118 23.9248C117.994 25.7747 117.624 27.7479 117.006 29.7211C116.388 31.8176 115.894 33.0508 115.523 33.5441Z" fill="#3E595F"/>
<path id="Vector_2" d="M133.315 26.7614C133.315 23.3083 134.55 20.3485 136.898 18.0053C139.246 15.6622 142.211 14.5522 146.041 14.5522C149.748 14.5522 152.713 15.6622 155.184 17.882C157.532 20.1018 158.767 23.0616 158.767 26.7614C158.767 30.3378 157.532 33.2976 155.184 35.5174C152.713 37.8606 149.748 38.9705 146.165 38.9705C142.458 38.9705 139.369 37.8606 137.145 35.6407C134.427 33.5442 133.315 30.4611 133.315 26.7614ZM139.122 26.7614C139.122 28.7346 139.74 30.4611 141.099 31.941C142.458 33.2976 144.064 34.0375 145.917 34.0375C148.141 34.0375 149.748 33.4209 150.983 32.0643C152.219 30.7077 152.836 28.9812 152.836 26.8847C152.836 24.7882 152.219 23.0616 150.86 21.7051C149.501 20.3485 147.894 19.7319 145.917 19.7319C143.941 19.7319 142.334 20.3485 140.975 21.7051C139.74 22.9383 139.122 24.6648 139.122 26.7614Z" fill="#3E595F"/>
<path id="Vector_3" d="M173.346 30.4612L168.404 23.6784V37.1208C168.404 37.4907 168.281 37.8607 167.91 38.2307C167.663 38.4773 167.292 38.724 166.798 38.724H164.451C164.08 38.724 163.709 38.6006 163.339 38.2307C163.091 37.984 162.844 37.6141 162.844 37.1208V16.5256C162.844 16.1556 162.968 15.7856 163.339 15.4157C163.586 15.169 163.956 14.9224 164.451 14.9224H167.292C168.034 14.9224 168.528 15.2923 169.022 15.909L175.694 24.9116L181.995 15.909C182.489 15.2923 182.984 14.9224 183.725 14.9224H186.32C186.69 14.9224 187.061 15.0457 187.432 15.4157C187.679 15.6623 187.926 16.0323 187.926 16.5256V37.1208C187.926 37.4907 187.802 37.8607 187.432 38.2307C187.185 38.4773 186.814 38.724 186.32 38.724H183.972C183.601 38.724 183.231 38.6006 182.86 38.2307C182.613 37.984 182.366 37.6141 182.366 37.1208V23.5551L177.424 30.4612C176.806 31.2012 176.188 31.6945 175.323 31.6945C174.582 31.6945 173.964 31.3245 173.346 30.4612Z" fill="#3E595F"/>
<path id="Vector_4" d="M126.149 58.3322V78.9274C126.149 79.2974 126.025 79.6673 125.655 80.0373C125.408 80.284 125.037 80.5306 124.543 80.5306H122.319C121.948 80.5306 121.577 80.4073 121.207 80.0373C120.96 79.7907 120.712 79.4207 120.712 78.9274V61.7853H112.434V78.9274C112.434 79.2974 112.311 79.6673 111.94 80.0373C111.693 80.284 111.322 80.5306 110.828 80.5306H108.481C108.11 80.5306 107.739 80.4073 107.369 80.0373C107.121 79.7907 106.874 79.4207 106.874 78.9274V58.3322C106.874 57.9622 106.998 57.5923 107.369 57.2223C107.616 56.9757 107.986 56.729 108.481 56.729H124.543C124.913 56.729 125.284 56.8523 125.655 57.2223C126.025 57.469 126.149 57.8389 126.149 58.3322Z" fill="#3E595F"/>
<path id="Vector_5" d="M151.354 80.5306H149.006C148.636 80.5306 148.265 80.4073 147.894 80.0373C147.647 79.7907 147.4 79.4207 147.4 78.9274V65.7317L137.516 79.544C137.022 80.1606 136.527 80.5306 135.786 80.5306H133.686C133.315 80.5306 132.944 80.4073 132.574 80.0373C132.326 79.7907 132.079 79.4207 132.079 78.9274V58.3322C132.079 57.9622 132.203 57.5923 132.574 57.2223C132.821 56.9757 133.191 56.729 133.686 56.729H136.033C136.404 56.729 136.774 56.8523 137.145 57.2223C137.392 57.469 137.639 57.8389 137.639 58.3322V71.5279L147.524 57.7156C148.018 57.099 148.512 56.729 149.253 56.729H151.354C151.724 56.729 152.095 56.8523 152.466 57.2223C152.713 57.469 152.96 57.8389 152.96 58.3322V78.9274C152.96 79.2974 152.836 79.6673 152.466 80.0373C152.219 80.284 151.848 80.5306 151.354 80.5306Z" fill="#3E595F"/>
<path id="Vector_6" d="M179.771 84.6003H177.794C177.424 84.6003 177.053 84.477 176.682 84.107C176.435 83.8604 176.188 83.4904 176.188 82.9971V80.5306H160.62C160.25 80.5306 159.879 80.4073 159.508 80.0373C159.261 79.7907 159.014 79.4207 159.014 78.9274V58.3322C159.014 57.9622 159.138 57.5923 159.508 57.2223C159.755 56.9757 160.126 56.729 160.62 56.729H162.968C163.339 56.729 163.709 56.8523 164.08 57.2223C164.327 57.469 164.574 57.8389 164.574 58.3322V75.4743H172.729V58.3322C172.729 57.9622 172.852 57.5923 173.223 57.2223C173.47 56.9757 173.841 56.729 174.335 56.729H176.682C177.053 56.729 177.424 56.8523 177.794 57.2223C178.042 57.469 178.289 57.8389 178.289 58.3322V75.4743H179.895C180.265 75.4743 180.636 75.5976 181.007 75.9676C181.254 76.2143 181.501 76.5842 181.501 77.0775V83.1204C181.501 83.4904 181.377 83.8604 181.007 84.2303C180.513 84.3537 180.142 84.6003 179.771 84.6003Z" fill="#3E595F"/>
<path id="Vector_7" d="M205.718 84.6003H203.741C203.37 84.6003 202.999 84.477 202.629 84.107C202.382 83.8604 202.135 83.4904 202.135 82.9971V80.5306H186.567C186.196 80.5306 185.825 80.4073 185.455 80.0373C185.208 79.7907 184.961 79.4207 184.961 78.9274V58.3322C184.961 57.9622 185.084 57.5923 185.455 57.2223C185.702 56.9757 186.073 56.729 186.567 56.729H188.914C189.285 56.729 189.656 56.8523 190.026 57.2223C190.273 57.469 190.521 57.8389 190.521 58.3322V75.4743H198.675V58.3322C198.675 57.9622 198.799 57.5923 199.169 57.2223C199.416 56.9757 199.787 56.729 200.281 56.729H202.629C202.999 56.729 203.37 56.8523 203.741 57.2223C203.988 57.469 204.235 57.8389 204.235 58.3322V75.4743H205.841C206.212 75.4743 206.583 75.5976 206.953 75.9676C207.2 76.2143 207.447 76.5842 207.447 77.0775V83.1204C207.447 83.4904 207.324 83.8604 206.953 84.2303C206.583 84.3537 206.212 84.6003 205.718 84.6003Z" fill="#3E595F"/>
<path id="Vector_8" d="M211.031 78.9274V58.3322C211.031 57.9622 211.154 57.5923 211.525 57.2223C211.772 56.9757 212.143 56.729 212.637 56.729H214.984C215.355 56.729 215.726 56.8523 216.096 57.2223C216.343 57.469 216.59 57.8389 216.59 58.3322V64.1285C217.208 64.0051 217.95 64.0051 218.691 64.0051C221.533 64.0051 223.633 64.7451 225.116 66.1017C226.598 67.4582 227.34 69.4314 227.34 72.0212C227.34 74.611 226.475 76.7076 224.745 78.1875C223.015 79.6673 220.668 80.5306 217.579 80.5306C216.838 80.5306 215.231 80.5306 212.76 80.4073C212.39 80.4073 212.019 80.284 211.648 79.914C211.154 79.6673 211.031 79.2974 211.031 78.9274ZM216.467 69.3081V75.351C217.208 75.4743 217.702 75.4743 218.073 75.4743C220.297 75.4743 221.409 74.3644 221.409 72.1446C221.409 71.158 221.162 70.418 220.544 69.9247C219.926 69.4314 219.185 69.1848 218.073 69.1848C217.826 69.1848 217.332 69.1848 216.467 69.3081ZM235 58.3322V78.9274C235 79.2974 234.876 79.6673 234.506 80.0373C234.259 80.284 233.888 80.5306 233.394 80.5306H231.046C230.676 80.5306 230.305 80.4073 229.934 80.0373C229.687 79.7907 229.44 79.4207 229.44 78.9274V58.3322C229.44 57.9622 229.564 57.5923 229.934 57.2223C230.181 56.9757 230.552 56.729 231.046 56.729H233.394C233.764 56.729 234.135 56.8523 234.506 57.2223C234.876 57.469 235 57.8389 235 58.3322Z" fill="#3E595F"/>
<g id="Group_2">
<path id="Vector_9" d="M68.449 92.0001H20.3864C9.14301 92.0001 0 83.1208 0 72.2682V42.3004C0 35.6409 3.33596 29.228 8.77235 25.1583L33.2361 6.90627C39.7844 1.9733 49.051 1.9733 55.7229 6.90627L80.1867 25.2816C85.623 29.3513 88.959 35.6409 88.959 42.3004V72.2682C88.8354 83.1208 79.6924 92.0001 68.449 92.0001ZM44.3559 11.7159C42.2555 11.7159 40.0315 12.3325 38.3018 13.6891L13.8381 32.0645C10.5021 34.5309 8.52524 38.354 8.52524 42.3004V72.2682C8.52524 78.4344 13.8381 83.4907 20.2629 83.4907H68.3254C74.8738 83.4907 80.0631 78.4344 80.0631 72.2682V42.3004C80.0631 38.354 78.0862 34.5309 74.7503 32.0645L50.5337 13.6891C48.6803 12.3325 46.5799 11.7159 44.3559 11.7159Z" fill="url(#paint0_linear_167_7164)"/>
<g id="Group_3">
<path id="Vector_10" d="M75.4916 17.5121C75.4916 17.5121 82.4106 12.4558 82.04 7.76944C81.6693 3.08311 77.592 0 77.592 0L75.4916 17.5121Z" fill="#51B851"/>
<path id="Vector_11" d="M75.4915 17.5121C75.4915 17.5121 69.808 12.7024 71.2907 8.01609C72.7733 3.32976 77.5919 0 77.5919 0L75.4915 17.5121Z" fill="#91C84A"/>
</g>
<path id="Vector_12" d="M17.7919 48.4665C18.6107 48.4665 19.2745 47.5278 19.2745 46.3699C19.2745 45.2121 18.6107 44.2734 17.7919 44.2734C16.973 44.2734 16.3092 45.2121 16.3092 46.3699C16.3092 47.5278 16.973 48.4665 17.7919 48.4665Z" fill="#FEF4C2"/>
<g id="Group_4">
<g id="Group_5">
<path id="Vector_13" d="M40.2787 78.6812C29.7766 78.5578 22.2398 78.5578 17.6683 73.0082C13.591 67.9519 13.9616 59.3192 14.3323 52.5364L14.4558 50.3165C14.8265 43.4104 14.9501 39.9573 16.5563 37.3675C18.286 34.4077 34.9658 20.9653 42.8733 20.9653C49.7923 21.0887 57.3291 26.2683 61.4064 28.9814C62.2713 29.598 63.0126 30.0913 63.5068 30.338L64.1246 30.708C66.9664 32.3112 70.7965 34.6543 72.897 39.834C74.3796 43.657 76.3565 69.5551 73.5147 72.8849C68.5726 78.6812 51.1514 78.6812 44.4795 78.6812C44.4795 78.6812 41.6378 78.6812 40.2787 78.6812Z" fill="#F79B71"/>
<path id="Vector_14" d="M42.8733 19.7319L42.9968 22.1984C49.4216 22.3217 56.8349 27.2547 60.7886 29.9679C61.6535 30.5845 62.5184 31.0778 63.0126 31.4478L63.6304 31.8177C66.4721 33.4209 69.9316 35.5175 71.9085 40.3271C73.5147 44.2735 74.9973 68.9384 72.7734 72.0215C68.2019 77.3244 50.4101 77.3244 44.603 77.3244C43.1204 77.3244 41.7613 77.3244 40.4022 77.3244C29.2823 77.2011 22.7339 76.9545 18.7802 72.0215C14.95 67.3352 15.3207 58.9491 15.6913 52.4129L15.8149 50.6864V50.1931C16.1856 43.5335 16.3091 40.0805 17.6682 37.8606C19.0273 35.5175 35.5836 22.1984 42.8733 22.1984V19.7319ZM42.8733 19.7319C34.4716 19.7319 17.2975 33.5443 15.5678 36.5041C13.7145 39.4638 13.5909 43.1636 13.2203 50.563C12.8496 57.9625 11.9847 67.7051 16.8033 73.6247C21.6219 79.5443 29.2823 79.6676 40.4022 79.7909C41.7613 79.7909 43.1204 79.7909 44.603 79.7909C55.4758 79.7909 69.8081 79.1743 74.6267 73.6247C77.9626 69.8016 75.8622 43.2869 74.256 39.3405C71.7849 33.2976 67.2134 30.9545 64.2481 29.2279C61.2828 27.6247 51.6456 19.8553 42.8733 19.7319Z" fill="#E55F44"/>
</g>
<path id="Vector_15" d="M46.2092 58.4557C36.9427 54.016 26.5641 47.4798 15.0736 37.3672C13.7145 40.2036 13.5909 43.9034 13.2203 50.5629C12.8496 57.9624 11.9847 67.705 16.8033 73.6246C21.6219 79.5441 29.2823 79.6675 40.4022 79.7908C51.3985 79.9141 69.1903 79.9141 74.6267 73.6246C75.4916 72.638 75.9858 69.9248 76.2329 66.4717C67.4605 65.6085 57.6998 64.1286 46.2092 58.4557Z" fill="#E55F44"/>
</g>
<path id="Vector_16" d="M58.8118 62.0321L53.6225 57.4691C53.0047 56.9758 53.0047 56.1125 53.499 55.6192L58.0705 50.4396C58.5647 49.823 59.4296 49.823 59.9238 50.3163L65.1131 54.8793C65.7308 55.3726 65.7308 56.2359 65.2366 56.7292L60.6651 61.9088C60.1709 62.5254 59.306 62.5254 58.8118 62.0321Z" fill="#F1614C"/>
<path id="Vector_17" d="M62.0241 41.8071C61.9006 41.8071 61.9006 41.8071 62.0241 41.8071C61.1592 41.8071 56.3406 42.1771 52.1398 45.2602C47.6918 48.59 47.1976 56.2361 47.1976 56.2361C47.1976 56.2361 55.1051 55.7428 58.4411 51.4264C61.5299 47.3567 61.9006 42.5471 62.0241 41.8071Z" fill="#F1614C"/>
<path id="Vector_18" d="M61.1593 60.1825L55.9701 55.6195C55.3523 55.1262 55.3523 54.2629 55.8465 53.7696L60.418 48.59C60.9122 47.9734 61.7771 47.9734 62.2713 48.4667L67.4606 53.0297C68.0784 53.523 68.0784 54.3863 67.5841 54.8796L63.0126 60.0592C62.5184 60.5525 61.6535 60.6758 61.1593 60.1825Z" fill="#F8FCFF"/>
<path id="Vector_19" d="M45.8386 44.397H37.684C36.9427 44.397 36.325 43.7804 36.325 43.0404V34.901C36.325 34.1611 36.9427 33.5444 37.684 33.5444H45.8386C46.5799 33.5444 47.1977 34.1611 47.1977 34.901V43.0404C47.1977 43.7804 46.5799 44.397 45.8386 44.397Z" fill="#F1614C"/>
<path id="Vector_20" d="M34.4716 45.5066L28.1704 38.4771C27.6761 37.9838 27.6761 37.1205 28.2939 36.6272L32.7419 32.5575C33.2361 32.0642 34.101 32.0642 34.5952 32.6808L40.8964 39.7103C41.3906 40.2036 41.3906 41.0669 40.7729 41.5602L36.3249 45.6299C35.8307 46.1232 34.9658 45.9999 34.4716 45.5066Z" fill="#F1614C"/>
<path id="Vector_21" d="M40.5258 73.378L32.1241 73.8713C31.3828 73.8713 30.765 73.378 30.6414 72.6381L30.1472 64.252C30.1472 63.5121 30.6414 62.8954 31.3828 62.7721L39.7844 62.2788C40.5258 62.2788 41.1435 62.7721 41.2671 63.5121L41.7613 71.8981C41.8849 72.6381 41.2671 73.378 40.5258 73.378Z" fill="#C24647"/>
<path id="Vector_22" d="M47.6919 41.9302H39.5373C38.796 41.9302 38.1782 41.3136 38.1782 40.5736V32.4342C38.1782 31.6943 38.796 31.0776 39.5373 31.0776H47.6919C48.4332 31.0776 49.051 31.6943 49.051 32.4342V40.5736C49.051 41.3136 48.4332 41.9302 47.6919 41.9302Z" fill="#F8FCFF"/>
<path id="Vector_23" d="M33.7303 61.4154L28.541 66.1017C27.9232 66.595 27.1819 66.595 26.6877 65.9784L21.9926 60.7988C21.4984 60.3055 21.4984 59.4422 22.1162 58.9489L27.3054 54.2626C27.7997 53.7693 28.6645 53.7693 29.1588 54.3859L33.8538 59.5655C34.348 60.1822 34.2245 60.9221 33.7303 61.4154Z" fill="#C24647"/>
<path id="Vector_24" d="M42.2555 71.2813L33.8538 71.7746C33.1125 71.7746 32.4947 71.2813 32.3712 70.5414L31.877 62.1553C31.877 61.4154 32.3712 60.7988 33.1125 60.6754L41.5142 60.1821C42.2555 60.1821 42.8733 60.6754 42.9968 61.4154L43.491 69.8014C43.6146 70.5414 42.9968 71.2813 42.2555 71.2813Z" fill="#F8FCFF"/>
<path id="Vector_25" d="M35.5837 59.8124L30.3944 64.4987C29.9002 64.992 29.0353 64.992 28.5411 64.3754L23.846 59.1958C23.3518 58.7025 23.3518 57.8392 23.9696 57.3459L29.1588 52.6596C29.6531 52.1663 30.5179 52.1663 31.0122 52.7829L35.7072 57.9625C36.2014 58.4558 36.2014 59.3191 35.5837 59.8124Z" fill="#F8FCFF"/>
<path id="Vector_26" d="M34.1009 41.3137L30.0236 36.874C29.5294 36.3808 29.5294 35.5175 30.1472 35.0242L34.5951 30.9545C35.0893 30.4612 35.9542 30.4612 36.4484 31.0778L40.5257 35.5175C41.0199 36.0108 41.0199 36.874 40.4022 37.3673L35.9542 41.437C35.46 41.9303 34.5951 41.807 34.1009 41.3137Z" fill="#F8FCFF"/>
<path id="Vector_27" d="M57.5762 51.6729L56.2171 53.1527C55.4758 54.016 55.5993 55.2493 56.4642 56.1125L60.6651 59.6889C61.5299 60.4289 62.889 60.3056 63.6304 59.4423L65.4837 57.3458C61.2828 56.2359 58.9353 53.7694 57.5762 51.6729Z" fill="#F8E6D8"/>
<path id="Vector_28" d="M34.7188 43.2866C34.5952 43.4099 34.5952 43.4099 34.7188 43.2866C34.7188 44.0266 34.8423 48.0963 37.437 51.6727C40.2787 55.4957 47.1977 56.2357 47.1977 56.2357C47.1977 56.2357 50.4101 53.1526 43.244 46.6164C39.908 43.6566 35.3365 43.4099 34.7188 43.2866Z" fill="#F1614C"/>
<path id="Vector_29" d="M49.051 54.2627C49.051 54.2627 56.3407 53.8928 59.4296 49.6997C62.5184 45.5067 62.642 40.5737 62.642 40.5737L49.051 54.2627Z" fill="#51B851"/>
<path id="Vector_30" d="M49.051 54.2629C49.051 54.2629 49.4217 46.9868 53.6225 43.9037C57.8234 40.8206 62.7655 40.6973 62.7655 40.6973L49.051 54.2629Z" fill="#91C84A"/>
<path id="Vector_31" d="M53.8696 64.1289C53.1282 64.1289 49.1745 64.3756 45.715 66.9654C42.0084 69.6785 41.6377 76.0914 41.6377 76.0914C41.6377 76.0914 48.0625 75.7214 50.9043 72.145C53.6224 68.8152 53.8696 64.8689 53.8696 64.1289Z" fill="#C24647"/>
<path id="Vector_32" d="M44.1089 73.7479C44.1089 73.7479 50.0395 73.3779 52.6341 70.0482C55.2288 66.5951 55.2288 62.5254 55.2288 62.5254L44.1089 73.7479Z" fill="#51B851"/>
<path id="Vector_33" d="M44.1089 73.7481C44.1089 73.7481 44.4795 67.8286 47.8155 65.2387C51.275 62.6489 55.3523 62.6489 55.3523 62.6489L44.1089 73.7481Z" fill="#91C84A"/>
<path id="Vector_34" d="M49.0511 54.2629C49.0511 54.2629 41.7614 53.893 38.549 49.6999C35.4601 45.6302 35.3365 40.6973 35.3365 40.6973L49.0511 54.2629Z" fill="#51B851"/>
<path id="Vector_35" d="M49.0511 54.2629C49.0511 54.2629 48.5568 46.9868 44.4796 43.9037C40.2787 40.8206 35.3365 40.6973 35.3365 40.6973L49.0511 54.2629Z" fill="#91C84A"/>
<path id="Vector_36" d="M67.7077 41.5602C68.3218 41.5602 68.8197 41.0632 68.8197 40.4502C68.8197 39.8373 68.3218 39.3403 67.7077 39.3403C67.0936 39.3403 66.5957 39.8373 66.5957 40.4502C66.5957 41.0632 67.0936 41.5602 67.7077 41.5602Z" fill="#9E613B"/>
<path id="Vector_37" d="M52.0163 60.4288C52.5622 60.4288 53.0047 59.987 53.0047 59.4422C53.0047 58.8973 52.5622 58.4556 52.0163 58.4556C51.4704 58.4556 51.0278 58.8973 51.0278 59.4422C51.0278 59.987 51.4704 60.4288 52.0163 60.4288Z" fill="#9E613B"/>
<path id="Vector_38" d="M20.7571 56.1128C21.303 56.1128 21.7455 55.6711 21.7455 55.1262C21.7455 54.5814 21.303 54.1396 20.7571 54.1396C20.2112 54.1396 19.7687 54.5814 19.7687 55.1262C19.7687 55.6711 20.2112 56.1128 20.7571 56.1128Z" fill="#9E613B"/>
<path id="Vector_39" d="M22.7339 39.9571C23.2798 39.9571 23.7224 39.5154 23.7224 38.9705C23.7224 38.4256 23.2798 37.9839 22.7339 37.9839C22.188 37.9839 21.7455 38.4256 21.7455 38.9705C21.7455 39.5154 22.188 39.9571 22.7339 39.9571Z" fill="#9E613B"/>
<path id="Vector_40" d="M38.6724 28.4878C39.2183 28.4878 39.6608 28.0461 39.6608 27.5012C39.6608 26.9564 39.2183 26.5146 38.6724 26.5146C38.1265 26.5146 37.684 26.9564 37.684 27.5012C37.684 28.0461 38.1265 28.4878 38.6724 28.4878Z" fill="#9E613B"/>
<path id="Vector_41" d="M48.3097 46.3702C48.8556 46.3702 49.2982 45.9284 49.2982 45.3836C49.2982 44.8387 48.8556 44.397 48.3097 44.397C47.7638 44.397 47.3213 44.8387 47.3213 45.3836C47.3213 45.9284 47.7638 46.3702 48.3097 46.3702Z" fill="#9E613B"/>
<path id="Vector_42" d="M50.5336 76.0914C51.0795 76.0914 51.522 75.6496 51.522 75.1048C51.522 74.5599 51.0795 74.1182 50.5336 74.1182C49.9877 74.1182 49.5452 74.5599 49.5452 75.1048C49.5452 75.6496 49.9877 76.0914 50.5336 76.0914Z" fill="#9E613B"/>
<path id="Vector_43" d="M38.7106 77.5593C39.2504 77.1428 39.1806 76.1499 38.5545 75.3416C37.9285 74.5334 36.9834 74.2159 36.4436 74.6325C35.9038 75.049 35.9737 76.0419 36.5997 76.8501C37.2257 77.6584 38.1708 77.9759 38.7106 77.5593Z" fill="#F79E77"/>
<path id="Vector_44" d="M72.0303 47.3325C72.8789 46.2656 73.0036 44.9544 72.3088 44.4039C71.614 43.8533 70.3629 44.2719 69.5143 45.3388C68.6657 46.4056 68.541 47.7168 69.2358 48.2674C69.9305 48.8179 71.1817 48.3994 72.0303 47.3325Z" fill="#F47859"/>
<path id="Vector_45" d="M52.2385 41.349C53.0447 40.3354 53.1783 39.1018 52.537 38.5936C51.8957 38.0854 50.7223 38.4951 49.9161 39.5086C49.1099 40.5221 48.9763 41.7557 49.6176 42.2639C50.259 42.7722 51.4324 42.3625 52.2385 41.349Z" fill="#F47859"/>
<path id="Vector_46" d="M27.2247 70.1847C27.8037 69.6068 27.5299 68.3965 26.6131 67.4815C25.6964 66.5664 24.4838 66.2931 23.9048 66.871C23.3258 67.449 23.5996 68.6593 24.5164 69.5743C25.4331 70.4894 26.6457 70.7627 27.2247 70.1847Z" fill="#F1614C"/>
<path id="Vector_47" d="M35.401 52.1174C35.98 51.5394 35.7062 50.3291 34.7894 49.4141C33.8727 48.499 32.6601 48.2257 32.0811 48.8037C31.5021 49.3816 31.7759 50.5919 32.6927 51.5069C33.6094 52.422 34.822 52.6953 35.401 52.1174Z" fill="#F1614C"/>
<path id="Vector_48" d="M48.417 61.2479C49.0534 60.4478 49.1361 59.4558 48.6017 59.0323C48.0672 58.6088 47.1181 58.9141 46.4816 59.7143C45.8452 60.5144 45.7625 61.5064 46.2969 61.9299C46.8313 62.3534 47.7805 62.0481 48.417 61.2479Z" fill="#F79E77"/>
<path id="Vector_49" d="M39.0408 58.4119C39.4974 58.2717 39.7049 57.6304 39.5043 56.9794C39.3038 56.3284 38.7711 55.9143 38.3146 56.0544C37.858 56.1945 37.6505 56.8358 37.851 57.4868C38.0516 58.1378 38.5843 58.552 39.0408 58.4119Z" fill="#F79E77"/>
<path id="Vector_50" d="M21.1001 59.0051C21.5567 58.865 21.7642 58.2237 21.5637 57.5727C21.3631 56.9217 20.8304 56.5075 20.3739 56.6477C19.9173 56.7878 19.7098 57.4291 19.9104 58.0801C20.1109 58.7311 20.6436 59.1452 21.1001 59.0051Z" fill="#F79E77"/>
<path id="Vector_51" d="M57.5762 67.7049C58.7363 67.7049 59.6767 67.0423 59.6767 66.225C59.6767 65.4077 58.7363 64.7451 57.5762 64.7451C56.4162 64.7451 55.4758 65.4077 55.4758 66.225C55.4758 67.0423 56.4162 67.7049 57.5762 67.7049Z" fill="#FEF4C2"/>
<path id="Vector_52" d="M27.0742 35.8398C27.6532 35.2619 27.4576 34.1297 26.6374 33.311C25.8171 32.4922 24.6828 32.297 24.1038 32.875C23.5248 33.4529 23.7204 34.5851 24.5406 35.4038C25.3609 36.2226 26.4952 36.4178 27.0742 35.8398Z" fill="#FEF4C2"/>
<path id="Vector_53" d="M28.0468 48.4664C28.0468 50.6862 26.317 52.4128 24.093 52.4128C21.869 52.4128 20.1393 50.6862 20.1393 48.4664C20.1393 46.2466 21.869 44.52 24.093 44.52C25.205 44.52 22.981 47.3565 23.7224 48.0964C24.3401 48.8364 28.0468 47.3565 28.0468 48.4664Z" fill="#C24647"/>
<path id="Vector_54" d="M64.5947 38.6247C65.2718 38.165 65.2918 37.0162 64.6394 36.0588C63.987 35.1013 62.9092 34.6978 62.2321 35.1575C61.555 35.6171 61.535 36.7659 62.1874 37.7234C62.8398 38.6808 63.9176 39.0843 64.5947 38.6247Z" fill="#F8FCFF"/>
<path id="Vector_55" d="M33.5195 28.9033C33.968 28.7393 34.1413 28.0879 33.9066 27.4484C33.6718 26.8088 33.1179 26.4233 32.6694 26.5873C32.2209 26.7513 32.0476 27.4027 32.2823 28.0423C32.5171 28.6818 33.071 29.0674 33.5195 28.9033Z" fill="#F8FCFF"/>
<path id="Vector_56" d="M59.5203 36.3702C61.1002 35.2977 61.2921 32.8302 59.9489 30.859C58.6057 28.8878 56.2361 28.1593 54.6562 29.2318C53.0763 30.3044 52.8844 32.7718 54.2276 34.743C55.5708 36.7142 57.9404 37.4427 59.5203 36.3702Z" fill="#F8FCFF"/>
<path id="Vector_57" d="M22.734 43.9033C22.2398 44.5199 21.8691 45.3832 21.8691 46.3698C21.8691 48.5896 23.5989 50.3162 25.8229 50.3162C26.4406 50.3162 26.9349 50.1929 27.5526 49.9462C26.6878 49.5762 25.8229 48.9596 25.0815 48.2197C23.7225 46.8631 22.9811 45.3832 22.734 43.9033Z" fill="#364F76"/>
<path id="Vector_58" d="M27.6761 44.5199C28.6645 45.6298 27.9232 47.8497 27.9232 47.8497C27.9232 47.8497 27.9232 45.9998 26.8112 45.2599C25.6992 44.3966 23.9695 44.5199 23.9695 44.5199C23.9695 44.5199 26.4406 43.1633 27.6761 44.5199Z" fill="#F1614C"/>
<path id="Vector_59" d="M25.8229 42.4238C24.5873 42.4238 23.4753 43.0404 22.734 43.9037C22.9811 45.3836 23.7224 46.8635 24.958 48.2201C25.6993 48.96 26.5642 49.5766 27.4291 49.9466C28.7882 49.33 29.653 47.9734 29.653 46.3702C29.653 44.1504 27.9233 42.4238 25.8229 42.4238ZM26.1935 47.9734C25.2051 47.9734 24.3402 47.1102 24.3402 46.1236C24.3402 45.137 25.2051 44.2737 26.1935 44.2737C27.182 44.2737 28.0468 45.137 28.0468 46.1236C28.0468 47.1102 27.182 47.9734 26.1935 47.9734Z" fill="#647AA4"/>
</g>
</g>
<defs>
<linearGradient id="paint0_linear_167_7164" x1="0" y1="47.5558" x2="88.8002" y2="47.5558" gradientUnits="userSpaceOnUse">
<stop stop-color="#F47B20"/>
<stop offset="0.7514" stop-color="#FFD100"/>
<stop offset="1" stop-color="#FFD100"/>
</linearGradient>
</defs>
</svg>
