<svg width="381" height="122" viewBox="0 0 381 122" fill="none" xmlns="http://www.w3.org/2000/svg">
<g clip-path="url(#clip0_167_6920)">
<path d="M108.2 86.9C107.7 86.3 107 86 106.2 86C69.2 87.2 39.6 88.7 3.70004 90.5C0.500044 90.7 -1.09996 93.2 0.900044 94.9C3.60004 97.1 6.40005 99.1 9.10005 101.3C10.6 102.5 12.9 103.1 15.2 102.9C48.6 99.9 76.7 97.2 113 95C114.6 94.9 115.2 92.8 113.8 91.9C111.7 90.5 109.8 88.8 108.2 86.9Z" fill="#51B851"/>
<path d="M379 84.4C325.5 82.8 273.8 82.6 215.3 83.6C214.1 83.6 213 84.2 212.3 85.2C211.6 86.1 210.8 87.1 210 87.9C209 88.9 209.8 90.5 211.2 90.5C269.4 88 322.5 86.8 377.8 87.5C378.8 87.5 379.7 87.2 380.3 86.6C381.2 85.7 380.5 84.4 379 84.4Z" fill="#EE352B"/>
<path d="M32.6 68.5H14.6V71.6C14.6 72.1 14.4 72.6 14 72.9C13.6 73.3 13.2 73.5 12.7 73.5H10.3C9.80002 73.5 9.30002 73.3 9.00002 72.9C8.60002 72.5 8.40002 72.1 8.40002 71.6V64.2C8.40002 63.7 8.60002 63.2 9.00002 62.9C9.40002 62.5 9.80002 62.3 10.3 62.3H11.5C12.3 61.2 13.2 59.2 14.1 56.2C15 53.2 15.5 49.6 15.7 45.4L15.9 41.5C15.9 41 16.1 40.5 16.5 40.2C16.9 39.8 17.3 39.6 17.9 39.6H33C33.5 39.6 34 39.8 34.3 40.2C34.7 40.6 34.9 41 34.9 41.5V62.3H36.9C37.4 62.3 37.9 62.5 38.2 62.9C38.6 63.3 38.8 63.7 38.8 64.2V71.6C38.8 72.1 38.6 72.6 38.2 72.9C37.8 73.2 37.4 73.5 36.9 73.5H34.5C34 73.5 33.5 73.3 33.2 72.9C32.9 72.5 32.6 72.1 32.6 71.6V68.5ZM18.8 62.3H28.2V45.8H22.3L21.8 50.7C21.6 53 21.2 55.3 20.5 57.8C19.9 60.1 19.3 61.7 18.8 62.3Z" fill="#3E595F"/>
<path d="M40.5 54.1C40.5 49.8 41.9 46.3 44.8 43.4C47.6 40.6 51.3 39.1 55.9 39.1C60.4 39.1 64.1 40.5 67 43.2C69.9 45.9 71.3 49.6 71.3 54.1C71.3 58.5 69.9 62 67 64.8C64.1 67.6 60.4 69 56 69C51.5 69 47.8 67.6 45 64.9C42 62.2 40.5 58.6 40.5 54.1ZM47.5 54.1C47.5 56.6 48.3 58.6 49.9 60.3C51.5 62 53.5 62.8 55.8 62.8C58.4 62.8 60.5 62 62 60.3C63.5 58.7 64.2 56.6 64.2 54C64.2 51.4 63.4 49.3 61.8 47.7C60.2 46.1 58.2 45.3 55.8 45.3C53.4 45.3 51.4 46.1 49.8 47.7C48.3 49.3 47.5 51.4 47.5 54.1Z" fill="#3E595F"/>
<path d="M89.2 58.5L83.2 50.2V66.6C83.2 67.1 83 67.6 82.6 67.9C82.2 68.3 81.8 68.5 81.3 68.5H78.5C78 68.5 77.5 68.3 77.2 67.9C76.8 67.5 76.6 67.1 76.6 66.6V41.5C76.6 41 76.8 40.5 77.2 40.2C77.6 39.8 78 39.6 78.5 39.6H82C82.9 39.6 83.6 40 84.1 40.8L92.2 51.8L99.8 40.8C100.4 40 101 39.6 101.9 39.6H105C105.5 39.6 106 39.8 106.3 40.2C106.7 40.6 106.9 41 106.9 41.5V66.6C106.9 67.1 106.7 67.6 106.3 67.9C105.9 68.3 105.5 68.5 105 68.5H102.2C101.7 68.5 101.2 68.3 100.9 67.9C100.5 67.5 100.3 67.1 100.3 66.6V50.1L94.3 58.5C93.6 59.5 92.7 59.9 91.8 59.9C90.9 59.9 89.9 59.5 89.2 58.5Z" fill="#3E595F"/>
<path d="M236.8 41.5V66.6C236.8 67.1 236.6 67.6 236.2 67.9C235.8 68.3 235.4 68.5 234.9 68.5H232.1C231.6 68.5 231.1 68.3 230.8 67.9C230.4 67.5 230.2 67.1 230.2 66.6V45.8H220.1V66.6C220.1 67.1 219.9 67.6 219.5 67.9C219.1 68.3 218.7 68.5 218.2 68.5H215.4C214.9 68.5 214.4 68.3 214.1 67.9C213.7 67.5 213.5 67.1 213.5 66.6V41.5C213.5 41 213.7 40.5 214.1 40.2C214.5 39.8 214.9 39.6 215.4 39.6H234.9C235.4 39.6 235.9 39.8 236.2 40.2C236.6 40.5 236.8 41 236.8 41.5Z" fill="#3E595F"/>
<path d="M267.6 68.5H264.8C264.3 68.5 263.8 68.3 263.5 67.9C263.1 67.5 262.9 67.1 262.9 66.6V50.6L250.9 67.4C250.3 68.2 249.6 68.6 248.8 68.6H246.2C245.7 68.6 245.2 68.4 244.9 68C244.5 67.6 244.3 67.2 244.3 66.7V41.5C244.3 41 244.5 40.5 244.9 40.2C245.3 39.8 245.7 39.6 246.2 39.6H249C249.5 39.6 250 39.8 250.3 40.2C250.7 40.6 250.9 41 250.9 41.5V57.6L262.9 40.8C263.5 40 264.2 39.6 265 39.6H267.6C268.1 39.6 268.6 39.8 268.9 40.2C269.3 40.6 269.5 41 269.5 41.5V66.6C269.5 67.1 269.3 67.6 268.9 67.9C268.5 68.4 268.1 68.5 267.6 68.5Z" fill="#3E595F"/>
<path d="M302.1 73.5H299.7C299.2 73.5 298.7 73.3 298.4 72.9C298 72.5 297.8 72.1 297.8 71.6V68.5H278.8C278.3 68.5 277.8 68.3 277.5 67.9C277.1 67.5 276.9 67.1 276.9 66.6V41.5C276.9 41 277.1 40.5 277.5 40.2C277.9 39.8 278.3 39.6 278.8 39.6H281.6C282.1 39.6 282.6 39.8 282.9 40.2C283.3 40.6 283.5 41 283.5 41.5V62.3H293.4V41.5C293.4 41 293.6 40.5 294 40.2C294.4 39.8 294.8 39.6 295.3 39.6H298.1C298.6 39.6 299.1 39.8 299.4 40.2C299.8 40.6 300 41 300 41.5V62.3H302C302.5 62.3 303 62.5 303.3 62.9C303.7 63.3 303.9 63.7 303.9 64.2V71.6C303.9 72.1 303.7 72.6 303.3 72.9C303.1 73.3 302.6 73.5 302.1 73.5Z" fill="#3E595F"/>
<path d="M333.7 73.5H331.3C330.8 73.5 330.3 73.3 330 72.9C329.6 72.5 329.4 72.1 329.4 71.6V68.5H310.4C309.9 68.5 309.4 68.3 309.1 67.9C308.7 67.5 308.5 67.1 308.5 66.6V41.5C308.5 41 308.7 40.5 309.1 40.2C309.5 39.8 309.9 39.6 310.4 39.6H313.2C313.7 39.6 314.2 39.8 314.5 40.2C314.9 40.6 315.1 41 315.1 41.5V62.3H325V41.5C325 41 325.2 40.5 325.6 40.2C326 39.8 326.4 39.6 326.9 39.6H329.7C330.2 39.6 330.7 39.8 331 40.2C331.4 40.6 331.6 41 331.6 41.5V62.3H333.6C334.1 62.3 334.6 62.5 334.9 62.9C335.3 63.3 335.5 63.7 335.5 64.2V71.6C335.5 72.1 335.3 72.6 334.9 72.9C334.7 73.3 334.2 73.5 333.7 73.5Z" fill="#3E595F"/>
<path d="M340.1 66.6V41.5C340.1 41 340.3 40.5 340.7 40.2C341.1 39.8 341.5 39.6 342 39.6H344.8C345.3 39.6 345.8 39.8 346.1 40.2C346.5 40.6 346.7 41 346.7 41.5V48.6C347.5 48.5 348.4 48.4 349.3 48.4C352.7 48.4 355.3 49.3 357.1 51C358.9 52.7 359.8 55.1 359.8 58.2C359.8 61.4 358.7 63.9 356.6 65.8C354.5 67.7 351.6 68.6 347.8 68.6C346.9 68.6 345 68.6 341.9 68.5C341.4 68.5 340.9 68.3 340.6 67.9C340.3 67.6 340.1 67.1 340.1 66.6ZM346.8 54.9V62.3C347.7 62.4 348.3 62.5 348.7 62.5C351.5 62.5 352.8 61.2 352.8 58.5C352.8 57.3 352.4 56.4 351.7 55.7C351 55.1 350 54.7 348.7 54.7C348.4 54.7 347.8 54.8 346.8 54.9ZM369.3 41.5V66.6C369.3 67.1 369.1 67.6 368.7 67.9C368.3 68.3 367.9 68.5 367.4 68.5H364.6C364.1 68.5 363.6 68.3 363.3 67.9C362.9 67.5 362.7 67.1 362.7 66.6V41.5C362.7 41 362.9 40.5 363.3 40.2C363.7 39.8 364.1 39.6 364.6 39.6H367.4C367.9 39.6 368.4 39.8 368.7 40.2C369.1 40.5 369.3 41 369.3 41.5Z" fill="#3E595F"/>
<path d="M182.8 86.8H137.5C126.9 86.8 118.3 78.5 118.3 68.2V39.9C118.3 33.6 121.4 27.6 126.6 23.8L149.6 6.5C155.8 1.8 164.5 1.8 170.7 6.5L193.7 23.8C198.9 27.6 201.9 33.6 201.9 39.9V68.2C202 78.5 193.4 86.8 182.8 86.8ZM160.2 11C158.2 11 156.2 11.6 154.5 12.9L131.5 30.2C128.3 32.5 126.5 36.1 126.5 39.9V68.2C126.5 74 131.5 78.7 137.6 78.7H182.9C189 78.7 194 74 194 68.2V39.9C194 36.2 192.1 32.6 189 30.3L166 13C164.2 11.6 162.2 11 160.2 11Z" fill="url(#paint0_linear_167_6920)"/>
<path d="M189.4 16.6C189.4 16.6 195.9 11.8 195.6 7.4C195.3 3 191.4 0 191.4 0L189.4 16.6Z" fill="#51B851"/>
<path d="M189.4 16.6C189.4 16.6 184 12.1 185.4 7.7C186.8 3.3 191.4 0.0999985 191.4 0.0999985L189.4 16.6Z" fill="#91C84A"/>
<path d="M135.1 45.7C135.929 45.7 136.6 44.8046 136.6 43.7C136.6 42.5954 135.929 41.7 135.1 41.7C134.272 41.7 133.6 42.5954 133.6 43.7C133.6 44.8046 134.272 45.7 135.1 45.7Z" fill="#FEF4C2"/>
<path d="M156.3 74.2C146.4 74.1 139.3 74 135 68.8C131.1 64 131.5 55.9 131.8 49.4L131.9 47.2C132.2 40.7 132.4 37.4 133.9 35C135.5 32.4 151.3 19.7 158.6 19.7C165.1 19.8 172.2 24.7 176.1 27.3C176.9 27.9 177.6 28.3 178.1 28.6L178.7 28.9C181.4 30.5 185 32.6 187 37.5C188.5 41.1 190.3 65.6 187.6 68.7C183 74.1 166.5 74.1 160.2 74.1C160.3 74.2 157.5 74.2 156.3 74.2Z" fill="#F79B71"/>
<path d="M158.7 18.6L158.8 21C164.8 21.1 171.8 25.8 175.6 28.4C176.5 29 177.2 29.5 177.7 29.8L178.3 30.1C181 31.7 184.3 33.6 186.1 38.1C187.6 41.9 189 65.2 186.9 68.1C182.6 73.1 165.9 73.1 160.4 73.1C159 73.1 157.7 73.1 156.4 73.1C145.9 73 139.7 72.7 136 68.1C132.4 63.6 132.8 55.8 133.1 49.5L133.2 47.9V47.4C133.5 41.1 133.6 37.9 135 35.7C136.3 33.6 151.9 21 158.7 21V18.6ZM158.7 18.6C150.8 18.6 134.7 31.7 133 34.5C131.3 37.3 131.2 40.8 130.8 47.8C130.5 54.8 129.6 64 134.1 69.6C138.6 75.2 145.9 75.3 156.3 75.4C157.5 75.4 158.9 75.4 160.3 75.4C170.6 75.4 184.1 74.8 188.6 69.5C191.7 65.9 189.7 40.8 188.2 37.1C185.9 31.4 181.6 29.2 178.8 27.6C176.1 26 167 18.7 158.8 18.5C158.8 18.6 158.7 18.6 158.7 18.6Z" fill="#F47859"/>
<path d="M161.8 55.2C153.1 51 143.2 44.8 132.5 35.3C131.2 37.9 131.1 41.4 130.8 47.8C130.5 54.8 129.6 64 134.1 69.6C138.6 75.2 145.9 75.3 156.3 75.4C166.7 75.5 183.5 75.6 188.6 69.6C189.4 68.6 189.9 66.1 190.1 62.8C181.9 62 172.7 60.5 161.8 55.2Z" fill="#F47859"/>
<path d="M173.9 58.7L168.7 54.2C168.2 53.8 168.2 53.1 168.6 52.7L173.1 47.5C173.5 47 174.2 47 174.6 47.4L179.8 51.9C180.3 52.3 180.3 53 179.9 53.4L175.4 58.6C175 59 174.3 59.1 173.9 58.7Z" fill="#F1614C"/>
<path d="M176.7 39.5C176.7 39.4 176.7 39.4 176.7 39.5C175.9 39.5 171.3 39.8 167.4 42.7C163.2 45.8 162.8 53.1 162.8 53.1C162.8 53.1 170.2 52.7 173.4 48.5C176.3 44.7 176.6 40.2 176.7 39.5Z" fill="#F1614C"/>
<path d="M176.1 56.9L170.9 52.4C170.4 52 170.4 51.3 170.8 50.9L175.3 45.7C175.7 45.2 176.4 45.2 176.8 45.6L182 50C182.5 50.4 182.5 51.1 182.1 51.5L177.6 56.7C177.2 57.3 176.5 57.3 176.1 56.9Z" fill="#F8FCFF"/>
<path d="M161.7 41.9H153.7C153.1 41.9 152.6 41.4 152.6 40.8V32.8C152.6 32.2 153.1 31.7 153.7 31.7H161.7C162.3 31.7 162.8 32.2 162.8 32.8V40.8C162.8 41.4 162.3 41.9 161.7 41.9Z" fill="#F1614C"/>
<path d="M150.9 43.1L144.7 36.2C144.3 35.8 144.3 35.1 144.8 34.7L149.3 30.7C149.7 30.3 150.4 30.3 150.8 30.8L157 37.7C157.4 38.1 157.4 38.8 156.9 39.2L152.4 43.2C152 43.6 151.3 43.5 150.9 43.1Z" fill="#F1614C"/>
<path d="M156.7 69.3L148.4 69.8C147.8 69.8 147.3 69.4 147.2 68.8L146.7 60.5C146.7 59.9 147.1 59.4 147.7 59.3L156 58.8C156.6 58.8 157.1 59.2 157.2 59.8L157.7 68.1C157.8 68.7 157.3 69.2 156.7 69.3Z" fill="#D5504F"/>
<path d="M163.5 39.6H155.5C154.9 39.6 154.4 39.1 154.4 38.5V30.5C154.4 29.9 154.9 29.4 155.5 29.4H163.5C164.1 29.4 164.6 29.9 164.6 30.5V38.5C164.6 39.1 164.1 39.6 163.5 39.6Z" fill="#F8FCFF"/>
<path d="M150.2 57.9L145.1 62.5C144.7 62.9 144 62.9 143.6 62.4L139 57.3C138.6 56.9 138.6 56.2 139.1 55.8L144.2 51.2C144.6 50.8 145.3 50.8 145.7 51.3L150.3 56.4C150.7 56.8 150.7 57.5 150.2 57.9Z" fill="#D5504F"/>
<path d="M158.4 67.3L150.1 67.8C149.5 67.8 149 67.4 148.9 66.8L148.4 58.5C148.4 57.9 148.8 57.4 149.4 57.3L157.7 56.8C158.3 56.8 158.8 57.2 158.9 57.8L159.4 66.1C159.4 66.7 159 67.2 158.4 67.3Z" fill="#F8FCFF"/>
<path d="M152 56.3L146.9 60.9C146.5 61.3 145.8 61.3 145.4 60.8L140.8 55.7C140.4 55.3 140.4 54.6 140.9 54.2L146 49.6C146.4 49.2 147.1 49.2 147.5 49.7L152.1 54.8C152.5 55.2 152.5 55.9 152 56.3Z" fill="#F8FCFF"/>
<path d="M150.6 39.1L146.6 34.6C146.2 34.2 146.2 33.5 146.7 33.1L151.2 29.1C151.6 28.7 152.3 28.7 152.7 29.2L156.7 33.7C157.1 34.1 157.1 34.8 156.6 35.2L152.1 39.2C151.7 39.6 151 39.5 150.6 39.1Z" fill="#F8FCFF"/>
<path d="M172.5 48.8L171.3 50.2C170.6 51 170.7 52.2 171.5 52.9L175.4 56.3C176.2 57 177.4 56.9 178.1 56.1L179.8 54.2C176.1 53 173.9 50.8 172.5 48.8Z" fill="#F8E6D8"/>
<path d="M151 40.9C151 41.6 151.1 45.4 153.6 48.8C156.3 52.5 162.8 53.1 162.8 53.1C162.8 53.1 162.7 46.9 159.1 44.1C155.7 41.4 151.7 41 151 40.9Z" fill="#F1614C"/>
<path d="M164.6 51.3C164.6 51.3 171.5 50.9 174.4 47C177.4 43.1 177.4 38.4 177.4 38.4L164.6 51.3Z" fill="#51B851"/>
<path d="M164.6 51.3C164.6 51.3 165 44.4 168.9 41.5C172.8 38.5 177.5 38.5 177.5 38.5L164.6 51.3Z" fill="#91C84A"/>
<path d="M169.1 60.6C168.5 60.6 164.7 60.9 161.5 63.3C158 65.9 157.7 71.9 157.7 71.9C157.7 71.9 163.8 71.6 166.4 68.2C168.8 64.9 169.1 61.2 169.1 60.6Z" fill="#D5504F"/>
<path d="M159.9 69.6C159.9 69.6 165.5 69.3 168 66.1C170.4 62.9 170.5 59 170.5 59L159.9 69.6Z" fill="#51B851"/>
<path d="M159.9 69.6C159.9 69.6 160.2 64 163.4 61.5C166.6 59.1 170.5 59 170.5 59L159.9 69.6Z" fill="#91C84A"/>
<path d="M164.6 51.3C164.6 51.3 157.7 50.9 154.8 47C151.8 43.1 151.7 38.4 151.7 38.4L164.6 51.3Z" fill="#51B851"/>
<path d="M164.6 51.3C164.6 51.3 164.2 44.4 160.2 41.5C156.3 38.6 151.6 38.5 151.6 38.5L164.6 51.3Z" fill="#91C84A"/>
<path d="M182.1 39.1C182.652 39.1 183.1 38.6523 183.1 38.1C183.1 37.5477 182.652 37.1 182.1 37.1C181.548 37.1 181.1 37.5477 181.1 38.1C181.1 38.6523 181.548 39.1 182.1 39.1Z" fill="#9E613B"/>
<path d="M167.3 57C167.797 57 168.2 56.5971 168.2 56.1C168.2 55.6029 167.797 55.2 167.3 55.2C166.803 55.2 166.4 55.6029 166.4 56.1C166.4 56.5971 166.803 57 167.3 57Z" fill="#9E613B"/>
<path d="M137.8 53C138.297 53 138.7 52.5971 138.7 52.1C138.7 51.6029 138.297 51.2 137.8 51.2C137.303 51.2 136.9 51.6029 136.9 52.1C136.9 52.5971 137.303 53 137.8 53Z" fill="#9E613B"/>
<path d="M139.7 37.7C140.197 37.7 140.6 37.2971 140.6 36.8C140.6 36.3029 140.197 35.9 139.7 35.9C139.203 35.9 138.8 36.3029 138.8 36.8C138.8 37.2971 139.203 37.7 139.7 37.7Z" fill="#9E613B"/>
<path d="M154.8 26.9C155.297 26.9 155.7 26.4971 155.7 26C155.7 25.5029 155.297 25.1 154.8 25.1C154.303 25.1 153.9 25.5029 153.9 26C153.9 26.4971 154.303 26.9 154.8 26.9Z" fill="#9E613B"/>
<path d="M163.9 43.7C164.397 43.7 164.8 43.2971 164.8 42.8C164.8 42.3029 164.397 41.9 163.9 41.9C163.403 41.9 163 42.3029 163 42.8C163 43.2971 163.403 43.7 163.9 43.7Z" fill="#9E613B"/>
<path d="M166 71.8C166.497 71.8 166.9 71.3971 166.9 70.9C166.9 70.4029 166.497 70 166 70C165.503 70 165.1 70.4029 165.1 70.9C165.1 71.3971 165.503 71.8 166 71.8Z" fill="#9E613B"/>
<path d="M154.742 73.1721C155.266 72.7668 155.225 71.8361 154.651 71.0933C154.077 70.3506 153.186 70.0771 152.662 70.4824C152.138 70.8877 152.178 71.8184 152.752 72.5612C153.327 73.3039 154.217 73.5775 154.742 73.1721Z" fill="#F79E77"/>
<path d="M186.189 44.7136C186.979 43.7188 187.093 42.4947 186.444 41.9796C185.796 41.4645 184.629 41.8534 183.839 42.8482C183.05 43.8431 182.935 45.0672 183.584 45.5823C184.233 46.0974 185.399 45.7085 186.189 44.7136Z" fill="#F47859"/>
<path d="M167.483 38.9864C168.238 38.0348 168.36 36.8736 167.754 36.3929C167.148 35.9121 166.045 36.2938 165.29 37.2454C164.534 38.197 164.413 39.3582 165.018 39.8389C165.624 40.3197 166.727 39.938 167.483 38.9864Z" fill="#F47859"/>
<path d="M143.939 66.2484C144.486 65.7016 144.233 64.5619 143.374 63.7028C142.515 62.8436 141.375 62.5904 140.828 63.1371C140.281 63.6838 140.535 64.8235 141.394 65.6827C142.253 66.5418 143.393 66.7951 143.939 66.2484Z" fill="#F1614C"/>
<path d="M151.663 49.1906C152.21 48.6438 151.956 47.5042 151.097 46.645C150.238 45.7859 149.098 45.5326 148.552 46.0793C148.005 46.6261 148.258 47.7657 149.117 48.6249C149.977 49.484 151.116 49.7373 151.663 49.1906Z" fill="#F1614C"/>
<path d="M164.067 57.8183C164.65 57.083 164.703 56.1528 164.184 55.7407C163.665 55.3286 162.771 55.5907 162.187 56.326C161.603 57.0613 161.551 57.9915 162.07 58.4036C162.589 58.8157 163.483 58.5536 164.067 57.8183Z" fill="#F79E77"/>
<path d="M155.15 55.1548C155.625 55.0088 155.853 54.3768 155.658 53.7434C155.463 53.1099 154.92 52.7148 154.445 52.8609C153.97 53.007 153.743 53.6389 153.937 54.2724C154.132 54.9058 154.675 55.3009 155.15 55.1548Z" fill="#F79E77"/>
<path d="M138.137 55.7679C138.612 55.6218 138.839 54.9899 138.645 54.3564C138.45 53.723 137.907 53.3279 137.432 53.474C136.957 53.6201 136.729 54.252 136.924 54.8855C137.119 55.5189 137.662 55.914 138.137 55.7679Z" fill="#F79E77"/>
<path d="M172.6 64C173.705 64 174.6 63.3284 174.6 62.5C174.6 61.6716 173.705 61 172.6 61C171.496 61 170.6 61.6716 170.6 62.5C170.6 63.3284 171.496 64 172.6 64Z" fill="#FEF4C2"/>
<path d="M143.781 33.8141C144.367 33.2283 144.209 32.1203 143.428 31.3393C142.647 30.5582 141.539 30.3999 140.953 30.9857C140.367 31.5715 140.525 32.6795 141.307 33.4606C142.088 34.2416 143.196 34.3999 143.781 33.8141Z" fill="#FEF4C2"/>
<path d="M141 49.5C143.043 49.5 144.7 47.8435 144.7 45.8C144.7 43.7565 143.043 42.1 141 42.1C138.957 42.1 137.3 43.7565 137.3 45.8C137.3 47.8435 138.957 49.5 141 49.5Z" fill="#D5504F"/>
<path d="M179.248 36.4468C179.933 35.9809 179.985 34.8627 179.363 33.9494C178.742 33.036 177.683 32.6733 176.998 33.1392C176.313 33.6051 176.261 34.7232 176.883 35.6366C177.504 36.5499 178.563 36.9127 179.248 36.4468Z" fill="#F8FCFF"/>
<path d="M149.872 27.2472C150.287 27.0952 150.454 26.5096 150.245 25.9391C150.036 25.3686 149.53 25.0294 149.115 25.1814C148.7 25.3334 148.534 25.919 148.743 26.4895C148.952 27.06 149.457 27.3992 149.872 27.2472Z" fill="#F8FCFF"/>
<path d="M174.441 34.3925C175.948 33.3675 176.137 31.0187 174.864 29.1463C173.59 27.2739 171.336 26.587 169.829 27.612C168.322 28.637 168.133 30.9858 169.406 32.8582C170.68 34.7306 172.934 35.4175 174.441 34.3925Z" fill="#F8FCFF"/>
<path d="M139.7 41.4C139.2 42 138.9 42.8 138.9 43.7C138.9 45.7 140.6 47.4 142.6 47.4C143.2 47.4 143.7 47.3 144.2 47C143.4 46.6 142.6 46.1 141.8 45.4C140.6 44.2 140 42.8 139.7 41.4Z" fill="#364F76"/>
<path d="M146.3 43.7C146.3 41.7 144.6 40 142.6 40C141.4 40 140.4 40.6 139.7 41.4C139.9 42.8 140.6 44.2 141.8 45.4C142.5 46.1 143.3 46.6 144.2 47C145.4 46.4 146.3 45.2 146.3 43.7Z" fill="#647AA4"/>
<path d="M165.4 109.7C165.4 110.3 165.2 110.8 164.9 111.2C164.6 111.6 164.1 111.9 163.5 112C165 112.3 165.8 113.1 165.8 114.3C165.8 116.2 164.3 117.2 161.3 117.2C161.2 117.2 160.2 117.2 158.5 117.1C158.3 117.1 158.1 117 157.9 116.8C157.7 116.6 157.7 116.4 157.7 116.2V108.1C157.7 107.9 157.8 107.7 157.9 107.5C158.1 107.3 158.3 107.2 158.5 107.2C160.1 107.2 161 107.1 161.2 107.1C164 107.2 165.4 108 165.4 109.7ZM159.4 108.7V111.6H161.6C162.2 111.6 162.7 111.5 163 111.2C163.4 110.9 163.5 110.6 163.5 110.1C163.5 109.1 162.8 108.6 161.3 108.6C160.9 108.6 160.3 108.6 159.4 108.7ZM161.5 112.7H159.4V115.7C160.4 115.7 161.1 115.8 161.4 115.8C163.1 115.8 163.9 115.3 163.9 114.2C163.9 113.2 163.1 112.7 161.5 112.7Z" fill="#3E595F"/>
<path d="M170.2 108V116.4C170.2 116.7 170.1 117 169.8 117.1C169.5 117.2 169.2 117.2 168.9 117.1C168.6 117 168.5 116.7 168.5 116.4V108C168.5 107.7 168.6 107.4 168.9 107.3C169.2 107.2 169.5 107.2 169.8 107.3C170 107.4 170.2 107.7 170.2 108ZM174.7 116.8L171.1 112.7C171 112.5 170.9 112.3 170.9 112C170.9 111.8 171 111.6 171.1 111.4L174.4 107.6C174.6 107.3 174.9 107.2 175.2 107.1C175.5 107.1 175.7 107.2 175.8 107.4C175.9 107.6 176 107.7 176 108C176 108.2 175.9 108.4 175.8 108.5L172.6 111.9L176.1 115.7C176.3 115.9 176.4 116.1 176.4 116.4C176.4 116.6 176.3 116.8 176.2 117C176.1 117.2 175.8 117.2 175.6 117.2C175.2 117.2 175 117.1 174.7 116.8Z" fill="#3E595F"/>
<path d="M179.4 107.7L182.1 113.5C182.1 113.6 182.3 114.1 182.7 115C182.8 114.5 183 114 183.2 113.5L185.3 107.9C185.4 107.5 185.7 107.2 186.1 107.2C186.4 107.2 186.6 107.3 186.8 107.4C187 107.6 187.1 107.8 187.1 108C187.1 108.1 187.1 108.3 187 108.4L183.5 117C182.8 118.7 182.2 119.9 181.7 120.5C181.1 121.1 180.5 121.4 179.8 121.4C178.6 121.4 178.1 121.1 178.1 120.4C178.1 119.9 178.3 119.7 178.8 119.7C178.8 119.7 179 119.7 179.2 119.8C179.4 119.8 179.6 119.9 179.7 119.9C180.1 119.9 180.5 119.7 180.8 119.4C181.1 119.1 181.5 118.5 181.8 117.7L182 117.2L177.9 108.6C177.8 108.5 177.8 108.4 177.8 108.2C177.8 107.9 177.9 107.7 178.1 107.5C178.3 107.3 178.5 107.2 178.8 107.2C179 107.2 179.3 107.4 179.4 107.7Z" fill="#3E595F"/>
<path d="M195.4 109.3C194.7 108.9 194 108.7 193.2 108.7C192.3 108.7 191.5 109 190.9 109.7C190.2 110.4 189.9 111.2 189.9 112.2C189.9 113.2 190.2 114.1 190.9 114.7C191.6 115.3 192.4 115.7 193.4 115.7C194.2 115.7 194.9 115.5 195.5 115C195.7 114.8 196 114.7 196.2 114.7C196.4 114.7 196.6 114.8 196.7 114.9C196.9 115.1 196.9 115.2 196.9 115.4C196.9 115.6 196.8 115.8 196.7 116C195.8 116.8 194.6 117.3 193.3 117.3C191.7 117.3 190.5 116.8 189.5 115.9C188.5 115 188 113.7 188 112.2C188 110.8 188.5 109.6 189.4 108.6C190.3 107.6 191.5 107.1 192.9 107.1C194.1 107.1 195.2 107.4 196.1 107.9C196.4 108.1 196.6 108.3 196.6 108.6C196.6 108.7 196.6 108.9 196.5 109C196.4 109.3 196.1 109.4 195.8 109.4C195.7 109.3 195.5 109.3 195.4 109.3Z" fill="#3E595F"/>
<path d="M208 108V116.4C208 116.7 207.9 117 207.6 117.1C207.3 117.2 207 117.2 206.7 117.1C206.4 117 206.3 116.7 206.3 116.4V112.9H200.9V116.4C200.9 116.7 200.8 117 200.5 117.1C200.2 117.2 199.9 117.2 199.6 117.1C199.3 117 199.2 116.7 199.2 116.4V108C199.2 107.7 199.3 107.4 199.6 107.3C199.9 107.2 200.2 107.2 200.5 107.3C200.8 107.4 200.9 107.7 200.9 108V111.3H206.3V108C206.3 107.7 206.4 107.4 206.7 107.3C207 107.2 207.3 107.2 207.6 107.3C207.9 107.4 208.1 107.7 208 108Z" fill="#3E595F"/>
<path d="M212 115.8C211 114.8 210.5 113.6 210.5 112.1C210.5 110.6 211 109.4 212 108.4C213 107.4 214.2 107 215.8 107C217.3 107 218.6 107.5 219.6 108.4C220.6 109.4 221 110.6 221 112.1C221 113.6 220.5 114.8 219.6 115.8C218.6 116.8 217.4 117.3 215.8 117.3C214.2 117.3 212.9 116.8 212 115.8ZM212.4 112.2C212.4 113.2 212.7 114 213.3 114.7C213.9 115.4 214.7 115.7 215.7 115.7C216.7 115.7 217.5 115.4 218.1 114.7C218.7 114.1 219 113.2 219 112.2C219 111.2 218.7 110.4 218.1 109.7C217.5 109 216.7 108.7 215.7 108.7C214.7 108.7 213.9 109 213.3 109.7C212.7 110.3 212.4 111.1 212.4 112.2Z" fill="#3E595F"/>
<path d="M237.1 108.1V116.4C237.1 116.7 237 117 236.7 117.1C236.4 117.2 236.1 117.2 235.8 117.1C235.5 117 235.4 116.7 235.4 116.4V108.9H230.1V116.4C230.1 116.7 230 117 229.7 117.1C229.4 117.2 229.1 117.2 228.8 117.1C228.5 117 228.4 116.7 228.4 116.4V108.1C228.4 107.9 228.5 107.7 228.6 107.5C228.8 107.3 229 107.3 229.2 107.3H236.4C236.6 107.3 236.8 107.4 237 107.5C237 107.7 237.1 107.9 237.1 108.1Z" fill="#3E595F"/>
<path d="M241.1 115.8C240.1 114.8 239.6 113.6 239.6 112.1C239.6 110.6 240.1 109.4 241.1 108.4C242.1 107.4 243.3 107 244.9 107C246.4 107 247.7 107.5 248.7 108.4C249.7 109.4 250.1 110.6 250.1 112.1C250.1 113.6 249.6 114.8 248.7 115.8C247.7 116.8 246.5 117.3 244.9 117.3C243.3 117.3 242 116.8 241.1 115.8ZM241.5 112.2C241.5 113.2 241.8 114 242.4 114.7C243 115.4 243.8 115.7 244.8 115.7C245.8 115.7 246.6 115.4 247.2 114.7C247.8 114.1 248.1 113.2 248.1 112.2C248.1 111.2 247.8 110.4 247.2 109.7C246.6 109 245.8 108.7 244.8 108.7C243.8 108.7 243 109 242.4 109.7C241.8 110.3 241.5 111.1 241.5 112.2Z" fill="#3E595F"/>
<path d="M253.7 110.3H257.2C257.4 110.3 257.6 110.4 257.8 110.5C258 110.6 258 110.8 258 111.1C258 111.3 257.9 111.5 257.8 111.7C257.7 111.9 257.4 111.9 257.2 111.9H253.7C253.5 111.9 253.3 111.8 253.1 111.7C252.9 111.6 252.9 111.4 252.9 111.1C252.9 110.9 253 110.7 253.1 110.5C253.2 110.3 253.4 110.3 253.7 110.3Z" fill="#3E595F"/>
<path d="M269 117.1H261V118.7C261 118.9 260.9 119.1 260.8 119.3C260.6 119.5 260.5 119.5 260.2 119.5C260 119.5 259.8 119.4 259.6 119.3C259.4 119.2 259.4 118.9 259.4 118.7V116.3C259.4 116.1 259.5 115.9 259.6 115.7C259.8 115.5 260 115.5 260.2 115.5H260.6C261 115 261.3 114.3 261.6 113.3C261.9 112.3 262.1 111.2 262.1 109.9L262.2 108.1C262.2 107.9 262.3 107.7 262.5 107.5C262.7 107.3 262.9 107.3 263.1 107.3H268.1C268.3 107.3 268.5 107.4 268.7 107.5C268.9 107.7 268.9 107.9 268.9 108.1V115.4H269.7C269.9 115.4 270.1 115.5 270.3 115.6C270.5 115.8 270.5 116 270.5 116.2V118.6C270.5 118.8 270.4 119 270.3 119.2C270.1 119.4 270 119.4 269.7 119.4C269.5 119.4 269.3 119.3 269.1 119.2C268.9 119.1 268.9 118.8 268.9 118.6V117.1H269ZM262.5 115.4H267.2V108.9H263.9L263.8 110.5C263.7 111.6 263.5 112.6 263.3 113.5C263 114.4 262.7 115.1 262.5 115.4Z" fill="#3E595F"/>
<path d="M273.2 115.8C272.2 114.8 271.7 113.6 271.7 112.1C271.7 110.6 272.2 109.4 273.2 108.4C274.2 107.4 275.4 107 277 107C278.5 107 279.8 107.5 280.8 108.4C281.8 109.4 282.2 110.6 282.2 112.1C282.2 113.6 281.7 114.8 280.8 115.8C279.8 116.8 278.6 117.3 277 117.3C275.4 117.3 274.1 116.8 273.2 115.8ZM273.6 112.2C273.6 113.2 273.9 114 274.5 114.7C275.1 115.4 275.9 115.7 276.9 115.7C277.9 115.7 278.7 115.4 279.3 114.7C279.9 114.1 280.2 113.2 280.2 112.2C280.2 111.2 279.9 110.4 279.3 109.7C278.7 109 277.9 108.7 276.9 108.7C275.9 108.7 275.1 109 274.5 109.7C273.9 110.3 273.6 111.1 273.6 112.2Z" fill="#3E595F"/>
<path d="M289.2 113.6L286.3 110.1V116.4C286.3 116.7 286.2 117 285.9 117.1C285.6 117.2 285.3 117.2 285 117.1C284.7 117 284.6 116.7 284.6 116.4V108C284.6 107.8 284.7 107.6 284.9 107.4C285.1 107.2 285.3 107.2 285.5 107.2C285.7 107.2 285.9 107.3 286.1 107.4C286.3 107.5 286.5 107.7 286.7 108.1L290 112.2L293.2 108C293.6 107.5 294 107.2 294.3 107.2C294.5 107.2 294.7 107.3 294.9 107.4C295.1 107.5 295.2 107.8 295.2 108V116.4C295.2 116.7 295.1 117 294.8 117.1C294.5 117.2 294.2 117.2 293.9 117.1C293.6 117 293.5 116.7 293.5 116.4V110.1L290.7 113.6C290.5 113.8 290.3 113.9 290 113.9C289.6 113.9 289.4 113.8 289.2 113.6Z" fill="#3E595F"/>
<path d="M297.5 114.2C297.5 113.2 297.8 112.5 298.5 111.9C299.2 111.3 300.1 111.1 301.2 111.1C302.2 111.1 303 111.3 303.6 111.7C303.6 110.6 303.4 109.8 303.1 109.3C302.8 108.8 302.2 108.6 301.3 108.6C300.7 108.6 300 108.7 299.3 109C299.2 109 299.1 109.1 299 109.1C298.7 109.1 298.5 109 298.3 108.7C298.3 108.6 298.2 108.5 298.2 108.4C298.2 108.1 298.3 107.8 298.6 107.7C299.5 107.3 300.4 107.1 301.3 107.1C302.6 107.1 303.6 107.4 304.2 108.1C304.8 108.8 305.1 109.8 305.1 111.1V116.5C305.1 116.7 305 116.9 304.9 117C304.8 117.1 304.5 117.2 304.3 117.2C304.1 117.2 303.9 117.1 303.7 117C303.5 116.9 303.5 116.7 303.5 116.5V115.8C302.7 116.7 301.7 117.2 300.4 117.2C299.5 117.2 298.8 116.9 298.2 116.4C297.8 115.9 297.5 115.1 297.5 114.2ZM303.7 114.4V113.2C303.1 112.8 302.4 112.5 301.5 112.5C300.9 112.5 300.4 112.6 300 112.9C299.6 113.2 299.4 113.6 299.4 114.1C299.4 114.6 299.6 115 299.9 115.2C300.2 115.5 300.6 115.6 301.2 115.6C302.1 115.7 303 115.2 303.7 114.4Z" fill="#3E595F"/>
<path d="M320.6 108V116.2C320.6 116.4 320.5 116.6 320.4 116.8C320.3 117 320 117 319.8 117H309.1C308.9 117 308.7 116.9 308.5 116.8C308.3 116.6 308.3 116.4 308.3 116.2V108C308.3 107.7 308.4 107.4 308.7 107.3C309 107.2 309.3 107.2 309.6 107.3C309.9 107.4 310 107.7 310 108V115.4H313.6V108C313.6 107.7 313.7 107.4 314 107.3C314.3 107.2 314.6 107.2 314.9 107.3C315.2 107.4 315.3 107.7 315.3 108V115.4H318.9V108C318.9 107.7 319 107.4 319.3 107.3C319.6 107.2 319.9 107.2 320.2 107.3C320.5 107.4 320.7 107.7 320.6 108Z" fill="#3E595F"/>
<path d="M332.7 108V116.4C332.7 116.7 332.6 117 332.3 117.1C332 117.2 331.7 117.2 331.4 117.1C331.1 117 331 116.7 331 116.4V112.9H325.6V116.4C325.6 116.7 325.5 117 325.2 117.1C324.9 117.2 324.6 117.2 324.3 117.1C324 117 323.9 116.7 323.9 116.4V108C323.9 107.7 324 107.4 324.3 107.3C324.6 107.2 324.9 107.2 325.2 107.3C325.5 107.4 325.6 107.7 325.6 108V111.3H331V108C331 107.7 331.1 107.4 331.4 107.3C331.7 107.2 332 107.2 332.3 107.3C332.6 107.4 332.7 107.7 332.7 108Z" fill="#3E595F"/>
<path d="M344.8 111.5C344.8 111.7 344.8 111.9 344.8 112C344.8 112.2 344.7 112.3 344.5 112.5C344.3 112.6 344.2 112.7 344 112.7H337.1C337.2 113.6 337.5 114.3 338.1 114.9C338.7 115.4 339.5 115.7 340.5 115.7C341.4 115.7 342.2 115.5 342.9 115.1C343.1 115 343.2 115 343.4 115C343.6 115 343.8 115.1 344 115.3C344.1 115.4 344.1 115.5 344.1 115.7C344.1 116 344 116.2 343.8 116.3C342.8 117 341.6 117.4 340.3 117.4C338.7 117.4 337.4 116.9 336.5 116C335.5 115.1 335.1 113.8 335.1 112.3C335.1 110.8 335.5 109.6 336.4 108.6C337.3 107.6 338.5 107.2 340.1 107.2C341.4 107.2 342.5 107.6 343.3 108.4C344.3 109.2 344.8 110.2 344.8 111.5ZM337 111.3H342.9C342.9 110.5 342.6 109.9 342.1 109.4C341.6 108.9 340.9 108.7 340.1 108.7C339.2 108.7 338.5 108.9 338 109.4C337.4 109.9 337.1 110.5 337 111.3Z" fill="#3E595F"/>
<path d="M351.8 113.6L348.9 110.1V116.4C348.9 116.7 348.8 117 348.5 117.1C348.2 117.2 347.9 117.2 347.6 117.1C347.3 117 347.2 116.7 347.2 116.4V108C347.2 107.8 347.3 107.6 347.5 107.4C347.7 107.2 347.9 107.2 348.1 107.2C348.3 107.2 348.5 107.3 348.7 107.4C348.9 107.5 349.1 107.7 349.3 108.1L352.6 112.2L355.8 108C356.2 107.5 356.6 107.2 356.9 107.2C357.1 107.2 357.3 107.3 357.5 107.4C357.7 107.5 357.8 107.8 357.8 108V116.4C357.8 116.7 357.7 117 357.4 117.1C357.1 117.2 356.8 117.2 356.5 117.1C356.2 117 356.1 116.7 356.1 116.4V110.1L353.3 113.6C353.1 113.8 352.9 113.9 352.6 113.9C352.2 113.9 352 113.8 351.8 113.6Z" fill="#3E595F"/>
<path d="M361.6 107.7L364.3 113.5C364.3 113.6 364.5 114.1 364.9 115C365 114.5 365.2 114 365.4 113.5L367.5 107.9C367.6 107.5 367.9 107.2 368.3 107.2C368.6 107.2 368.8 107.3 369 107.4C369.2 107.6 369.3 107.8 369.3 108C369.3 108.1 369.3 108.3 369.2 108.4L365.7 117C365 118.7 364.4 119.9 363.9 120.5C363.3 121.1 362.7 121.4 362 121.4C360.8 121.4 360.3 121.1 360.3 120.4C360.3 119.9 360.5 119.7 361 119.7C361 119.7 361.2 119.7 361.4 119.8C361.6 119.8 361.8 119.9 361.9 119.9C362.3 119.9 362.7 119.7 363 119.4C363.3 119.1 363.7 118.5 364 117.7L364.2 117.2L360.1 108.6C360 108.5 360 108.4 360 108.2C360 107.9 360.1 107.7 360.3 107.5C360.5 107.3 360.7 107.2 361 107.2C361.1 107.2 361.4 107.4 361.6 107.7Z" fill="#3E595F"/>
</g>
<defs>
<linearGradient id="paint0_linear_167_6920" x1="118.338" y1="44.8876" x2="202" y2="44.8876" gradientUnits="userSpaceOnUse">
<stop stop-color="#F47B20"/>
<stop offset="0.7514" stop-color="#FFD100"/>
<stop offset="1" stop-color="#FFD100"/>
</linearGradient>
<clipPath id="clip0_167_6920">
<rect width="380.7" height="121.4" fill="white"/>
</clipPath>
</defs>
</svg>
