<?xml version="1.0" encoding="utf-8"?><svg viewBox="0 0 502.66 502.66" xmlns="http://www.w3.org/2000/svg" xmlns:xlink="http://www.w3.org/1999/xlink"><style>:root>svg{display:none}:root>svg:target{display:block}</style><svg viewBox="0 0 11 19" id="angle-left" xmlns="http://www.w3.org/2000/svg"><path d="M9.054 18.221h-.001L.629 9.82a.386.386 0 01-.097-.14.583.583 0 01-.032-.204v-.002c0-.08.012-.149.033-.208a.37.37 0 01.094-.137l.002-.001L9.054.704A.689.689 0 019.575.5c.216 0 .39.071.546.229a.698.698 0 01.229.521.701.701 0 01-.229.521l-7.35 7.35-.353.354.353.354 7.35 7.35a.674.674 0 01.204.509.712.712 0 01-.228.533.7.7 0 01-.522.229.7.7 0 01-.521-.229z"/></svg><svg viewBox="0 0 11 19" id="angle-right" xmlns="http://www.w3.org/2000/svg"><path d="M1.946 18.221h.001l8.424-8.4a.385.385 0 00.096-.14.581.581 0 00.033-.204v-.002a.616.616 0 00-.033-.208.372.372 0 00-.094-.137l-.002-.001L1.946.704A.689.689 0 001.425.5a.729.729 0 00-.546.229.7.7 0 00-.229.521.7.7 0 00.229.521l7.35 7.35.353.354-.353.354-7.35 7.35a.674.674 0 00-.204.509c0 .204.069.374.228.533a.7.7 0 00.522.229.7.7 0 00.521-.229z"/></svg><svg viewBox="0 0 17 17" id="cart" xmlns="http://www.w3.org/2000/svg"><path d="M13.6 13.6a1.7 1.7 0 110 3.4 1.7 1.7 0 010-3.4zM0 0h2.78l.799 1.7H16.15a.85.85 0 01.85.85c0 .145-.043.289-.102.425l-3.043 5.5a1.71 1.71 0 01-1.488.875H6.035l-.765 1.386-.025.101a.213.213 0 00.212.213H15.3v1.7H5.1a1.7 1.7 0 01-1.7-1.7c0-.298.077-.578.204-.816L4.76 8.152 1.7 1.7H0V0zm5.1 13.6a1.7 1.7 0 110 3.4 1.7 1.7 0 010-3.4zm7.65-5.95l2.363-4.25H4.369l2.006 4.25h6.375z"/></svg><svg viewBox="0 0 36 22" id="footer-vk" xmlns="http://www.w3.org/2000/svg"><path d="M19.888 22C7.301 22 .252 13.689 0 0h6.294c.251 10.022 4.783 14.422 8.307 15.156V0h5.79v8.8c3.525-.489 7.301-4.4 8.56-8.8h5.79c-1.007 5.378-5.035 9.289-8.056 11 3.021 1.222 7.553 4.889 9.315 11h-6.546c-1.006-4.156-4.28-7.333-9.062-7.822V22h-.504z"/></svg><svg viewBox="0 0 16 20" id="header-user" xmlns="http://www.w3.org/2000/svg"><path d="M8 8a4 4 0 100-8 4 4 0 000 8zm8 7.5c0 2.485 0 4.5-8 4.5s-8-2.015-8-4.5S3.582 11 8 11s8 2.015 8 4.5z"/></svg><svg viewBox="0 0 27 17" id="header-vk" xmlns="http://www.w3.org/2000/svg"><path d="M14.916 17C5.476 17 .19 10.578 0 0h4.72c.19 7.744 3.588 11.144 6.231 11.711V0h4.343v6.8c2.643-.378 5.475-3.4 6.42-6.8h4.342c-.755 4.156-3.776 7.178-6.042 8.5 2.266.944 5.664 3.778 6.986 8.5h-4.91c-.754-3.211-3.209-5.667-6.796-6.044V17h-.378z"/></svg><svg viewBox="0 0 502.664 502.664" id="icon" xmlns="http://www.w3.org/2000/svg"><path d="M153.821 358.226L0 274.337v-46.463l153.821-83.414v54.574L46.636 250.523l107.185 53.431v54.272zm26.273 29.358L282.103 115.08h32.227L212.084 387.584h-31.99zm168.749-29.358v-54.272l107.164-52.999-107.164-52.59v-53.927l153.821 83.522v46.183l-153.821 84.083z"/></svg><svg viewBox="0 0 11 4" id="minus" xmlns="http://www.w3.org/2000/svg"><path d="M10.76 1.657v.636a.87.87 0 01-.269.637.871.871 0 01-.637.27H1.157a.87.87 0 01-.638-.27.871.871 0 01-.269-.637v-.637c0-.244.09-.457.27-.636a.87.87 0 01.637-.27h8.697a.87.87 0 01.637.27c.18.18.27.391.27.637z"/></svg><svg viewBox="0 0 12 12" id="plus" xmlns="http://www.w3.org/2000/svg"><path d="M4.337 10.711V7.134H.906a.87.87 0 01-.637-.269.871.871 0 01-.27-.637v-.637a.87.87 0 01.27-.637.87.87 0 01.637-.27h3.43V1.157a.87.87 0 01.269-.638.87.87 0 01.637-.269h.833a.87.87 0 01.637.27c.18.18.27.391.27.637v3.527h3.478a.87.87 0 01.637.27c.18.18.27.392.27.637v.637a.87.87 0 01-.27.637.871.871 0 01-.637.27H6.982v3.576c0 .245-.09.458-.269.637a.87.87 0 01-.637.27h-.833a.87.87 0 01-.637-.27.871.871 0 01-.27-.637z"/></svg></svg>