<svg width="60" height="60" viewBox="0 0 60 60" fill="none" xmlns="http://www.w3.org/2000/svg">
<path d="M42.6467 39.0469C44.4447 38.8532 46.1076 38.0018 47.3159 36.6563C48.5242 35.3108 49.1926 33.5663 49.1926 31.7579C49.1926 29.9495 48.5242 28.2049 47.3159 26.8594C46.1076 25.514 44.4447 24.6625 42.6467 24.4688C43.018 23.5412 43.1102 22.5253 42.912 21.546C42.7138 20.5667 42.2338 19.6666 41.5311 18.9563L41.3248 18.7688C42.2623 18.4032 42.8248 18.0938 42.8998 17.3719C42.9748 16.6501 42.2998 16.1251 41.2779 15.4969C39.8791 14.6094 38.804 13.2943 38.2123 11.7469C37.7717 10.6219 37.4811 9.87194 36.6654 9.79694C35.8498 9.72194 35.4186 10.3969 34.7904 11.4188C34.41 12.0052 33.9528 12.538 33.4311 13.0032C32.3947 12.1345 31.1379 11.5698 29.8002 11.3716C28.4624 11.1735 27.0959 11.3498 25.8523 11.8809C24.6086 12.4119 23.5362 13.2771 22.7542 14.3803C21.9722 15.4836 21.5109 16.7819 21.4217 18.1313C20.5467 17.8789 19.62 17.8659 18.7383 18.0935C17.8565 18.3211 17.052 18.7812 16.4085 19.4256C15.765 20.07 15.3062 20.8752 15.0799 21.7573C14.8536 22.6394 14.868 23.5661 15.1217 24.4407C13.393 24.5625 11.7634 25.2927 10.5219 26.5018C9.28043 27.7109 8.5074 29.3207 8.33997 31.0455C8.17254 32.7704 8.62154 34.4988 9.6073 35.924C10.5931 37.3493 12.0518 38.3793 13.7248 38.8313C13.3463 39.1243 12.9414 39.3817 12.5154 39.6001C11.4373 40.1438 10.7248 40.5376 10.7248 41.3251C10.7248 42.1126 11.4373 42.5157 12.5154 43.0594C13.9917 43.8017 15.191 44.9977 15.9373 46.4719C16.4811 47.5594 16.8748 48.2719 17.6623 48.2719C18.4498 48.2719 18.8529 47.5594 19.3967 46.4719C19.4623 46.3313 19.5654 46.2001 19.6498 46.0594C20.2711 46.0489 20.8849 45.9217 21.4592 45.6844C21.6529 47.4824 22.5043 49.1454 23.8498 50.3537C25.1953 51.5619 26.9399 52.2303 28.7482 52.2303C30.5566 52.2303 32.3012 51.5619 33.6467 50.3537C34.9922 49.1454 35.8436 47.4824 36.0373 45.6844C36.9646 46.0669 37.9843 46.1663 38.968 45.9702C39.9517 45.7741 40.8553 45.2913 41.5651 44.5825C42.2749 43.8738 42.759 42.9708 42.9565 41.9874C43.1539 41.004 43.0559 39.9841 42.6748 39.0563L42.6467 39.0469ZM36.3561 12.4313L36.4217 12.3282C36.4217 12.3282 36.4217 12.4032 36.4217 12.4407C37.1891 14.3588 38.5532 15.9793 40.3123 17.0626L40.4061 17.1282H40.3029C38.3684 17.8785 36.7277 19.2332 35.6248 20.9907C35.6061 21.0241 35.5841 21.0555 35.5592 21.0844C35.5592 21.0844 35.5592 21.0094 35.5592 20.9813C34.8095 19.0698 33.4695 17.4474 31.7342 16.3501L31.6404 16.2844H31.7436C33.6508 15.5217 35.2661 14.1723 36.3561 12.4313ZM17.6061 45.7407V45.6376C16.6789 43.8057 15.191 42.3178 13.3592 41.3907L13.2561 41.3344L13.3592 41.2876C15.1834 40.3499 16.6684 38.8649 17.6061 37.0407V36.9376L17.6623 37.0407C18.6032 38.8629 20.1007 40.3375 21.9373 41.2501L22.0404 41.2969L21.9373 41.3532C20.1035 42.2776 18.6149 43.7663 17.6904 45.6001L17.6061 45.7407ZM40.1811 43.2469C39.5773 43.8339 38.7684 44.1624 37.9264 44.1624C37.0843 44.1624 36.2754 43.8339 35.6717 43.2469C35.529 43.1227 35.3521 43.0445 35.1642 43.0227C34.9762 43.0009 34.7861 43.0364 34.6187 43.1246C34.4514 43.2129 34.3146 43.3497 34.2265 43.5171C34.1383 43.6845 34.1029 43.8746 34.1248 44.0626C34.1619 44.3266 34.1807 44.5928 34.1811 44.8594C34.1811 46.3065 33.6062 47.6943 32.583 48.7176C31.5597 49.7408 30.1719 50.3157 28.7248 50.3157C27.2777 50.3157 25.8899 49.7408 24.8667 48.7176C23.8434 47.6943 23.2686 46.3065 23.2686 44.8594C23.269 44.5928 23.2877 44.3266 23.3248 44.0626C23.3464 43.8744 23.3105 43.6841 23.2218 43.5168C23.1331 43.3494 22.9958 43.2128 22.8279 43.1251H22.7248H22.7717C23.8592 42.5813 24.5717 42.1876 24.5717 41.3907C24.5717 40.5938 23.8592 40.2094 22.7717 39.6657C21.3005 38.9229 20.1073 37.7264 19.3686 36.2532C18.8248 35.1751 18.4311 34.4626 17.6342 34.4626C16.8373 34.4626 16.4529 35.1751 15.9092 36.2532C15.7318 36.6025 15.5281 36.9379 15.2998 37.2563C14.5555 37.2224 13.826 37.0364 13.1562 36.7097C12.4865 36.3831 11.8908 35.9227 11.4059 35.357C10.9209 34.7913 10.5569 34.1323 10.3364 33.4205C10.1159 32.7088 10.0435 31.9594 10.1236 31.2186C10.2038 30.4778 10.4349 29.7613 10.8026 29.1132C11.1702 28.4652 11.6668 27.8993 12.2616 27.4504C12.8563 27.0016 13.5367 26.6793 14.2608 26.5035C14.9849 26.3277 15.7373 26.3021 16.4717 26.4282C16.6565 26.4643 16.848 26.4438 17.021 26.3695C17.1941 26.2952 17.3408 26.1705 17.442 26.0117C17.5431 25.8528 17.5941 25.6672 17.5883 25.4789C17.5824 25.2907 17.52 25.1086 17.4092 24.9563C16.9735 24.3361 16.771 23.5819 16.8373 22.8268C16.9036 22.0717 17.2345 21.3644 17.7716 20.8296C18.3086 20.2947 19.0174 19.9668 19.7727 19.9036C20.528 19.8405 21.2814 20.0462 21.8998 20.4844C22.0539 20.5872 22.2349 20.6421 22.4201 20.6421C22.6053 20.6421 22.7864 20.5872 22.9404 20.4844C23.0961 20.3875 23.22 20.247 23.2967 20.0804C23.3733 19.9137 23.3994 19.7283 23.3717 19.5469C23.2026 18.4967 23.3448 17.42 23.7806 16.4497C24.2164 15.4793 24.9268 14.6578 25.824 14.0866C26.7213 13.5153 27.7663 13.2192 28.8299 13.235C29.8935 13.2507 30.9292 13.5775 31.8092 14.1751C31.5657 14.307 31.3153 14.4259 31.0592 14.5313C29.9342 14.9719 29.1842 15.2626 29.1092 16.0876C29.0342 16.9126 29.7092 17.3344 30.7311 17.9626C32.1299 18.8501 33.205 20.1652 33.7967 21.7126C34.2373 22.8376 34.5279 23.5876 35.3529 23.6626H35.4748C36.2154 23.6626 36.6279 23.0063 37.2373 22.0313C37.8161 21.1402 38.5686 20.375 39.4498 19.7813C39.7317 19.9233 39.9908 20.1065 40.2186 20.3251C40.8056 20.9288 41.134 21.7377 41.134 22.5797C41.134 23.4218 40.8056 24.2307 40.2186 24.8344C40.0836 24.9757 39.9961 25.1556 39.9684 25.349C39.9406 25.5425 39.974 25.7397 40.0639 25.9132C40.1537 26.0868 40.2955 26.2279 40.4695 26.3168C40.6435 26.4058 40.8409 26.4382 41.0342 26.4094C41.7757 26.3021 42.5314 26.3487 43.2542 26.5463C43.977 26.7438 44.6513 27.0881 45.2352 27.5577C45.819 28.0273 46.2999 28.6121 46.6479 29.2757C46.9958 29.9392 47.2034 30.6674 47.2576 31.4147C47.3118 32.162 47.2115 32.9125 46.9629 33.6193C46.7144 34.3262 46.3229 34.9743 45.813 35.5232C45.303 36.0721 44.6854 36.5101 43.9987 36.8099C43.312 37.1097 42.571 37.2649 41.8217 37.2657C41.5582 37.2663 41.295 37.2475 41.0342 37.2094C40.846 37.1879 40.6557 37.2238 40.4884 37.3125C40.321 37.4012 40.1845 37.5385 40.0967 37.7063C40.0076 37.8802 39.975 38.0776 40.0036 38.2709C40.0322 38.4642 40.1205 38.6438 40.2561 38.7844C40.8229 39.3919 41.1343 40.1942 41.1255 41.0251C41.1168 41.8559 40.7887 42.6515 40.2092 43.2469H40.1811Z" fill="white"/>
<path d="M16.65 14.2218C16.6426 13.3341 16.3722 12.4685 15.8731 11.7344C15.3739 11.0003 14.6683 10.4306 13.8455 10.0973C13.0227 9.764 12.1196 9.68207 11.2502 9.86184C10.3808 10.0416 9.58427 10.475 8.96113 11.1073C8.33799 11.7396 7.91625 12.5424 7.74918 13.4143C7.58212 14.2862 7.67723 15.1881 8.02249 16.0059C8.36776 16.8238 8.94769 17.521 9.68902 18.0094C10.4303 18.4978 11.2998 18.7555 12.1875 18.75C12.7781 18.7463 13.362 18.6262 13.9061 18.3965C14.4501 18.1668 14.9435 17.8321 15.358 17.4115C15.7725 16.9909 16.1 16.4927 16.3217 15.9454C16.5434 15.398 16.655 14.8123 16.65 14.2218ZM9.55316 14.2218C9.56056 13.707 9.71976 13.2058 10.0108 12.781C10.3018 12.3562 10.7118 12.0268 11.1892 11.834C11.6667 11.6412 12.1904 11.5937 12.6948 11.6973C13.1992 11.8009 13.6618 12.0511 14.0246 12.4165C14.3874 12.7818 14.6343 13.2462 14.7343 13.7513C14.8343 14.2564 14.7831 14.7798 14.5869 15.2559C14.3907 15.7319 14.0584 16.1395 13.6316 16.4276C13.2048 16.7156 12.7024 16.8712 12.1875 16.875C11.8393 16.8775 11.4941 16.8105 11.1721 16.6778C10.8501 16.5451 10.5578 16.3495 10.3124 16.1024C10.0671 15.8552 9.87351 15.5616 9.74313 15.2387C9.61275 14.9158 9.54816 14.5701 9.55316 14.2218Z" fill="white"/>
<path d="M51.2061 11.5407C51.2061 10.799 50.9861 10.0739 50.5741 9.45726C50.162 8.84058 49.5763 8.35993 48.8911 8.0761C48.2059 7.79227 47.4519 7.71801 46.7245 7.86271C45.997 8.0074 45.3289 8.36455 44.8044 8.889C44.28 9.41345 43.9228 10.0816 43.7781 10.8091C43.6334 11.5365 43.7077 12.2905 43.9915 12.9757C44.2753 13.6609 44.756 14.2466 45.3727 14.6587C45.9894 15.0707 46.7144 15.2907 47.4561 15.2907C47.9485 15.2907 48.4361 15.1937 48.8911 15.0052C49.3461 14.8167 49.7595 14.5405 50.1077 14.1923C50.4559 13.8441 50.7322 13.4307 50.9206 12.9757C51.1091 12.5207 51.2061 12.0331 51.2061 11.5407ZM45.5811 11.5407C45.5811 11.1698 45.691 10.8073 45.8971 10.499C46.1031 10.1906 46.3959 9.95029 46.7385 9.80838C47.0811 9.66646 47.4581 9.62933 47.8219 9.70168C48.1856 9.77403 48.5197 9.9526 48.7819 10.2148C49.0441 10.477 49.2227 10.8111 49.295 11.1749C49.3674 11.5386 49.3302 11.9156 49.1883 12.2582C49.0464 12.6008 48.8061 12.8936 48.4978 13.0997C48.1894 13.3057 47.8269 13.4157 47.4561 13.4157C47.2083 13.4181 46.9624 13.3715 46.7328 13.2783C46.5031 13.1852 46.2942 13.0475 46.1181 12.8732C45.942 12.6988 45.8022 12.4913 45.7068 12.2625C45.6114 12.0338 45.5623 11.7885 45.5623 11.5407H45.5811Z" fill="white"/>
<path d="M53.4375 46.7344C53.4375 45.9927 53.2176 45.2677 52.8055 44.651C52.3935 44.0343 51.8078 43.5537 51.1226 43.2698C50.4373 42.986 49.6833 42.9117 48.9559 43.0564C48.2285 43.2011 47.5603 43.5583 47.0359 44.0827C46.5114 44.6072 46.1543 45.2754 46.0096 46.0028C45.8649 46.7302 45.9391 47.4842 46.223 48.1694C46.5068 48.8547 46.9874 49.4403 47.6041 49.8524C48.2208 50.2644 48.9458 50.4844 49.6875 50.4844C50.6821 50.4844 51.6359 50.0893 52.3392 49.386C53.0424 48.6828 53.4375 47.7289 53.4375 46.7344ZM47.8125 46.7344C47.8125 46.3635 47.9225 46.001 48.1285 45.6927C48.3345 45.3843 48.6274 45.144 48.97 45.0021C49.3126 44.8602 49.6896 44.8231 50.0533 44.8954C50.417 44.9678 50.7511 45.1463 51.0133 45.4086C51.2756 45.6708 51.4541 46.0049 51.5265 46.3686C51.5988 46.7323 51.5617 47.1093 51.4198 47.4519C51.2779 47.7945 51.0375 48.0874 50.7292 48.2934C50.4209 48.4994 50.0583 48.6094 49.6875 48.6094C49.1902 48.6094 48.7133 48.4118 48.3617 48.0602C48.01 47.7086 47.8125 47.2317 47.8125 46.7344Z" fill="white"/>
<path d="M9.81564 51.8626C10.459 51.8626 11.088 51.6718 11.623 51.3143C12.158 50.9569 12.5749 50.4488 12.8211 49.8544C13.0674 49.2599 13.1318 48.6058 13.0063 47.9748C12.8807 47.3438 12.5709 46.7641 12.1159 46.3091C11.661 45.8542 11.0813 45.5444 10.4503 45.4188C9.81925 45.2933 9.16515 45.3577 8.57072 45.604C7.97629 45.8502 7.46822 46.2671 7.11076 46.8021C6.75331 47.3371 6.56251 47.966 6.56251 48.6094C6.56128 49.037 6.64458 49.4606 6.80762 49.8558C6.97067 50.2511 7.21025 50.6102 7.51257 50.9125C7.8149 51.2148 8.17401 51.4544 8.56926 51.6175C8.96451 51.7805 9.38809 51.8638 9.81564 51.8626ZM9.81564 47.2407C10.0886 47.2407 10.3554 47.3218 10.5822 47.4736C10.8091 47.6255 10.9857 47.8413 11.0897 48.0936C11.1938 48.346 11.2205 48.6236 11.1666 48.8912C11.1126 49.1587 10.9804 49.4043 10.7868 49.5966C10.5931 49.789 10.3466 49.9195 10.0787 49.9716C9.81076 50.0237 9.53337 49.9951 9.28172 49.8893C9.03007 49.7836 8.8155 49.6055 8.6652 49.3776C8.5149 49.1498 8.43566 48.8824 8.43751 48.6094C8.43999 48.2456 8.58628 47.8974 8.84446 47.641C9.10264 47.3846 9.45176 47.2407 9.81564 47.2407Z" fill="white"/>
</svg>
