<svg width="60" height="60" viewBox="0 0 60 60" fill="none" xmlns="http://www.w3.org/2000/svg">
<path d="M57 32.0039H56.0039V11.0039C56.0039 6 52.0078 2.00391 47.0039 2.00391C42.5742 2.00391 39.3984 5.28516 39.0352 10.0898C36.7148 10.5234 35.0039 12.5273 35.0039 15C35.0039 15.5977 35.4023 15.9961 36 15.9961H44.0039C44.6016 15.9961 45 15.5977 45 15C45 12.5625 43.3242 10.5703 41.0391 10.1016C41.332 6.92578 43.2422 3.99609 46.9922 3.99609C50.8945 3.99609 53.9883 7.10156 53.9883 10.9922V31.9922H23.9062C23.4492 29.6836 21.457 27.9961 19.0078 27.9961C18.0117 26.8008 16.6055 25.9922 15.0117 25.9922C13.1133 25.9922 11.4141 27.0938 10.6172 28.6875C9.82031 28.2891 8.91797 27.9844 8.01562 27.9844C5.55469 27.9844 3.5625 29.6836 3.11719 31.9805H3.02344C1.30078 32.0039 0 33.3047 0 35.0039C0 36.7031 1.30078 38.0039 3 38.0039H4.20703L6.90234 48.7031C7.69922 51.8086 10.5 54 13.6992 54H14.4961L13.1953 56.6016C12.8906 57.1055 13.0898 57.7031 13.5938 57.9023C13.6992 58.0078 13.8984 58.0078 13.9922 58.0078C14.3906 58.0078 14.6953 57.8086 14.8945 57.5039L16.6406 54H44.3906L46.0898 57.3984C46.2891 57.7969 46.5938 57.9961 46.9922 57.9961C47.1914 57.9961 47.2969 57.9961 47.3906 57.7969C47.7891 57.5977 47.9883 57 47.7891 56.4961L46.5352 53.9883C49.6289 53.8828 52.3125 51.7148 53.0859 48.7969L55.8047 37.9922H56.9766C58.6758 37.9922 59.9766 36.6914 59.9766 34.9922C60 33.3047 58.6992 32.0039 57 32.0039ZM42.9023 14.0039H37.207C37.6055 12.8086 38.8125 12 40.1016 12C41.3906 12 42.5039 12.7969 42.9023 14.0039ZM8.00391 30C8.90625 30 9.70312 30.3984 10.4062 31.1016C10.6055 31.4062 11.0039 31.5 11.4023 31.4062C11.8008 31.3125 12 31.0078 12.1055 30.6094C12.4102 29.1094 13.6055 28.0078 15.1055 28.0078C16.207 28.0078 17.2031 28.5117 17.707 29.5078C17.9062 29.9062 18.4102 30.1055 18.8086 30.0117C18.9141 30.0117 19.0078 30.0117 19.1133 30.0117C20.4141 30.0117 21.5156 30.8086 21.9141 32.0156H5.20312C5.60156 30.7969 6.70313 30 8.00391 30ZM51.3047 48.1992C50.707 50.4023 48.7031 51.9961 46.4062 51.9961H13.8047C11.5078 51.9961 9.50391 50.3906 8.90625 48.1992L6.30469 38.0039H53.707L51.3047 48.1992ZM57 36H54.9961H5.00391H3C2.40234 36 2.00391 35.6016 2.00391 35.0039C2.00391 34.4062 2.40234 34.0078 3 34.0078H3.99609H22.9922H56.9883C57.5859 34.0078 57.9844 34.4062 57.9844 35.0039C57.9844 35.6016 57.5977 36 57 36Z" fill="white"/>
<path d="M36 20.4961C36.5977 20.4961 36.9961 20.0977 36.9961 19.5V18.9961C36.9961 18.3984 36.5977 18 36 18C35.4023 18 35.0039 18.3984 35.0039 18.9961V19.5C35.0039 20.0977 35.4023 20.4961 36 20.4961Z" fill="white"/>
<path d="M36 25.1016C36.5977 25.1016 36.9961 24.5977 36.9961 24.1055V23.0039C36.9961 22.4062 36.5977 22.0078 36 22.0078C35.4023 22.0078 35.0039 22.4062 35.0039 23.0039V24.1055C35.0039 24.7031 35.4023 25.1016 36 25.1016Z" fill="white"/>
<path d="M36 29.0039C36.5977 29.0039 36.9961 28.6055 36.9961 28.0078V27.5039C36.9961 26.9063 36.5977 26.5078 36 26.5078C35.4023 26.5078 35.0039 26.9063 35.0039 27.5039V28.0078C35.0039 28.6055 35.4023 29.0039 36 29.0039Z" fill="white"/>
<path d="M39.9961 20.4961C40.5938 20.4961 40.9922 20.0977 40.9922 19.5V18.9961C40.9922 18.3984 40.5938 18 39.9961 18C39.3984 18 39 18.3984 39 18.9961V19.5C39 20.0977 39.3984 20.4961 39.9961 20.4961Z" fill="white"/>
<path d="M39 24.1055C39 24.7031 39.3984 25.1016 39.9961 25.1016C40.5938 25.1016 40.9922 24.5977 40.9922 24.1055V23.0039C40.9922 22.4062 40.5938 22.0078 39.9961 22.0078C39.3984 22.0078 39 22.4062 39 23.0039V24.1055Z" fill="white"/>
<path d="M39 27.9961C39 28.5937 39.3984 28.9922 39.9961 28.9922C40.5938 28.9922 40.9922 28.5937 40.9922 27.9961V27.4922C40.9922 26.8945 40.5938 26.4961 39.9961 26.4961C39.3984 26.4961 39 26.8945 39 27.4922V27.9961Z" fill="white"/>
<path d="M44.0037 20.4961C44.6013 20.4961 44.9998 20.0977 44.9998 19.5V18.9961C44.9998 18.3984 44.6013 18 44.0037 18C43.406 18 43.0076 18.3984 43.0076 18.9961V19.5C42.9959 20.0977 43.3943 20.4961 44.0037 20.4961Z" fill="white"/>
<path d="M42.9961 24.1055C42.9961 24.7031 43.3945 25.1016 43.9922 25.1016C44.5898 25.1016 44.9883 24.5977 44.9883 24.1055V23.0039C44.9883 22.4062 44.5898 22.0078 43.9922 22.0078C43.3945 22.0078 42.9961 22.4062 42.9961 23.0039V24.1055Z" fill="white"/>
<path d="M42.9961 27.9961C42.9961 28.5937 43.3945 28.9922 43.9922 28.9922C44.5898 28.9922 44.9883 28.5937 44.9883 27.9961V27.4922C44.9883 26.8945 44.5898 26.4961 43.9922 26.4961C43.3945 26.4961 42.9961 26.8945 42.9961 27.4922V27.9961Z" fill="white"/>
</svg>
