<svg width="60" height="60" viewBox="0 0 60 60" fill="none" xmlns="http://www.w3.org/2000/svg">
<g clip-path="url(#clip0_162_525)">
<path d="M0 0V60H60V0H0ZM58.0645 58.0645H1.93548V1.93548H58.0645V58.0645Z" fill="white"/>
<path d="M55.1614 31.9356V26.1291V4.83882H22.3152C22.2795 4.52047 22.258 4.1982 22.258 3.87097H20.3225C20.3225 4.19799 20.3013 4.52026 20.2653 4.83882H4.83887V26.1291V31.9356V55.1614H55.1614V31.9356ZM53.2258 6.7743V26.1291H47.8657C46.1267 24.1055 44.7456 21.8729 43.658 19.6461L50.0392 13.2649L48.6708 11.8966L42.8043 17.7631C40.8234 13.0696 40.0579 8.70318 39.7965 6.7743H53.2258ZM21.2904 8.30411C22.354 10.617 24.2226 12.4848 26.5336 13.5484C24.2218 14.612 22.354 16.4796 21.2904 18.7927C20.2267 16.4796 18.3581 14.612 16.0471 13.5484C18.359 12.4848 20.2267 10.6172 21.2904 8.30411ZM6.77435 6.7743H19.8147C18.6156 10.1516 15.3968 12.5808 11.613 12.5808V14.5162C13.7749 14.5162 15.7511 15.3127 17.2753 16.622C16.2505 19.1711 14.5124 23.283 12.1181 26.1291H6.77435V6.7743ZM6.77435 28.0646H11.613V30.0001H6.77435V28.0646ZM6.77414 31.9356H11.9082C12.3717 33.2024 13.4673 36.3039 14.5733 40.1875L6.77414 47.9866V31.9356ZM6.77435 53.2259V50.7233L15.1637 42.3339C16.0676 45.7559 16.9018 49.5843 17.3149 53.2259H6.77435ZM29.0321 36.4352C28.4253 36.6501 27.7761 36.774 27.0966 36.774V38.7095C27.7761 38.7095 28.4253 38.8333 29.0321 39.0483V53.2257H19.262C18.8014 48.9899 17.7968 44.5576 16.7507 40.7467L24.8779 32.6196L23.5093 31.2512L16.1448 38.6157C14.9486 34.555 13.8309 31.5357 13.5482 30.7885V27.4362C15.8939 24.6714 17.6147 20.8884 18.7188 18.2059C19.7253 19.6265 20.3223 21.356 20.3223 23.2256H22.2578C22.2578 19.0885 25.1591 15.6241 29.0321 14.7404V36.4352ZM29.0323 12.3561C26.1135 11.6903 23.7542 9.55747 22.7661 6.7743H29.0323V12.3561ZM30.9678 53.2261V40.2001C32.1522 41.2637 32.9033 42.8013 32.9033 44.5161H34.8388C34.8388 41.3139 37.4429 38.7097 40.6452 38.7097V36.7742C37.4429 36.7742 34.8388 34.17 34.8388 30.9677H32.9033C32.9033 32.6817 32.1522 34.2194 30.9678 35.2838V14.5162V12.5808V6.7743H37.8387C38.0836 8.77956 38.9032 13.8494 41.3187 19.2485L34.6383 25.9289L36.0067 27.2972L42.206 21.0979C43.3237 23.2743 44.7173 25.4507 46.4504 27.4541V30.79C45.8765 32.3122 41.816 43.3125 40.7379 53.2261H30.9678ZM30.8421 37.742C32.1128 37.0366 33.1657 35.9845 33.8711 34.713C34.5766 35.9837 35.6295 37.0366 36.9002 37.742C35.6295 38.4475 34.5766 39.4996 33.8711 40.7711C33.1655 39.4994 32.1126 38.4475 30.8421 37.742ZM53.2258 53.2249H42.6854C43.6844 44.41 47.1621 34.4797 48.0919 31.9356H49.107C48.7491 33.573 48.0919 36.8363 47.429 41.4755L49.3443 41.7495C50.0555 36.7744 50.7717 33.3525 51.09 31.9346H53.2258V53.2249ZM53.226 30.0001H48.3871V28.0646H53.226V30.0001Z" fill="white"/>
<path d="M36.09 18.6701L33.1865 21.5735L34.5551 22.9421L37.4585 20.0386L36.09 18.6701Z" fill="white"/>
<path d="M19.6378 44.8004L21.0063 46.1689L25.8449 41.3304L24.4763 39.9618L19.6378 44.8004Z" fill="white"/>
</g>
<defs>
<clipPath id="clip0_162_525">
<rect width="60" height="60" fill="white"/>
</clipPath>
</defs>
</svg>
