<svg width="60" height="60" viewBox="0 0 60 60" fill="none" xmlns="http://www.w3.org/2000/svg">
<path fill-rule="evenodd" clip-rule="evenodd" d="M15.3959 4.7637C16.6688 3.7903 18.2904 3.125 19.9755 3.125H40.0255C41.7112 3.125 43.333 3.79077 44.6089 4.76735C45.8858 5.74477 46.9553 7.13968 47.4076 8.77515L47.4095 8.78184L52.9095 28.9568L52.9112 28.9634C53.5801 31.4521 53.1688 33.8882 51.7613 35.7271C50.3533 37.5667 48.1081 38.6 45.5255 38.6H14.4755C11.8934 38.6 9.64559 37.5668 8.23983 35.7201C6.83431 33.8737 6.43402 31.4291 7.11682 28.9307L12.6148 8.76325C12.6151 8.76208 12.6154 8.76092 12.6157 8.75975C13.0555 7.12761 14.1238 5.73652 15.3959 4.7637ZM17.6738 7.74255C16.9281 8.31279 16.4221 9.0454 16.2362 9.73675L16.2345 9.74316L10.7342 29.9193C10.317 31.4459 10.6167 32.6513 11.2237 33.4487C11.8304 34.2457 12.9076 34.85 14.4755 34.85H45.5255C47.0929 34.85 48.1727 34.2458 48.7834 33.4479C49.3942 32.6499 49.6954 31.4497 49.2906 29.94C49.2903 29.9389 49.29 29.9378 49.2897 29.9366L43.7933 9.77485C43.7931 9.77389 43.7928 9.77293 43.7925 9.77197C43.5943 9.05833 43.0766 8.31697 42.3296 7.74515C41.5804 7.17173 40.7398 6.875 40.0255 6.875H19.9755C19.2605 6.875 18.4197 7.17219 17.6738 7.74255Z" fill="white"/>
<path fill-rule="evenodd" clip-rule="evenodd" d="M30 35.625C31.0355 35.625 31.875 36.4645 31.875 37.5V55C31.875 56.0355 31.0355 56.875 30 56.875C28.9645 56.875 28.125 56.0355 28.125 55V37.5C28.125 36.4645 28.9645 35.625 30 35.625Z" fill="white"/>
<path fill-rule="evenodd" clip-rule="evenodd" d="M18.125 55C18.125 53.9645 18.9645 53.125 20 53.125H40C41.0355 53.125 41.875 53.9645 41.875 55C41.875 56.0355 41.0355 56.875 40 56.875H20C18.9645 56.875 18.125 56.0355 18.125 55Z" fill="white"/>
</svg>
