<svg width="11" height="19" viewBox="0 0 11 19" fill="none" xmlns="http://www.w3.org/2000/svg">
<path d="M9.05357 18.2214L9.05304 18.2209L0.628569 9.82145C0.628504 9.82138 0.628438 9.82132 0.628373 9.82125C0.573228 9.76606 0.546227 9.71889 0.532459 9.68064C0.511747 9.62311 0.499613 9.55669 0.500016 9.4775V9.475C0.500016 9.39415 0.512392 9.32602 0.533311 9.26697C0.546164 9.2307 0.57215 9.1846 0.627395 9.12973L0.628569 9.12855L9.05357 0.703553C9.187 0.570118 9.3487 0.5 9.57502 0.5C9.7909 0.5 9.96416 0.571251 10.1215 0.728553C10.284 0.891098 10.35 1.05794 10.35 1.25C10.35 1.44206 10.284 1.6089 10.1215 1.77145L2.77146 9.12145L2.41791 9.475L2.77146 9.82855L10.1215 17.1786C10.2573 17.3144 10.325 17.4732 10.325 17.688C10.325 17.8924 10.2563 18.062 10.0969 18.221L10.0965 18.2214C9.93392 18.384 9.76707 18.45 9.57502 18.45C9.38296 18.45 9.21611 18.384 9.05357 18.2214Z" fill="#E0E0E0" stroke="#BDBDBD"/>
</svg>
