<svg width="11" height="19" viewBox="0 0 11 19" fill="none" xmlns="http://www.w3.org/2000/svg">
<path d="M1.94643 18.2214L1.94696 18.2209L10.3714 9.82145C10.3715 9.82138 10.3716 9.82132 10.3716 9.82125C10.4268 9.76606 10.4538 9.71889 10.4675 9.68064C10.4883 9.62311 10.5004 9.55669 10.5 9.4775V9.475C10.5 9.39415 10.4876 9.32602 10.4667 9.26697C10.4538 9.2307 10.4278 9.1846 10.3726 9.12973L10.3714 9.12855L1.94643 0.703553C1.813 0.570118 1.6513 0.5 1.42498 0.5C1.2091 0.5 1.03584 0.571251 0.878539 0.728553C0.715994 0.891098 0.649985 1.05794 0.649985 1.25C0.649985 1.44206 0.715994 1.6089 0.878539 1.77145L8.22854 9.12145L8.58209 9.475L8.22854 9.82855L0.878539 17.1786C0.742719 17.3144 0.674985 17.4732 0.674985 17.688C0.674985 17.8924 0.743715 18.062 0.903066 18.221L0.903539 18.2214C1.06608 18.384 1.23293 18.45 1.42498 18.45C1.61704 18.45 1.78389 18.384 1.94643 18.2214Z" fill="white" stroke="white"/>
</svg>
