<svg width="17" height="17" viewBox="0 0 17 17" fill="none" xmlns="http://www.w3.org/2000/svg">
<path id="Vector" d="M13.6 13.6C14.0509 13.6 14.4833 13.7791 14.8021 14.0979C15.1209 14.4167 15.3 14.8491 15.3 15.3C15.3 15.7509 15.1209 16.1833 14.8021 16.5021C14.4833 16.8209 14.0509 17 13.6 17C13.1491 17 12.7167 16.8209 12.3979 16.5021C12.0791 16.1833 11.9 15.7509 11.9 15.3C11.9 14.3565 12.6565 13.6 13.6 13.6ZM0 0H2.7795L3.5785 1.7H16.15C16.3754 1.7 16.5916 1.78955 16.751 1.94896C16.9104 2.10837 17 2.32457 17 2.55C17 2.6945 16.9575 2.839 16.898 2.975L13.855 8.4745C13.566 8.993 13.005 9.35 12.3675 9.35H6.035L5.27 10.7355L5.2445 10.8375C5.2445 10.8939 5.26689 10.9479 5.30674 10.9878C5.34659 11.0276 5.40064 11.05 5.457 11.05H15.3V12.75H5.1C4.64913 12.75 4.21673 12.5709 3.89792 12.2521C3.57911 11.9333 3.4 11.5009 3.4 11.05C3.4 10.7525 3.4765 10.472 3.604 10.234L4.76 8.1515L1.7 1.7H0V0ZM5.1 13.6C5.55087 13.6 5.98327 13.7791 6.30208 14.0979C6.62089 14.4167 6.8 14.8491 6.8 15.3C6.8 15.7509 6.62089 16.1833 6.30208 16.5021C5.98327 16.8209 5.55087 17 5.1 17C4.64913 17 4.21673 16.8209 3.89792 16.5021C3.57911 16.1833 3.4 15.7509 3.4 15.3C3.4 14.3565 4.1565 13.6 5.1 13.6ZM12.75 7.65L15.113 3.4H4.369L6.375 7.65H12.75Z" fill="white"/>
</svg>
