<svg width="12" height="12" viewBox="0 0 12 12" fill="none" xmlns="http://www.w3.org/2000/svg">
<path id="+" d="M4.3365 10.7115V7.1345H0.9065C0.6615 7.1345 0.449167 7.04467 0.2695 6.865C0.0898334 6.68533 0 6.473 0 6.228V5.591C0 5.346 0.0898334 5.13367 0.2695 4.954C0.449167 4.77433 0.6615 4.6845 0.9065 4.6845H4.3365V1.1565C4.3365 0.9115 4.42633 0.699167 4.606 0.519499C4.78567 0.339833 4.998 0.25 5.243 0.25H6.076C6.321 0.25 6.53333 0.339833 6.713 0.519499C6.89267 0.699167 6.9825 0.9115 6.9825 1.1565V4.6845H10.4615C10.7065 4.6845 10.9188 4.77433 11.0985 4.954C11.2782 5.13367 11.368 5.346 11.368 5.591V6.228C11.368 6.473 11.2782 6.68533 11.0985 6.865C10.9188 7.04467 10.7065 7.1345 10.4615 7.1345H6.9825V10.7115C6.9825 10.9565 6.89267 11.1688 6.713 11.3485C6.53333 11.5282 6.321 11.618 6.076 11.618H5.243C4.998 11.618 4.78567 11.5282 4.606 11.3485C4.42633 11.1688 4.3365 10.9565 4.3365 10.7115Z" fill="#3E595F"/>
</svg>
