<svg width="40" height="40" viewBox="0 0 40 40" fill="none" xmlns="http://www.w3.org/2000/svg">
<g id="left">
<circle id="Ellipse 6" cx="20" cy="20" r="20" fill="#008F32"/>
<path id="Line 5" d="M8.93934 18.9393C8.35355 19.5251 8.35355 20.4749 8.93934 21.0607L18.4853 30.6066C19.0711 31.1924 20.0208 31.1924 20.6066 30.6066C21.1924 30.0208 21.1924 29.0711 20.6066 28.4853L12.1213 20L20.6066 11.5147C21.1924 10.9289 21.1924 9.97919 20.6066 9.3934C20.0208 8.80761 19.0711 8.80761 18.4853 9.3934L8.93934 18.9393ZM30 21.5C30.8284 21.5 31.5 20.8284 31.5 20C31.5 19.1716 30.8284 18.5 30 18.5V21.5ZM10 21.5H30V18.5H10V21.5Z" fill="white"/>
</g>
</svg>
