<svg width="40" height="40" viewBox="0 0 40 40" fill="none" xmlns="http://www.w3.org/2000/svg">
<g id="right">
<circle id="Ellipse 5" cx="20" cy="20" r="20" fill="#008F32"/>
<path id="Line 4" d="M10 18.5C9.17157 18.5 8.5 19.1716 8.5 20C8.5 20.8284 9.17157 21.5 10 21.5V18.5ZM31.0607 21.0607C31.6464 20.4749 31.6464 19.5251 31.0607 18.9393L21.5147 9.3934C20.9289 8.80761 19.9792 8.80761 19.3934 9.3934C18.8076 9.97919 18.8076 10.9289 19.3934 11.5147L27.8787 20L19.3934 28.4853C18.8076 29.0711 18.8076 30.0208 19.3934 30.6066C19.9792 31.1924 20.9289 31.1924 21.5147 30.6066L31.0607 21.0607ZM10 21.5H30V18.5H10V21.5Z" fill="white"/>
</g>
</svg>
