<svg width="236" height="59" viewBox="0 0 236 59" fill="none" xmlns="http://www.w3.org/2000/svg">
<g clip-path="url(#clip0_14_451)">
<mask id="mask0_14_451" style="mask-type:luminance" maskUnits="userSpaceOnUse" x="0" y="0" width="236" height="59">
<path d="M236 0H0V59H236V0Z" fill="white"/>
</mask>
<g mask="url(#mask0_14_451)">
<mask id="mask1_14_451" style="mask-type:luminance" maskUnits="userSpaceOnUse" x="7" y="2" width="43" height="55">
<path d="M49.5436 39.9159C47.8928 50.7329 42.2913 55.6842 28.3673 56.2742C14.4433 56.8642 6.17623 45.843 7.12731 34.4442C8.07839 23.0454 16.6853 16.8622 22.2313 12.0242C27.7773 7.1862 28.2965 5.82684 29.1933 2.7022C44.3858 16.1766 51.1944 29.0976 49.5436 39.9159Z" fill="white"/>
</mask>
<g mask="url(#mask1_14_451)">
<path d="M51.1944 2.7022H6.17505V56.8642H51.1944V2.7022Z" fill="url(#paint0_linear_14_451)"/>
</g>
</g>
<mask id="mask2_14_451" style="mask-type:luminance" maskUnits="userSpaceOnUse" x="0" y="0" width="236" height="59">
<path d="M236 0H0V59H236V0Z" fill="white"/>
</mask>
<g mask="url(#mask2_14_451)">
<path fill-rule="evenodd" clip-rule="evenodd" d="M28.2729 51.9507C24.9583 51.5979 21.3014 50.0934 17.3024 47.4348C19.9562 50.3388 23.4608 52.1949 27.8162 53.0056C27.3371 54.0924 26.8297 55.1827 26.2952 56.2766C26.9713 56.3049 27.6616 56.3049 28.3673 56.2754C28.8652 56.2541 29.3526 56.2282 29.8293 56.1951C31.0246 53.2357 32.0406 50.3329 32.8643 47.4643C37.13 46.4094 40.6334 44.5403 43.3379 41.5266C39.6847 44.3326 36.2851 45.8383 33.1227 46.5427C34.0891 43.0051 34.7605 39.5182 35.1122 36.0431C38.3749 34.9292 41.1219 33.2288 43.3344 30.7638C40.4658 32.9668 37.7542 34.3687 35.19 35.21C35.5287 31.296 35.4603 27.3937 34.9529 23.4466C36.3807 22.4224 37.7613 21.0984 39.0935 19.4735C37.4981 20.8836 36.088 21.9799 34.8608 22.7634C34.2956 18.7691 33.2796 14.7252 31.7775 10.5763C32.4218 13.216 32.9067 15.8002 33.2371 18.3407C31.5497 17.8805 29.2653 16.5578 26.3825 14.3712C28.6434 16.7418 30.9668 18.375 33.3504 19.2706C33.7481 22.7091 33.859 26.0721 33.695 29.3879C29.6169 29.1861 25.0987 27.8386 20.0754 24.0944C23.4408 27.7371 27.9791 29.6475 33.6348 30.4298C33.387 34.1114 32.7982 37.7399 31.8813 41.3578C26.7294 40.9271 21.0053 38.9848 14.9365 34.843C18.9308 38.9801 24.6078 41.5832 31.5533 42.6004C30.6978 45.7144 29.6027 48.8213 28.2729 51.9507Z" fill="#438500"/>
</g>
<mask id="mask3_14_451" style="mask-type:luminance" maskUnits="userSpaceOnUse" x="37" y="19" width="9" height="28">
<mask id="mask4_14_451" style="mask-type:luminance" maskUnits="userSpaceOnUse" x="0" y="0" width="236" height="59">
<path d="M236 0H0V59H236V0Z" fill="white"/>
</mask>
<g mask="url(#mask4_14_451)">
<path d="M45.824 19.2399H37.8071V46.7658H45.824V19.2399Z" fill="url(#paint1_linear_14_451)"/>
</g>
</mask>
<g mask="url(#mask3_14_451)">
<mask id="mask5_14_451" style="mask-type:luminance" maskUnits="userSpaceOnUse" x="0" y="0" width="236" height="59">
<path d="M236 0H0V59H236V0Z" fill="white"/>
</mask>
<g mask="url(#mask5_14_451)">
<path fill-rule="evenodd" clip-rule="evenodd" d="M41.1901 46.5073C39.6951 45.7498 37.9652 43.2328 37.8177 39.9383C37.6702 36.6437 39.1063 32.5727 39.6668 29.1908C40.2273 25.8078 39.9122 23.1138 39.7553 21.5704C39.5983 20.027 39.5983 19.6328 39.5983 19.2399C41.5253 22.3468 43.4534 25.455 44.5343 28.7778C45.6163 32.1019 45.8523 35.6419 45.8228 38.4243C45.7933 41.2068 45.4983 43.2328 44.7219 44.7468C43.9431 46.2619 42.6852 47.2649 41.1901 46.5073Z" fill="white"/>
</g>
</g>
<mask id="mask6_14_451" style="mask-type:luminance" maskUnits="userSpaceOnUse" x="0" y="0" width="236" height="59">
<path d="M236 0H0V59H236V0Z" fill="white"/>
</mask>
<g mask="url(#mask6_14_451)">
<path d="M76.1762 11.1309C74.4687 9.96864 72.5642 9.42348 70.4367 9.42348C65.0193 9.42348 61.6292 12.9363 61.6292 18.775C61.6292 24.6136 65.0181 28.1265 70.4367 28.1265C72.5642 28.1265 74.4687 27.5577 76.1762 26.3942V23.8466C74.5431 25.3558 72.6881 26.1228 70.5853 26.1228C66.4789 26.1228 64.2027 23.5504 64.2027 18.775C64.2027 13.9995 66.4789 11.4271 70.5853 11.4271C72.6881 11.4271 74.5431 12.1941 76.1762 13.7033V11.1309Z" fill="white"/>
</g>
<mask id="mask7_14_451" style="mask-type:luminance" maskUnits="userSpaceOnUse" x="0" y="0" width="236" height="59">
<path d="M236 0H0V59H236V0Z" fill="white"/>
</mask>
<g mask="url(#mask7_14_451)">
<path d="M79.9368 9.74562V27.7796H91.168V25.7264H82.3864V9.74562H79.9368Z" fill="white"/>
</g>
<mask id="mask8_14_451" style="mask-type:luminance" maskUnits="userSpaceOnUse" x="0" y="0" width="236" height="59">
<path d="M236 0H0V59H236V0Z" fill="white"/>
</mask>
<g mask="url(#mask8_14_451)">
<path d="M93.7156 9.74562V27.7796H105.343V25.7264H96.1653V19.1951H104.75V17.1419H96.1653V11.7988H105.12V9.74562H93.7156Z" fill="white"/>
</g>
<mask id="mask9_14_451" style="mask-type:luminance" maskUnits="userSpaceOnUse" x="0" y="0" width="236" height="59">
<path d="M236 0H0V59H236V0Z" fill="white"/>
</mask>
<g mask="url(#mask9_14_451)">
<path d="M115.388 12.1446L118.702 21.1244H112.072L115.388 12.1446ZM114.002 9.74562L107.125 27.7796H109.698L111.331 23.154H119.469L121.102 27.7796H123.65L116.773 9.74562H114.002Z" fill="white"/>
</g>
<mask id="mask10_14_451" style="mask-type:luminance" maskUnits="userSpaceOnUse" x="0" y="0" width="236" height="59">
<path d="M236 0H0V59H236V0Z" fill="white"/>
</mask>
<g mask="url(#mask10_14_451)">
<path d="M126.272 9.74562V27.7796H128.647V12.6885L136.638 27.7796H139.928V9.74562H137.553V24.8355L129.563 9.74562H126.272Z" fill="white"/>
</g>
<mask id="mask11_14_451" style="mask-type:luminance" maskUnits="userSpaceOnUse" x="0" y="0" width="236" height="59">
<path d="M236 0H0V59H236V0Z" fill="white"/>
</mask>
<g mask="url(#mask11_14_451)">
<path d="M164.939 25.2072C163.826 25.8503 162.49 26.1228 160.808 26.1228C156.404 26.1228 154.178 23.6484 154.178 18.775C154.178 13.9016 156.404 11.4271 160.808 11.4271C163.059 11.4271 165.088 12.1941 166.893 13.7281V11.1309C165.235 10.0914 163.133 9.42348 160.61 9.42348C154.969 9.42348 151.605 12.8868 151.605 18.775C151.605 24.6632 154.969 28.1265 160.61 28.1265C163.207 28.1265 165.483 27.4338 167.363 26.0981V18.3549H160.956V20.3585H164.938V25.2072H164.939Z" fill="white"/>
</g>
<mask id="mask12_14_451" style="mask-type:luminance" maskUnits="userSpaceOnUse" x="0" y="0" width="236" height="59">
<path d="M236 0H0V59H236V0Z" fill="white"/>
</mask>
<g mask="url(#mask12_14_451)">
<path d="M179.138 11.4023C182.601 11.4023 184.902 14.1234 184.902 18.775C184.902 23.4254 182.601 26.1476 179.138 26.1476C175.675 26.1476 173.349 23.4265 173.349 18.775C173.35 14.1234 175.675 11.4023 179.138 11.4023ZM179.138 9.42348C174.116 9.42348 170.777 13.0355 170.777 18.775C170.777 24.5393 174.116 28.1265 179.138 28.1265C184.16 28.1265 187.475 24.5145 187.475 18.775C187.476 13.0355 184.16 9.42348 179.138 9.42348Z" fill="white"/>
</g>
<mask id="mask13_14_451" style="mask-type:luminance" maskUnits="userSpaceOnUse" x="0" y="0" width="236" height="59">
<path d="M236 0H0V59H236V0Z" fill="white"/>
</mask>
<g mask="url(#mask13_14_451)">
<path d="M198.608 11.4023C202.071 11.4023 204.372 14.1234 204.372 18.775C204.372 23.4254 202.071 26.1476 198.608 26.1476C195.145 26.1476 192.819 23.4265 192.819 18.775C192.819 14.1234 195.145 11.4023 198.608 11.4023ZM198.608 9.42348C193.586 9.42348 190.247 13.0355 190.247 18.775C190.247 24.5393 193.586 28.1265 198.608 28.1265C203.63 28.1265 206.945 24.5145 206.945 18.775C206.945 13.0355 203.63 9.42348 198.608 9.42348Z" fill="white"/>
</g>
<mask id="mask14_14_451" style="mask-type:luminance" maskUnits="userSpaceOnUse" x="0" y="0" width="236" height="59">
<path d="M236 0H0V59H236V0Z" fill="white"/>
</mask>
<g mask="url(#mask14_14_451)">
<path d="M213.204 11.7493H216.148C221.12 11.7493 223.347 13.9016 223.347 18.7502C223.347 23.5988 221.12 25.7759 216.148 25.7759H213.204V11.7493ZM210.755 9.74562V27.7796H215.777C222.729 27.7796 225.92 24.9594 225.92 18.7502C225.92 12.541 222.73 9.74562 215.777 9.74562H210.755Z" fill="white"/>
</g>
<mask id="mask15_14_451" style="mask-type:luminance" maskUnits="userSpaceOnUse" x="0" y="0" width="236" height="59">
<path d="M236 0H0V59H236V0Z" fill="white"/>
</mask>
<g mask="url(#mask15_14_451)">
<path d="M58.6023 37.852H60.1469V42.9154C60.849 42.9154 61.3446 42.7785 61.629 42.5071C61.9157 42.2357 62.2792 41.5856 62.724 40.5531C63.0462 39.792 63.3117 39.2574 63.5229 38.9459C63.7318 38.632 64.0291 38.3677 64.4173 38.1553C64.802 37.9429 65.2304 37.8355 65.6965 37.8355C66.29 37.8355 66.6015 37.8414 66.6334 37.852V39.1748C66.5791 39.1748 66.4764 39.1725 66.3242 39.1666C66.1531 39.1607 66.0505 39.1583 66.0127 39.1583C65.5218 39.1583 65.156 39.2763 64.9177 39.5135C64.6734 39.7495 64.3973 40.2557 64.0834 41.0262C63.6928 42.0045 63.3624 42.6228 63.0922 42.8777C62.8243 43.1302 62.4987 43.3343 62.1246 43.4877C62.8751 43.6919 63.6173 44.3822 64.3489 45.5551L66.7467 49.3983H64.8339L62.881 46.2702C62.3476 45.4017 61.9004 44.8058 61.5429 44.4825C61.183 44.1568 60.7192 43.9963 60.1481 43.9963V49.3983H58.6035V37.852H58.6023Z" fill="white"/>
</g>
<mask id="mask16_14_451" style="mask-type:luminance" maskUnits="userSpaceOnUse" x="0" y="0" width="236" height="59">
<path d="M236 0H0V59H236V0Z" fill="white"/>
</mask>
<g mask="url(#mask16_14_451)">
<path d="M68.5591 41.0298H75.2073V49.3913H73.7771V42.2074H69.9893V46.3705C69.9893 47.3404 69.9563 47.98 69.8949 48.2927C69.83 48.6018 69.6565 48.8709 69.3722 49.1022C69.0854 49.3334 68.6736 49.4491 68.1343 49.4491C67.8016 49.4491 67.4169 49.4278 66.9827 49.3877V48.2077H67.6081C67.9031 48.2077 68.1143 48.1782 68.2417 48.1169C68.3692 48.0579 68.4529 47.9611 68.4966 47.8289C68.5367 47.6968 68.5591 47.2696 68.5591 46.5475V41.0298Z" fill="white"/>
</g>
<mask id="mask17_14_451" style="mask-type:luminance" maskUnits="userSpaceOnUse" x="0" y="0" width="236" height="59">
<path d="M236 0H0V59H236V0Z" fill="white"/>
</mask>
<g mask="url(#mask17_14_451)">
<path d="M77.3455 41.0298H78.7756V47.4124L82.7499 41.0298H84.2862V49.3995H82.8561V43.0558L78.8865 49.3995H77.3455V41.0298Z" fill="white"/>
</g>
<mask id="mask18_14_451" style="mask-type:luminance" maskUnits="userSpaceOnUse" x="0" y="0" width="236" height="59">
<path d="M236 0H0V59H236V0Z" fill="white"/>
</mask>
<g mask="url(#mask18_14_451)">
<path d="M86.4268 41.0298H87.8569V44.5131H91.8241V41.0298H93.2542V49.3995H91.8241V45.6896H87.8569V49.3995H86.4268V41.0298Z" fill="white"/>
</g>
<mask id="mask19_14_451" style="mask-type:luminance" maskUnits="userSpaceOnUse" x="0" y="0" width="236" height="59">
<path d="M236 0H0V59H236V0Z" fill="white"/>
</mask>
<g mask="url(#mask19_14_451)">
<path d="M95.4031 41.0298H96.8332V47.4124L100.807 41.0298H102.344V49.3995H100.914V43.0558L96.9442 49.3995H95.4031V41.0298Z" fill="white"/>
</g>
<mask id="mask20_14_451" style="mask-type:luminance" maskUnits="userSpaceOnUse" x="0" y="0" width="236" height="59">
<path d="M236 0H0V59H236V0Z" fill="white"/>
</mask>
<g mask="url(#mask20_14_451)">
<path d="M104.484 41.0298H105.915V44.5131H109.882V41.0298H111.312V49.3995H109.882V45.6896H105.915V49.3995H104.484V41.0298Z" fill="white"/>
</g>
<mask id="mask21_14_451" style="mask-type:luminance" maskUnits="userSpaceOnUse" x="0" y="0" width="236" height="59">
<path d="M236 0H0V59H236V0Z" fill="white"/>
</mask>
<g mask="url(#mask21_14_451)">
<path d="M113.46 41.0298H118.321V42.2062H114.891V49.3995H113.46V41.0298Z" fill="white"/>
</g>
<mask id="mask22_14_451" style="mask-type:luminance" maskUnits="userSpaceOnUse" x="0" y="0" width="236" height="59">
<path d="M236 0H0V59H236V0Z" fill="white"/>
</mask>
<g mask="url(#mask22_14_451)">
<path d="M119.958 45.2164C119.958 46.2867 120.194 47.0867 120.664 47.6165C121.139 48.1487 121.732 48.4142 122.45 48.4142C123.16 48.4142 123.75 48.1487 124.224 47.613C124.695 47.0785 124.931 46.2643 124.931 45.1704C124.931 44.1379 124.693 43.3567 124.219 42.8269C123.744 42.2947 123.154 42.0292 122.45 42.0292C121.732 42.0292 121.139 42.2924 120.664 42.8222C120.192 43.352 119.958 44.1497 119.958 45.2164ZM118.494 45.2141C118.494 43.6683 118.927 42.5237 119.797 41.7791C120.52 41.1608 121.407 40.8516 122.45 40.8516C123.606 40.8516 124.555 41.228 125.292 41.9809C126.026 42.7313 126.394 43.7709 126.394 45.0961C126.394 46.171 126.232 47.0147 125.907 47.6307C125.583 48.2467 125.108 48.7246 124.485 49.0656C123.865 49.4066 123.185 49.5765 122.451 49.5765C121.27 49.5765 120.316 49.2025 119.587 48.4532C118.857 47.7027 118.494 46.623 118.494 45.2141Z" fill="white"/>
</g>
<mask id="mask23_14_451" style="mask-type:luminance" maskUnits="userSpaceOnUse" x="0" y="0" width="236" height="59">
<path d="M236 0H0V59H236V0Z" fill="white"/>
</mask>
<g mask="url(#mask23_14_451)">
<path d="M129.501 48.2384H131.379C132.186 48.2384 132.742 48.144 133.043 47.9587C133.344 47.7711 133.5 47.4513 133.517 46.9911C133.517 46.7256 133.431 46.4755 133.257 46.2466C133.082 46.0176 132.854 45.8725 132.574 45.8135C132.295 45.7521 131.845 45.7226 131.228 45.7226H129.501V48.2384ZM129.501 44.5615H131.019C131.623 44.5615 132.041 44.5296 132.265 44.4671C132.493 44.4022 132.696 44.2759 132.875 44.0824C133.054 43.8913 133.143 43.66 133.143 43.3921C133.143 42.9485 132.986 42.6417 132.674 42.467C132.361 42.2924 131.824 42.2062 131.065 42.2062H129.501V44.5615ZM128.071 41.0298H131.363C132.171 41.0298 132.772 41.097 133.168 41.2316C133.561 41.3661 133.899 41.6103 134.181 41.9679C134.466 42.3278 134.607 42.7549 134.607 43.2553C134.607 43.6553 134.524 44.0045 134.358 44.3007C134.191 44.5993 133.941 44.8494 133.605 45.0477C134.001 45.1798 134.329 45.4241 134.592 45.784C134.852 46.1415 134.983 46.5687 134.983 47.0608C134.931 47.8537 134.644 48.4425 134.126 48.8237C133.608 49.2084 132.855 49.3983 131.869 49.3983H128.072V41.0298H128.071Z" fill="white"/>
</g>
<mask id="mask24_14_451" style="mask-type:luminance" maskUnits="userSpaceOnUse" x="0" y="0" width="236" height="59">
<path d="M236 0H0V59H236V0Z" fill="white"/>
</mask>
<g mask="url(#mask24_14_451)">
<path d="M141.925 45.2058C141.404 45.4158 140.624 45.5928 139.584 45.738C138.992 45.8218 138.576 45.915 138.332 46.02C138.087 46.125 137.901 46.2784 137.767 46.4767C137.634 46.6784 137.567 46.9015 137.567 47.1481C137.567 47.5221 137.711 47.836 138 48.0862C138.29 48.3363 138.713 48.4626 139.268 48.4626C139.818 48.4626 140.309 48.3446 140.74 48.1051C141.168 47.8691 141.484 47.5434 141.685 47.1316C141.84 46.8118 141.915 46.341 141.915 45.7203L141.925 45.2058ZM142.038 48.3505C141.507 48.7989 140.995 49.114 140.504 49.2992C140.013 49.4845 139.488 49.5765 138.924 49.5765C137.998 49.5765 137.285 49.3535 136.786 48.9051C136.288 48.4591 136.038 47.8868 136.038 47.1906C136.038 46.7823 136.132 46.4082 136.32 46.0696C136.51 45.7309 136.756 45.4619 137.059 45.2577C137.365 45.0536 137.707 44.8978 138.09 44.7928C138.372 44.7208 138.796 44.65 139.363 44.5804C140.517 44.4459 141.37 44.2819 141.915 44.0942C141.921 43.9007 141.923 43.7768 141.923 43.7261C141.923 43.1514 141.788 42.7455 141.518 42.5083C141.152 42.1885 140.608 42.0304 139.887 42.0304C139.212 42.0304 138.714 42.1484 138.394 42.3821C138.072 42.6157 137.836 43.0299 137.681 43.627L136.283 43.4334C136.41 42.8399 136.619 42.3585 136.912 41.9927C137.205 41.6269 137.627 41.3472 138.18 41.149C138.73 40.9531 139.372 40.8528 140.099 40.8528C140.82 40.8528 141.408 40.9366 141.86 41.1053C142.309 41.274 142.643 41.4841 142.854 41.7401C143.066 41.995 143.214 42.3183 143.302 42.7077C143.348 42.9496 143.372 43.3851 143.372 44.0116V45.8926C143.372 47.2071 143.402 48.0378 143.462 48.3894C143.519 48.7411 143.638 49.0774 143.811 49.3995H142.316C142.171 49.101 142.079 48.7517 142.038 48.3505Z" fill="white"/>
</g>
<mask id="mask25_14_451" style="mask-type:luminance" maskUnits="userSpaceOnUse" x="0" y="0" width="236" height="59">
<path d="M236 0H0V59H236V0Z" fill="white"/>
</mask>
<g mask="url(#mask25_14_451)">
<path d="M150.786 42.2062H148.754C147.903 42.2062 147.354 42.3384 147.107 42.6015C146.86 42.8647 146.739 43.1738 146.739 43.5267C146.739 44.027 146.921 44.3951 147.284 44.6288C147.644 44.8624 148.287 44.9804 149.207 44.9804H150.787V42.2062H150.786ZM152.216 41.0298V49.3995H150.786V46.1415H149.963C149.461 46.1415 149.087 46.2064 148.84 46.3374C148.594 46.4696 148.234 46.8802 147.76 47.5764L146.503 49.3983H144.73L146.275 47.1516C146.747 46.4637 147.218 46.0766 147.686 45.9881C146.871 45.8784 146.264 45.5846 145.868 45.1114C145.473 44.6382 145.274 44.0931 145.274 43.4771C145.274 42.749 145.532 42.1602 146.05 41.7083C146.568 41.254 147.318 41.0286 148.299 41.0286H152.216V41.0298Z" fill="white"/>
</g>
<mask id="mask26_14_451" style="mask-type:luminance" maskUnits="userSpaceOnUse" x="0" y="0" width="236" height="59">
<path d="M236 0H0V59H236V0Z" fill="white"/>
</mask>
<g mask="url(#mask26_14_451)">
<path d="M158.871 41.0298H160.301V44.6418C160.756 44.6418 161.076 44.5556 161.26 44.381C161.442 44.2087 161.71 43.706 162.067 42.8706C162.349 42.2098 162.577 41.7743 162.75 41.5643C162.926 41.3543 163.127 41.2127 163.355 41.1395C163.585 41.0664 163.95 41.0298 164.452 41.0298H164.739V42.1992L164.34 42.1909C163.963 42.1909 163.722 42.2475 163.617 42.3573C163.506 42.4729 163.335 42.8163 163.107 43.3898C162.89 43.9385 162.693 44.3173 162.511 44.5261C162.332 44.7362 162.053 44.9261 161.677 45.1008C162.291 45.2648 162.899 45.8324 163.495 46.8047L165.063 49.3983H163.491L161.944 46.813C161.633 46.289 161.362 45.9445 161.131 45.7781C160.899 45.6117 160.622 45.5279 160.3 45.5279V49.3983H158.869V41.0298H158.871Z" fill="white"/>
</g>
<mask id="mask27_14_451" style="mask-type:luminance" maskUnits="userSpaceOnUse" x="0" y="0" width="236" height="59">
<path d="M236 0H0V59H236V0Z" fill="white"/>
</mask>
<g mask="url(#mask27_14_451)">
<path d="M167.107 45.2164C167.107 46.2867 167.343 47.0867 167.814 47.6165C168.288 48.1487 168.882 48.4142 169.599 48.4142C170.309 48.4142 170.899 48.1487 171.374 47.613C171.844 47.0785 172.08 46.2643 172.08 45.1704C172.08 44.1379 171.842 43.3567 171.368 42.8269C170.893 42.2947 170.303 42.0292 169.599 42.0292C168.882 42.0292 168.288 42.2924 167.814 42.8222C167.343 43.352 167.107 44.1497 167.107 45.2164ZM165.645 45.2141C165.645 43.6683 166.078 42.5237 166.947 41.7791C167.671 41.1608 168.557 40.8516 169.6 40.8516C170.757 40.8516 171.705 41.228 172.443 41.9809C173.177 42.7313 173.545 43.7709 173.545 45.0961C173.545 46.171 173.382 47.0147 173.058 47.6307C172.732 48.2467 172.259 48.7246 171.636 49.0656C171.015 49.4066 170.335 49.5765 169.601 49.5765C168.42 49.5765 167.467 49.2025 166.737 48.4532C166.007 47.7027 165.645 46.623 165.645 45.2141Z" fill="white"/>
</g>
<mask id="mask28_14_451" style="mask-type:luminance" maskUnits="userSpaceOnUse" x="0" y="0" width="236" height="59">
<path d="M236 0H0V59H236V0Z" fill="white"/>
</mask>
<g mask="url(#mask28_14_451)">
<path d="M175.27 41.0298H177.471L179.7 47.7275L182.168 41.0298H184.211V49.3995H182.781V42.6605L180.296 49.3995H179.018L176.668 42.3384V49.3995H175.27V41.0298Z" fill="white"/>
</g>
<mask id="mask29_14_451" style="mask-type:luminance" maskUnits="userSpaceOnUse" x="0" y="0" width="236" height="59">
<path d="M236 0H0V59H236V0Z" fill="white"/>
</mask>
<g mask="url(#mask29_14_451)">
<path d="M186.397 41.0298H193.062V49.3995H191.632V42.2062H187.828V49.3995H186.397V41.0298Z" fill="white"/>
</g>
<mask id="mask30_14_451" style="mask-type:luminance" maskUnits="userSpaceOnUse" x="0" y="0" width="236" height="59">
<path d="M236 0H0V59H236V0Z" fill="white"/>
</mask>
<g mask="url(#mask30_14_451)">
<path d="M200.598 45.2058C200.077 45.4158 199.297 45.5928 198.257 45.738C197.665 45.8218 197.249 45.915 197.005 46.02C196.76 46.125 196.574 46.2784 196.441 46.4767C196.307 46.6784 196.24 46.9015 196.24 47.1481C196.24 47.5221 196.384 47.836 196.673 48.0862C196.963 48.3363 197.386 48.4626 197.942 48.4626C198.491 48.4626 198.982 48.3446 199.413 48.1051C199.841 47.8691 200.158 47.5434 200.358 47.1316C200.513 46.8118 200.588 46.341 200.588 45.7203L200.598 45.2058ZM200.711 48.3505C200.18 48.7989 199.668 49.114 199.177 49.2992C198.686 49.4845 198.161 49.5765 197.597 49.5765C196.671 49.5765 195.958 49.3535 195.459 48.9051C194.961 48.4591 194.711 47.8868 194.711 47.1906C194.711 46.7823 194.805 46.4082 194.993 46.0696C195.183 45.7309 195.429 45.4619 195.733 45.2577C196.038 45.0536 196.38 44.8978 196.762 44.7928C197.044 44.7208 197.468 44.65 198.035 44.5804C199.189 44.4459 200.042 44.2819 200.587 44.0942C200.593 43.9007 200.595 43.7768 200.595 43.7261C200.595 43.1514 200.46 42.7455 200.189 42.5083C199.824 42.1885 199.28 42.0304 198.559 42.0304C197.884 42.0304 197.386 42.1484 197.066 42.3821C196.744 42.6157 196.508 43.0299 196.353 43.627L194.955 43.4334C195.082 42.8399 195.291 42.3585 195.584 41.9927C195.877 41.6269 196.299 41.3472 196.852 41.149C197.402 40.9531 198.044 40.8528 198.771 40.8528C199.492 40.8528 200.08 40.9366 200.532 41.1053C200.981 41.274 201.315 41.4841 201.526 41.7401C201.738 41.995 201.886 42.3183 201.974 42.7077C202.02 42.9496 202.044 43.3851 202.044 44.0116V45.8926C202.044 47.2071 202.074 48.0378 202.134 48.3894C202.191 48.7411 202.31 49.0774 202.483 49.3995H200.988C200.844 49.101 200.751 48.7517 200.711 48.3505Z" fill="white"/>
</g>
<mask id="mask31_14_451" style="mask-type:luminance" maskUnits="userSpaceOnUse" x="0" y="0" width="236" height="59">
<path d="M236 0H0V59H236V0Z" fill="white"/>
</mask>
<g mask="url(#mask31_14_451)">
<path d="M204.241 41.0298H205.672V44.5131H209.638V41.0298H211.069V49.3995H209.638V45.6896H205.672V49.3995H204.241V41.0298Z" fill="white"/>
</g>
<mask id="mask32_14_451" style="mask-type:luminance" maskUnits="userSpaceOnUse" x="0" y="0" width="236" height="59">
<path d="M236 0H0V59H236V0Z" fill="white"/>
</mask>
<g mask="url(#mask32_14_451)">
<path d="M213.218 41.0298H214.648V47.4124L218.622 41.0298H220.159V49.3995H218.728V43.0558L214.759 49.3995H213.218V41.0298Z" fill="white"/>
</g>
<mask id="mask33_14_451" style="mask-type:luminance" maskUnits="userSpaceOnUse" x="0" y="0" width="236" height="59">
<path d="M236 0H0V59H236V0Z" fill="white"/>
</mask>
<g mask="url(#mask33_14_451)">
<path d="M227.517 42.2062H225.485C224.634 42.2062 224.084 42.3384 223.838 42.6015C223.591 42.8647 223.47 43.1738 223.47 43.5267C223.47 44.027 223.651 44.3951 224.015 44.6288C224.375 44.8624 225.018 44.9804 225.938 44.9804H227.518V42.2062H227.517ZM228.947 41.0298V49.3995H227.517V46.1415H226.693C226.192 46.1415 225.818 46.2064 225.571 46.3374C225.324 46.4696 224.965 46.8802 224.49 47.5764L223.234 49.3983H221.461L223.006 47.1516C223.478 46.4637 223.949 46.0766 224.417 45.9881C223.602 45.8784 222.995 45.5846 222.599 45.1114C222.203 44.6382 222.005 44.0931 222.005 43.4771C222.005 42.749 222.262 42.1602 222.78 41.7083C223.298 41.254 224.049 41.0286 225.03 41.0286H228.947V41.0298Z" fill="white"/>
</g>
</g>
<defs>
<linearGradient id="paint0_linear_14_451" x1="6.22649" y1="36.8068" x2="47.9867" y2="23.7478" gradientUnits="userSpaceOnUse">
<stop stop-color="#237507"/>
<stop offset="0.5422" stop-color="#78BC15"/>
<stop offset="1" stop-color="#C3FA22"/>
</linearGradient>
<linearGradient id="paint1_linear_14_451" x1="37.807" y1="33.0025" x2="45.8243" y2="33.0025" gradientUnits="userSpaceOnUse">
<stop/>
<stop offset="1" stop-color="#A9A9A9"/>
</linearGradient>
<clipPath id="clip0_14_451">
<rect width="236" height="59" fill="white"/>
</clipPath>
</defs>
</svg>
