<svg width="100" height="100" viewBox="0 0 100 100" fill="none" xmlns="http://www.w3.org/2000/svg">
<g id="employees-svgrepo-com 1">
<g id="Group">
<g id="XMLID_145_">
<g id="Group_2">
<path id="Vector" d="M53.9661 30.8269C54.0075 31.4704 53.9869 31.8442 53.9869 31.8442C42.6305 31.8442 34.0767 25.7819 34.0767 25.7819C34.0767 30.9722 15.9312 31.8442 15.9312 31.8442C15.9312 31.8442 15.0176 10.2108 34.9485 10.2108C42.2981 10.2108 46.8032 13.159 49.5852 16.8961C53.3223 21.9202 53.9038 28.3562 53.9661 30.8269Z" fill="#D4D4D4"/>
<path id="Vector_2" d="M64.3671 10.2108C84.2565 10.2108 83.3845 31.8442 83.3845 31.8442C72.0281 31.8442 63.4951 25.7819 63.4951 25.7819C63.4951 28.4601 58.6578 29.9757 53.9864 30.8269H53.9656C53.9033 28.3562 53.322 21.9202 49.585 16.8959L49.834 16.7091C52.6162 13.0759 57.1006 10.2108 64.3671 10.2108Z" fill="#D4D4D4"/>
<path id="Vector_3" d="M67.8138 85.4503C67.8138 85.4503 67.793 78.9104 58.4297 73.72L60.0283 69.0278L60.1114 68.8202C61.5024 69.4223 63.205 69.8998 65.0527 69.8998C66.4851 69.8998 67.731 69.6091 68.7481 69.194L71.281 76.8136L67.8138 87.1734C67.8138 86.1146 67.8138 85.4503 67.8138 85.4503Z" fill="#D4D4D4"/>
<path id="Vector_4" d="M39.267 69.0279L41.8622 76.8134L37.5439 89.7893H32.3535L28.0352 76.8134L30.6303 69.0279L30.6926 68.9033C31.9176 69.4846 33.3501 69.8999 34.9487 69.8999C36.5473 69.8999 37.9798 69.4846 39.2048 68.9033L39.267 69.0279Z" fill="#D4D4D4"/>
<path id="Vector_5" d="M56.0624 66.2667C56.0624 66.2667 57.6402 67.7408 60.1108 68.8205L60.0277 69.0281L58.4291 73.7203C56.4983 72.6406 54.1938 71.6441 51.391 70.7515C51.391 70.7515 50.8303 70.4607 50 69.9834C51.8271 68.9864 54.7545 67.72 56.0624 66.2667Z" fill="#D4D4D4"/>
<path id="Vector_6" d="M67.8135 87.1735L71.2807 76.8136L68.7477 69.1941C71.3637 68.1353 72.6716 66.2667 72.6716 66.2667C74.561 68.3844 81.4952 70.7513 81.4952 70.7513C97.876 75.9416 97.9174 85.4503 97.9174 85.4503C97.9174 85.4503 97.9174 87.3603 97.9174 89.7895H67.8135C67.8135 88.7928 67.8135 87.9001 67.8135 87.1735Z" fill="#D4D4D4"/>
<path id="Vector_7" d="M58.4299 73.7201C67.7932 78.9104 67.8141 85.4503 67.8141 85.4503C67.8141 85.4503 67.8141 86.1147 67.8141 87.1735L66.9421 89.7895H37.5439L41.8623 76.8136L39.2671 69.0281L39.2049 68.9035C41.9246 67.6163 43.6063 65.5609 43.6063 65.5609C44.9142 67.035 48.1323 68.945 50.0008 69.9832C50.8314 70.4607 51.3918 70.7513 51.3918 70.7513C54.1946 71.6439 56.4993 72.6404 58.4299 73.7201Z" fill="#D4D4D4"/>
<path id="Vector_8" d="M28.0348 76.8134L32.3531 89.7893H2.08301C2.08301 87.3601 2.08301 85.4501 2.08301 85.4501C2.08301 85.4501 2.2492 76.0036 18.5261 70.751C18.5261 70.751 24.4016 67.6783 26.2908 65.5607C26.2908 65.5607 27.9725 67.616 30.6922 68.9033L30.63 69.0278L28.0348 76.8134Z" fill="#D4D4D4"/>
<path id="Vector_9" d="M26.4156 60.1212C28.907 61.4085 31.7721 62.1143 34.9485 62.1143C38.125 62.1143 40.9901 61.4085 43.4815 60.1212L43.6061 60.3703V65.5606C43.6061 65.5606 41.9243 67.616 39.2046 68.9033C37.9796 69.4846 36.5472 69.8998 34.9485 69.8998C33.3499 69.8998 31.9175 69.4846 30.6925 68.9033C27.9727 67.616 26.291 65.5606 26.291 65.5606V60.3703L26.4156 60.1212Z" fill="#D4D4D4"/>
<path id="Vector_10" d="M68.7476 69.1941C67.7303 69.6094 66.4847 69.8999 65.0522 69.8999C63.2045 69.8999 61.5019 69.4223 60.1109 68.8202C57.6403 67.7406 56.0625 66.2665 56.0625 66.2665V60.225C58.4917 61.45 61.2943 62.1143 64.367 62.1143C67.4397 62.1143 70.2426 61.45 72.6715 60.225V66.2665C72.6715 66.2665 71.3636 68.1353 68.7476 69.1941Z" fill="#D4D4D4"/>
<path id="Vector_11" d="M88.5751 39.6089C88.5751 41.9965 86.2498 44.7993 83.3847 44.7993L83.1562 44.7579C83.3016 43.6576 83.3847 42.5157 83.3847 41.353V36.1626C86.2496 36.1626 88.5751 37.2214 88.5751 39.6089Z" fill="#D4D4D4"/>
<path id="Vector_12" d="M15.9306 41.353C15.9306 42.5157 16.0137 43.6574 16.1591 44.7579L15.9306 44.7993C13.0655 44.7993 10.7402 41.9965 10.7402 39.6089C10.7402 37.2214 13.0655 36.1626 15.9306 36.1626V41.353Z" fill="#D4D4D4"/>
<path id="Vector_13" d="M59.1766 39.6089C59.1766 41.9965 56.8514 44.7993 53.9863 44.7993L53.7578 44.7579C53.9032 43.6576 53.9863 42.5157 53.9863 41.353V36.1626C56.8514 36.1626 59.1766 37.2214 59.1766 39.6089Z" fill="#D4D4D4"/>
<path id="Vector_14" d="M72.6713 60.2252C70.2423 61.4502 67.4395 62.1145 64.3668 62.1145C61.2941 62.1145 58.4913 61.4502 56.0623 60.2252C53.6125 59.0418 51.5155 57.2978 49.8339 55.1594L49.6055 54.9725C51.8062 52.1489 53.218 48.6403 53.7578 44.7578L53.9863 44.7993C56.8514 44.7993 59.1767 41.9965 59.1767 39.6089C59.1767 37.2214 56.8514 36.1626 53.9863 36.1626V31.8442C53.9863 31.8442 54.0071 31.4706 53.9655 30.8268H53.9863C58.6577 29.9757 63.495 28.4601 63.495 25.7819C63.495 25.7819 72.028 31.8442 83.3844 31.8442V36.1626V41.3529C83.3844 42.5157 83.3013 43.6574 83.156 44.7578C82.2217 51.6714 78.4223 57.4224 72.6713 60.2252Z" fill="#D4D4D4"/>
<path id="Vector_15" d="M53.9867 36.1626V41.353C53.9867 42.5157 53.9036 43.6574 53.7583 44.7579C53.2184 48.6403 51.8066 52.1489 49.6059 54.9726C47.9864 57.1319 45.9105 58.8965 43.4813 60.1215C40.9898 61.4088 38.1247 62.1146 34.9483 62.1146C31.7718 62.1146 28.9068 61.4088 26.4153 60.1215C20.8097 57.2772 17.0934 51.5679 16.1591 44.7581C16.0138 43.6578 15.9307 42.5159 15.9307 41.3532V36.1628V31.8445C15.9307 31.8445 34.0761 30.9725 34.0761 25.7821C34.0761 25.7821 42.6297 31.8445 53.9863 31.8445V36.1626H53.9867Z" fill="#D4D4D4"/>
</g>
<g id="Group_3">
<path id="Vector_16" d="M58.3041 79.9214H46.2002V84.0867H58.3041V79.9214Z" fill="#231F20"/>
<path id="Vector_17" d="M82.1472 68.7732C79.8115 67.9732 76.2954 66.4889 74.754 65.3445V61.4779C80.0087 58.4699 83.6365 53.2009 84.9394 46.698C88.2979 45.896 90.6573 42.599 90.6573 39.6091C90.6573 36.8134 88.6781 34.8424 85.4669 34.2597V31.8819C85.4955 31.0076 85.6866 20.65 79.1536 13.8486C75.5077 10.0527 70.5327 8.12817 64.3669 8.12817C58.2116 8.12817 53.2683 10.0184 49.6385 13.7523C46.0138 10.019 41.0853 8.12817 34.9479 8.12817C28.7627 8.12817 23.7771 10.0573 20.1297 13.8621C13.6155 20.6571 13.8173 30.9862 13.8479 31.8825V34.2597C10.6369 34.8424 8.65753 36.8134 8.65753 39.6091C8.65753 42.5998 11.0182 45.8981 14.3783 46.6989C15.6612 53.0455 19.163 58.2383 24.2078 61.2767V64.6854C22.6995 65.9962 19.6183 67.8176 17.7133 68.8252C0.390911 74.4836 0.00812229 84.9686 0.000416528 85.4137C0.000208264 85.4257 0 85.438 0 85.4501V89.7893C0 90.9395 0.932606 91.8719 2.08264 91.8719H97.9174C99.0674 91.8719 100 90.9395 100 89.7893V85.4412C99.9979 84.9911 99.7501 74.3596 82.1472 68.7732ZM34.9481 64.197C37.2622 64.197 39.4641 63.8563 41.5228 63.1871V64.7408C40.9276 65.3297 39.7986 66.3177 38.3112 67.0217C36.0863 68.0776 33.811 68.0782 31.5828 67.0208C30.0995 66.3188 28.9691 65.3293 28.373 64.7399V63.1861C30.4359 63.8569 32.636 64.197 34.9481 64.197ZM56.069 38.5399C56.6372 38.7367 57.0941 39.0641 57.0941 39.6091C57.0941 40.265 56.6942 41.1051 56.0624 41.7474C56.0642 41.616 56.069 38.5399 56.069 38.5399ZM49.6578 58.1171C50.9551 59.4521 52.4009 60.5761 53.9797 61.4787V65.3558C53.0548 66.073 51.5607 66.8349 50.4119 67.4205C50.2859 67.4848 50.1616 67.5482 50.0394 67.6108C48.1171 66.4979 46.5818 65.4649 45.6881 64.686V61.2786C47.1464 60.4028 48.4734 59.3459 49.6578 58.1171ZM70.5888 65.4982C70.1227 65.9789 69.2402 66.7478 67.9607 67.2658C67.0639 67.6317 66.0853 67.8172 65.0519 67.8172C63.7146 67.8172 62.3305 67.5117 60.9445 66.9119C59.7201 66.3769 58.7448 65.7256 58.145 65.2772V63.2944C60.0998 63.8929 62.1811 64.1968 64.3669 64.1968C66.5528 64.1968 68.634 63.8929 70.5888 63.2944V65.4982ZM56.1207 68.9523C56.5243 69.234 57.0031 69.544 57.5458 69.8549L57.2322 70.7752C56.4741 70.4222 55.6829 70.0856 54.8544 69.7643C55.2937 69.5056 55.7212 69.2363 56.1207 68.9523ZM30.2295 76.814L31.9739 71.581C33.9416 72.1029 35.9555 72.1027 37.9221 71.5812L39.6666 76.814L36.0415 87.7068H33.8548L30.2295 76.814ZM43.8373 76.1549L41.7417 69.8686C42.4996 69.3828 43.1519 68.8748 43.6775 68.4179C45.2472 69.6364 47.2999 70.8648 48.9749 71.7959C49.8276 72.2859 50.4078 72.5873 50.4321 72.6C50.5371 72.6544 50.6462 72.6998 50.7587 72.7356C53.3262 73.5534 55.5028 74.47 57.4192 75.5415C65.362 79.9444 65.716 85.1383 65.7304 85.4768V86.8353L65.4398 87.7066H40.4313L43.8377 77.4711C43.9799 77.0439 43.9799 76.582 43.8373 76.1549ZM60.9457 72.791L61.3939 71.4762C62.6166 71.8119 63.8406 71.9827 65.0521 71.9827C65.8547 71.9827 66.6399 71.9067 67.4013 71.7578L69.0851 76.8113L68.0708 79.842C66.7952 77.654 64.6276 75.1177 60.9457 72.791ZM81.3019 41.3529C81.3019 42.373 81.231 43.4268 81.0921 44.479C80.2349 50.8231 76.8329 55.8802 71.7592 58.3531C71.7507 58.3573 71.7423 58.3614 71.7338 58.3656C69.5414 59.4713 67.0629 60.0317 64.3671 60.0317C61.6713 60.0317 59.1928 59.4711 57.0004 58.3656C56.9897 58.3604 56.9791 58.3552 56.9685 58.35C55.2087 57.4998 53.6355 56.3088 52.2719 54.8103C53.815 52.4353 54.9244 49.6829 55.5352 46.6999C58.8972 45.9006 61.2596 42.6011 61.2596 39.6093C61.2596 36.8136 59.2804 34.8426 56.0692 34.2599V32.5386C59.233 31.8586 62.6572 30.7725 64.4052 28.7896C67.4806 30.5232 73.6457 33.4043 81.3021 33.8642V41.3529H81.3019ZM86.4922 39.6091C86.4922 40.265 86.0923 41.1051 85.4605 41.7474C85.4623 41.616 85.4671 38.5399 85.4671 38.5399C86.0351 38.7367 86.4922 39.0639 86.4922 39.6091ZM64.3669 12.2935C69.3454 12.2935 73.3041 13.7815 76.1327 16.7164C80.0071 20.7361 80.9874 26.5954 81.2294 29.6814C71.7857 29.0041 64.7732 24.1351 64.7009 24.0841C64.0655 23.633 63.2314 23.5739 62.5394 23.9314C61.8471 24.2888 61.412 25.003 61.412 25.7821C61.412 26.0537 60.3615 27.2339 55.8774 28.3052C55.5534 25.3381 54.6553 21.0116 52.2293 17.091C55.0968 13.9094 59.1713 12.2935 64.3669 12.2935ZM23.1367 16.7445C25.968 13.7909 29.9421 12.2932 34.9481 12.2932C40.6639 12.2932 45.0267 14.2601 47.9138 18.1388C50.8503 22.0869 51.6209 27.101 51.82 29.6802C42.3777 28.9998 35.3526 24.1335 35.2803 24.0824C34.6449 23.6322 33.811 23.5741 33.1198 23.9314C32.4279 24.289 31.9935 25.0028 31.9935 25.7815C31.9935 26.0822 30.6866 27.548 24.6482 28.7065C22.2293 29.1707 19.783 29.4448 18.0823 29.5973C18.3226 26.5054 19.299 20.7477 23.1367 16.7445ZM13.8479 38.5399C13.8479 38.5399 13.8527 41.616 13.8545 41.7474C13.2227 41.1051 12.8228 40.265 12.8228 39.6091C12.8228 39.0639 13.2799 38.7367 13.8479 38.5399ZM18.2237 44.485C18.084 43.4283 18.0132 42.3745 18.0132 41.3529V33.7863C19.8059 33.6359 22.5848 33.3419 25.394 32.8049C27.4234 32.4172 32.6137 31.4254 34.9667 28.7761C38.0388 30.5078 44.2255 33.4027 51.9035 33.8638V41.3527C51.9035 42.3728 51.8327 43.4266 51.6951 44.4709C51.2044 48.0001 49.9136 51.1888 47.9628 53.6919C47.9548 53.7021 47.9471 53.7124 47.9394 53.7226C46.4847 55.6623 44.6691 57.1893 42.525 58.2708C40.2637 59.4392 37.7143 60.0315 34.9479 60.0315C32.1814 60.0315 29.6322 59.4392 27.3573 58.2638C22.4098 55.7535 19.0799 50.7275 18.2237 44.485ZM4.16528 85.4972C4.18006 85.2745 4.35459 83.401 6.10484 80.9837C9.25608 76.6312 19.3865 72.6512 19.4908 72.5967C19.9981 72.3316 23.6871 70.3793 26.2158 68.4158C26.7421 68.8733 27.395 69.3823 28.1539 69.8688L26.0586 76.1551C25.9162 76.5822 25.9162 77.0442 26.0584 77.4713L29.4648 87.7068H4.16528V85.4972ZM95.8347 87.7066H69.8959V87.5211L73.2556 77.4742C73.3987 77.0467 73.3991 76.5841 73.2568 76.1561L71.2877 70.2329C71.9042 69.8539 72.4302 69.4561 72.8609 69.0822C75.6162 70.8912 79.8305 72.3834 80.8222 72.7219C80.8368 72.7269 90.8199 76.5966 93.9406 80.9512C95.6979 83.4031 95.8266 85.3029 95.8347 85.4784V87.7066Z" fill="#231F20"/>
<path id="Vector_18" d="M87.7025 79.9214H75.5986V84.0867H87.7025V79.9214Z" fill="#231F20"/>
</g>
</g>
</g>
</g>
</svg>
