<svg width="100" height="100" viewBox="0 0 100 100" fill="none" xmlns="http://www.w3.org/2000/svg">
<g id="forward-ten-svgrepo-com 1">
<path id="Vector (Stroke)" fill-rule="evenodd" clip-rule="evenodd" d="M4.16699 50C4.16699 24.6869 24.6873 4.16663 50.0003 4.16663C65.6052 4.16663 79.4232 11.973 87.5003 23.9135V16.6666H95.8337V37.5H75.0003V29.1666H80.9847C74.4907 19.1482 63.0408 12.5 50.0003 12.5C29.2896 12.5 12.5003 29.2893 12.5003 50C12.5003 70.7106 29.2896 87.5 50.0003 87.5C70.711 87.5 87.5003 70.7106 87.5003 50H95.8337C95.8337 75.313 75.3134 95.8333 50.0003 95.8333C24.6873 95.8333 4.16699 75.313 4.16699 50ZM45.8337 50C45.8337 50.0512 45.8336 50.104 45.8336 50.1585C45.8324 52.2107 45.8298 56.5532 47.4563 60.4567C48.3271 62.5467 49.729 64.6854 51.9802 66.2862C54.2567 67.9051 57.0879 68.75 60.417 68.75C63.7461 68.75 66.5772 67.9051 68.8538 66.2862C71.105 64.6854 72.5069 62.5467 73.3777 60.4567C75.0042 56.5532 75.0016 52.2107 75.0004 50.1585C75.0004 50.104 75.0003 50.0512 75.0003 50C75.0003 47.9211 74.9564 43.4933 73.244 39.5027C72.3568 37.4352 70.9547 35.3168 68.7387 33.7251C66.4894 32.1096 63.697 31.25 60.417 31.25C57.1268 31.25 54.3263 32.1064 52.0712 33.7227C49.8478 35.3163 48.4458 37.4389 47.562 39.5112C45.8584 43.5055 45.8337 47.9415 45.8337 50ZM56.2784 41.9727C55.0544 43.7213 54.167 46.4768 54.167 50C54.167 53.5231 55.0544 56.2786 56.2784 58.0272C57.446 59.6953 58.8551 60.4166 60.417 60.4166C61.9789 60.4166 63.3879 59.6953 64.5556 58.0272C65.7796 56.2786 66.667 53.5231 66.667 50C66.667 46.4768 65.7796 43.7213 64.5556 41.9727C63.3879 40.3046 61.9789 39.5833 60.417 39.5833C58.8551 39.5833 57.446 40.3046 56.2784 41.9727ZM41.667 32.0766V66.6666H33.3337V42.9233L30.2406 43.7482L28.0934 35.6962L41.667 32.0766Z" fill="black"/>
</g>
</svg>
