<svg width="100" height="100" viewBox="0 0 100 100" fill="none" xmlns="http://www.w3.org/2000/svg">
<g id="users-more-svgrepo-com 1">
<path id="Vector (Stroke)" fill-rule="evenodd" clip-rule="evenodd" d="M29.167 23.9584C23.9893 23.9584 19.792 28.1557 19.792 33.3334C19.792 38.511 23.9893 42.7084 29.167 42.7084C30.8929 42.7084 32.292 44.1075 32.292 45.8334C32.292 47.5593 30.8929 48.9584 29.167 48.9584C20.5376 48.9584 13.542 41.9628 13.542 33.3334C13.542 24.7039 20.5376 17.7084 29.167 17.7084C30.8929 17.7084 32.292 19.1075 32.292 20.8334C32.292 22.5593 30.8929 23.9584 29.167 23.9584ZM50.0003 23.9584C44.8225 23.9584 40.6253 28.1557 40.6253 33.3334C40.6253 38.5111 44.8225 42.7084 50.0003 42.7084C55.1782 42.7084 59.3753 38.5111 59.3753 33.3334C59.3753 28.1557 55.1782 23.9584 50.0003 23.9584ZM34.3753 33.3334C34.3753 24.704 41.3707 17.7084 50.0003 17.7084C58.63 17.7084 65.6253 24.704 65.6253 33.3334C65.6253 41.9628 58.63 48.9584 50.0003 48.9584C41.3707 48.9584 34.3753 41.9628 34.3753 33.3334ZM67.7087 20.8334C67.7087 19.1075 69.1078 17.7084 70.8337 17.7084C79.4633 17.7084 86.4587 24.704 86.4587 33.3334C86.4587 41.9628 79.4633 48.9584 70.8337 48.9584C69.1078 48.9584 67.7087 47.5593 67.7087 45.8334C67.7087 44.1075 69.1078 42.7084 70.8337 42.7084C76.0115 42.7084 80.2087 38.5111 80.2087 33.3334C80.2087 28.1557 76.0115 23.9584 70.8337 23.9584C69.1078 23.9584 67.7087 22.5593 67.7087 20.8334ZM6.89647 61.0154C10.3733 57.7132 15.2788 55.2084 20.8337 55.2084C22.5595 55.2084 23.9587 56.6075 23.9587 58.3334C23.9587 60.0593 22.5595 61.4584 20.8337 61.4584C17.1837 61.4584 13.756 63.1202 11.2006 65.5472C8.57805 68.038 7.29199 70.9186 7.29199 72.9167C7.29199 74.6425 8.69113 76.0417 10.417 76.0417H12.5003C14.2262 76.0417 15.6253 77.4408 15.6253 79.1667C15.6253 80.8926 14.2262 82.2917 12.5003 82.2917H10.417C5.23927 82.2917 1.04199 78.0942 1.04199 72.9167C1.04199 68.6648 3.4869 64.2537 6.89647 61.0154ZM34.2104 64.5139C30.2016 66.5183 28.1253 69.2643 28.1253 72.9167C28.1253 74.6425 29.5245 76.0417 31.2503 76.0417H68.7503C70.4761 76.0417 71.8753 74.6425 71.8753 72.9167C71.8753 69.2643 69.799 66.5183 65.7903 64.5139C61.693 62.4652 55.9768 61.4584 50.0003 61.4584C44.0238 61.4584 38.3077 62.4652 34.2104 64.5139ZM31.4153 58.9237C36.693 56.2849 43.4768 55.2084 50.0003 55.2084C56.5238 55.2084 63.3077 56.2849 68.5854 58.9237C73.9516 61.6068 78.1253 66.1525 78.1253 72.9167C78.1253 78.0943 73.9279 82.2917 68.7503 82.2917H31.2503C26.0726 82.2917 21.8753 78.0942 21.8753 72.9167C21.8753 66.1525 26.049 61.6068 31.4153 58.9237ZM76.042 58.3334C76.042 56.6075 77.4411 55.2084 79.167 55.2084C84.7217 55.2084 89.6273 57.7132 93.1041 61.0154C96.5137 64.2537 98.9587 68.6648 98.9587 72.9167C98.9587 78.0943 94.7612 82.2917 89.5837 82.2917H87.5003C85.7744 82.2917 84.3753 80.8926 84.3753 79.1667C84.3753 77.4408 85.7744 76.0417 87.5003 76.0417H89.5837C91.3094 76.0417 92.7087 74.6425 92.7087 72.9167C92.7087 70.9186 91.4226 68.038 88.8 65.5472C86.2446 63.1202 82.8168 61.4584 79.167 61.4584C77.4411 61.4584 76.042 60.0593 76.042 58.3334Z" fill="black"/>
</g>
</svg>
