<svg width="56.000000" height="56.000000" viewBox="0 0 56 56" fill="none" xmlns="http://www.w3.org/2000/svg" xmlns:xlink="http://www.w3.org/1999/xlink">
	<desc>
			Created with Pixso.
	</desc>
	<defs>
		<clipPath id="clip139_1556">
			<rect id="Layer_1" width="56.000000" height="56.000000" fill="white" fill-opacity="0"/>
		</clipPath>
	</defs>
	<rect id="Layer_1" width="56.000000" height="56.000000" fill="#FFFFFF" fill-opacity="0"/>
	<g clip-path="url(#clip139_1556)">
		<path id="Vector" d="M42.7876 6.5625C34.6064 -1.57501 21.3936 -1.57501 13.2124 6.5625C5.0752 14.7 5.0752 27.9562 13.2124 36.1375L28 50.575L42.7437 36.0938C50.9248 27.9562 50.9248 14.7 42.7876 6.5625ZM40.2939 33.6L28 45.675L15.7061 33.6437C12.4248 30.3625 10.6313 25.9875 10.6313 21.35C10.6313 16.7125 12.4248 12.3375 15.7061 9.05621C18.9873 5.77496 23.3623 3.9375 28 3.9375C32.6377 3.9375 37.0127 5.7312 40.2939 9.01245C43.5752 12.2937 45.3687 16.6687 45.3687 21.3062C45.4126 25.9875 43.5752 30.3187 40.2939 33.6Z" fill="#FFFFFF" fill-opacity="1.000000" fill-rule="nonzero"/>
		<path id="Vector" d="M28 12.3812C23.0566 12.3812 19.0752 16.4062 19.0752 21.3062C19.0752 26.2062 23.0566 30.275 28 30.275C32.9438 30.275 36.9253 26.25 36.9253 21.35C36.9253 16.45 32.9438 12.3812 28 12.3812ZM28 26.775C25.0254 26.775 22.5752 24.325 22.5752 21.35C22.5752 18.375 25.0254 15.8812 28 15.8812C30.9751 15.8812 33.4253 18.3312 33.4253 21.3062C33.4253 24.2812 30.9751 26.775 28 26.775Z" fill="#FFFFFF" fill-opacity="1.000000" fill-rule="nonzero"/>
		<path id="Vector" d="M11.8125 52.0625L44.1875 52.0625L44.1875 55.5625L11.8125 55.5625L11.8125 52.0625Z" fill="#FFFFFF" fill-opacity="1.000000" fill-rule="evenodd"/>
	</g>
</svg>
