<svg width="56.000000" height="56.000000" viewBox="0 0 56 56" fill="none" xmlns="http://www.w3.org/2000/svg" xmlns:xlink="http://www.w3.org/1999/xlink">
	<desc>
			Created with Pixso.
	</desc>
	<defs>
		<clipPath id="clip139_1564">
			<rect id="Layer_1" width="56.000000" height="56.000000" fill="white" fill-opacity="0"/>
		</clipPath>
	</defs>
	<rect id="Layer_1" width="56.000000" height="56.000000" fill="#FFFFFF" fill-opacity="0"/>
	<g clip-path="url(#clip139_1564)">
		<path id="Vector" d="M23.6782 9L6.375 9L6.375 10.5046C6.375 32.0585 23.9414 49.625 45.4956 49.625L47 49.625L47 32.3218L31.4272 32.3218L24.1294 39.6192C20.8945 37.2118 18.0737 34.3154 15.7788 30.9676L23.6782 23.0683L23.6782 9ZM32.6685 35.331L43.9907 35.331L43.9907 46.5781C37.6714 46.3148 31.7656 44.434 26.6875 41.312L32.6685 35.331ZM20.6689 21.827L14.124 28.3721C11.3403 23.5197 9.64746 17.9526 9.42188 12.0093L20.6689 12.0093L20.6689 21.827Z" fill="#FFFFFF" fill-opacity="1.000000" fill-rule="nonzero"/>
	</g>
</svg>
