<svg width="63" height="63" viewBox="0 0 63 63" fill="none" xmlns="http://www.w3.org/2000/svg">
<g id="vuesax/linear/smart-car">
<g id="smart-car">
<g id="Group">
<path id="Vector" d="M31.8676 20.0024H18.0339C13.1514 20.0024 12.0489 22.4437 11.4451 25.4625L9.21387 36.0937H40.7139L38.4826 25.4625C37.8264 22.4437 36.7501 20.0024 31.8676 20.0024Z" stroke="black" stroke-width="2" stroke-linecap="round" stroke-linejoin="round"/>
<g id="Group_2">
<path id="Vector_2" d="M44.5988 53.4449C44.8088 55.7549 42.9713 57.7499 40.6088 57.7499H36.9076C34.7813 57.7499 34.4926 56.8311 34.0988 55.7286L33.7051 54.5475C33.1538 52.9462 32.7863 51.8437 29.9513 51.8437H19.8713C17.0363 51.8437 16.6163 53.0775 16.1176 54.5475L15.7238 55.7286C15.3563 56.8574 15.0676 57.7499 12.9151 57.7499H9.21381C6.85131 57.7499 4.98759 55.7549 5.22384 53.4449L6.32634 41.4486C6.61509 38.4824 7.16632 36.0674 12.3376 36.0674H37.4588C42.6301 36.0674 43.1813 38.4824 43.4701 41.4486L44.5988 53.4449Z" stroke="black" stroke-width="2" stroke-linecap="round" stroke-linejoin="round"/>
</g>
<path id="Vector_3" d="M9.1875 30.1875H7.21875" stroke="black" stroke-width="2" stroke-linecap="round" stroke-linejoin="round"/>
<path id="Vector_4" d="M42.6562 30.1875H40.6875" stroke="black" stroke-width="2" stroke-linecap="round" stroke-linejoin="round"/>
<path id="Vector_5" d="M13.125 43.9688H19.0312" stroke="black" stroke-width="2" stroke-linecap="round" stroke-linejoin="round"/>
<path id="Vector_6" d="M30.8438 43.9688H36.75" stroke="black" stroke-width="2" stroke-linecap="round" stroke-linejoin="round"/>
</g>
<path id="Vector_7" d="M49.1137 22.9424C49.8487 21.2362 49.5862 18.9262 48.2212 16.905C46.8824 14.8837 44.8349 13.755 42.9712 13.7812" stroke="white" stroke-width="2" stroke-linecap="round" stroke-linejoin="round"/>
<path id="Vector_8" d="M57.2775 25.5412C58.38 21.5774 57.5924 16.7213 54.7837 12.5213C51.9749 8.3213 47.7749 5.74875 43.6799 5.25" stroke="white" stroke-width="2" stroke-linecap="round" stroke-linejoin="round"/>
</g>
</g>
</svg>
