<svg width="54" height="54" viewBox="0 0 54 54" fill="none" xmlns="http://www.w3.org/2000/svg">
<g id="vuesax/twotone/receipt-item">
<g id="receipt-item">
<path id="Vector" d="M49.5 13.5V18.945C49.5 22.5 47.25 24.75 43.695 24.75H36V9.0225C36 6.525 38.0475 4.5 40.545 4.5C42.9975 4.5225 45.2475 5.5125 46.8675 7.1325C48.4875 8.775 49.5 11.025 49.5 13.5Z" stroke="black" stroke-width="2" stroke-miterlimit="10" stroke-linecap="round" stroke-linejoin="round"/>
<path id="Vector_2" d="M4.5 15.75V47.25C4.5 49.1175 6.615 50.175 8.1 49.05L11.9475 46.17C12.8475 45.495 14.1075 45.585 14.9175 46.395L18.6525 50.1525C19.53 51.03 20.97 51.03 21.8475 50.1525L25.6275 46.3725C26.415 45.585 27.675 45.495 28.5525 46.17L32.4 49.05C33.885 50.1525 36 49.095 36 47.25V9C36 6.525 38.025 4.5 40.5 4.5H15.75H13.5C6.75 4.5 4.5 8.5275 4.5 13.5V15.75Z" stroke="black" stroke-width="2" stroke-miterlimit="10" stroke-linecap="round" stroke-linejoin="round"/>
<path id="Vector_3" d="M20.25 29.2725H27" stroke="white" stroke-width="2" stroke-linecap="round" stroke-linejoin="round"/>
<path id="Vector_4" d="M20.25 20.2725H27" stroke="white" stroke-width="2" stroke-linecap="round" stroke-linejoin="round"/>
<path id="Vector_5" d="M13.4902 29.25H13.5104" stroke="white" stroke-width="2" stroke-linecap="round" stroke-linejoin="round"/>
<path id="Vector_6" d="M13.4898 20.25H13.51" stroke="white" stroke-width="2" stroke-linecap="round" stroke-linejoin="round"/>
</g>
</g>
</svg>
