<svg width="64" height="64" viewBox="0 0 64 64" fill="none" xmlns="http://www.w3.org/2000/svg">
<g id="vuesax/twotone/truck-fast">
<g id="truck-fast">
<path id="Vector" d="M32 37.3334H34.6667C37.6 37.3334 40 34.9334 40 32V5.33337H16C12 5.33337 8.50669 7.54667 6.69336 10.8" stroke="#E39822" stroke-width="2" stroke-linecap="round" stroke-linejoin="round"/>
<path id="Vector_2" d="M5.33337 45.3334C5.33337 49.76 8.90671 53.3334 13.3334 53.3334H16C16 50.4 18.4 48 21.3334 48C24.2667 48 26.6667 50.4 26.6667 53.3334H37.3334C37.3334 50.4 39.7334 48 42.6667 48C45.6 48 48 50.4 48 53.3334H50.6667C55.0934 53.3334 58.6667 49.76 58.6667 45.3334V37.3334H50.6667C49.2 37.3334 48 36.1334 48 34.6667V26.6667C48 25.2 49.2 24 50.6667 24H54.1067L49.5468 16.0267C48.5868 14.3734 46.8268 13.3334 44.9068 13.3334H40V32C40 34.9334 37.6 37.3334 34.6667 37.3334H32" stroke="white" stroke-width="2" stroke-linecap="round" stroke-linejoin="round"/>
<path id="Vector_3" d="M21.3333 58.6667C24.2789 58.6667 26.6667 56.2789 26.6667 53.3333C26.6667 50.3878 24.2789 48 21.3333 48C18.3878 48 16 50.3878 16 53.3333C16 56.2789 18.3878 58.6667 21.3333 58.6667Z" stroke="white" stroke-width="2" stroke-linecap="round" stroke-linejoin="round"/>
<path id="Vector_4" d="M42.6667 58.6667C45.6122 58.6667 48 56.2789 48 53.3333C48 50.3878 45.6122 48 42.6667 48C39.7212 48 37.3334 50.3878 37.3334 53.3333C37.3334 56.2789 39.7212 58.6667 42.6667 58.6667Z" stroke="white" stroke-width="2" stroke-linecap="round" stroke-linejoin="round"/>
<path id="Vector_5" d="M58.6667 32V37.3333H50.6667C49.2 37.3333 48 36.1333 48 34.6667V26.6667C48 25.2 49.2 24 50.6667 24H54.1066L58.6667 32Z" stroke="white" stroke-width="2" stroke-linecap="round" stroke-linejoin="round"/>
<path id="Vector_6" d="M5.33337 21.3334H21.3334" stroke="#E39822" stroke-width="2" stroke-linecap="round" stroke-linejoin="round"/>
<path id="Vector_7" d="M5.33337 29.3334H16" stroke="#E39822" stroke-width="2" stroke-linecap="round" stroke-linejoin="round"/>
<path id="Vector_8" d="M5.33337 37.3334H10.6667" stroke="#E39822" stroke-width="2" stroke-linecap="round" stroke-linejoin="round"/>
</g>
</g>
</svg>
