<svg width="60" height="60" viewBox="0 0 60 60" fill="none" xmlns="http://www.w3.org/2000/svg">
<path fill-rule="evenodd" clip-rule="evenodd" d="M21.2501 12.5C21.2501 11.8096 21.8097 11.25 22.5001 11.25H37.5001C38.1904 11.25 38.7501 11.8096 38.7501 12.5C38.7501 13.1904 38.1904 13.75 37.5001 13.75H22.5001C21.8097 13.75 21.2501 13.1904 21.2501 12.5ZM11.25 20C11.25 19.3096 11.8096 18.75 12.5 18.75H47.5001C48.1904 18.75 48.7501 19.3096 48.7501 20C48.7501 20.6904 48.1904 21.25 47.5001 21.25H45.0001V45C45.0001 48.4519 42.2019 51.25 38.7501 51.25H21.2501C17.7983 51.25 15.0001 48.4519 15.0001 45V21.25H12.5C11.8096 21.25 11.25 20.6904 11.25 20ZM17.5001 21.25V45C17.5001 47.0711 19.179 48.75 21.2501 48.75H38.7501C40.8212 48.75 42.5001 47.0711 42.5001 45V21.25H17.5001ZM25 27.5C25.6904 27.5 26.25 28.0596 26.25 28.75V41.25C26.25 41.9404 25.6904 42.5 25 42.5C24.3096 42.5 23.75 41.9404 23.75 41.25V28.75C23.75 28.0596 24.3096 27.5 25 27.5ZM35.0001 27.5C35.6904 27.5 36.2501 28.0596 36.2501 28.75V41.25C36.2501 41.9404 35.6904 42.5 35.0001 42.5C34.3097 42.5 33.7501 41.9404 33.7501 41.25V28.75C33.7501 28.0596 34.3097 27.5 35.0001 27.5Z" fill="white"/>
</svg>
