<svg width="60" height="60" viewBox="0 0 60 60" fill="none" xmlns="http://www.w3.org/2000/svg">
<g clip-path="url(#clip0_162_904)">
<path d="M0 0V60H60V0H0ZM58.0645 58.0645H1.93548V1.93548H58.0645V58.0645Z" fill="white"/>
<path d="M55.1614 31.9355V26.129V4.83869H22.3152C22.2795 4.52035 22.258 4.19808 22.258 3.87085H20.3225C20.3225 4.19787 20.3013 4.52014 20.2653 4.83869H4.83887V26.129V31.9355V55.1613H55.1614V31.9355ZM53.2258 6.77418V26.129H47.8657C46.1267 24.1054 44.7456 21.8728 43.658 19.646L50.0392 13.2648L48.6708 11.8964L42.8043 17.763C40.8234 13.0695 40.0579 8.70306 39.7965 6.77418H53.2258ZM21.2904 8.30398C22.354 10.6169 24.2226 12.4846 26.5336 13.5483C24.2218 14.6119 22.354 16.4795 21.2904 18.7926C20.2267 16.4795 18.3581 14.6119 16.0471 13.5483C18.359 12.4846 20.2267 10.6171 21.2904 8.30398ZM6.77435 6.77418H19.8147C18.6156 10.1515 15.3968 12.5806 11.613 12.5806V14.5161C13.7749 14.5161 15.7511 15.3126 17.2753 16.6219C16.2505 19.171 14.5124 23.2829 12.1181 26.129H6.77435V6.77418ZM6.77435 28.0645H11.613V30H6.77435V28.0645ZM6.77414 31.9355H11.9082C12.3717 33.2023 13.4673 36.3038 14.5733 40.1873L6.77414 47.9865V31.9355ZM6.77435 53.2258V50.7232L15.1637 42.3338C16.0676 45.7557 16.9018 49.5842 17.3149 53.2258H6.77435ZM29.0321 36.4351C28.4253 36.65 27.7761 36.7739 27.0966 36.7739V38.7093C27.7761 38.7093 28.4253 38.8332 29.0321 39.0481V53.2256H19.262C18.8014 48.9898 17.7968 44.5575 16.7507 40.7466L24.8779 32.6194L23.5093 31.2511L16.1448 38.6156C14.9486 34.5549 13.8309 31.5356 13.5482 30.7884V27.4361C15.8939 24.6713 17.6147 20.8882 18.7188 18.2058C19.7253 19.6264 20.3223 21.3559 20.3223 23.2255H22.2578C22.2578 19.0884 25.1591 15.6239 29.0321 14.7403V36.4351ZM29.0323 12.356C26.1135 11.6902 23.7542 9.55735 22.7661 6.77418H29.0323V12.356ZM30.9678 53.226V40.1999C32.1522 41.2636 32.9033 42.8012 32.9033 44.516H34.8388C34.8388 41.3137 37.4429 38.7096 40.6452 38.7096V36.7741C37.4429 36.7741 34.8388 34.1699 34.8388 30.9676H32.9033C32.9033 32.6816 32.1522 34.2192 30.9678 35.2837V14.5161V12.5806V6.77418H37.8387C38.0836 8.77944 38.9032 13.8493 41.3187 19.2484L34.6383 25.9288L36.0067 27.2971L42.206 21.0978C43.3237 23.2742 44.7173 25.4506 46.4504 27.454V30.7899C45.8765 32.312 41.816 43.3124 40.7379 53.226H30.9678ZM30.8421 37.7419C32.1128 37.0365 33.1657 35.9844 33.8711 34.7129C34.5766 35.9836 35.6295 37.0365 36.9002 37.7419C35.6295 38.4474 34.5766 39.4994 33.8711 40.771C33.1655 39.4992 32.1126 38.4474 30.8421 37.7419ZM53.2258 53.2248H42.6854C43.6844 44.4099 47.1621 34.4796 48.0919 31.9355H49.107C48.7491 33.5728 48.0919 36.8362 47.429 41.4754L49.3443 41.7493C50.0555 36.7743 50.7717 33.3523 51.09 31.9344H53.2258V53.2248ZM53.226 30H48.3871V28.0645H53.226V30Z" fill="white"/>
<path d="M36.09 18.6701L33.1865 21.5735L34.5551 22.9421L37.4585 20.0386L36.09 18.6701Z" fill="white"/>
<path d="M19.6378 44.8004L21.0063 46.1689L25.8449 41.3304L24.4763 39.9618L19.6378 44.8004Z" fill="white"/>
</g>
<defs>
<clipPath id="clip0_162_904">
<rect width="60" height="60" fill="white"/>
</clipPath>
</defs>
</svg>
