<svg width="60" height="60" viewBox="0 0 60 60" fill="none" xmlns="http://www.w3.org/2000/svg">
<path d="M53.2644 23.978L48.4202 27.0317C48.0688 27.2428 47.6534 27.3213 47.2492 27.253C46.8449 27.1846 46.4785 26.974 46.216 26.6591L43.8097 23.637V46.5506C43.8088 46.9482 43.6505 47.3293 43.3694 47.6104C43.0883 47.8915 42.7072 48.0498 42.3097 48.0506H17.7097C17.3121 48.0498 16.931 47.8915 16.6499 47.6104C16.3688 47.3293 16.2105 46.9482 16.2097 46.5506V23.6117L13.7812 26.6591C13.5189 26.9732 13.153 27.1833 12.7495 27.2516C12.346 27.3199 11.9313 27.2419 11.5802 27.0317L6.73282 23.978C6.57082 23.8849 6.43232 23.7559 6.32798 23.6009C6.22363 23.4459 6.15621 23.2691 6.1309 23.084C6.10558 22.8989 6.12305 22.7104 6.18196 22.5331C6.24087 22.3558 6.33965 22.1943 6.47071 22.0612L13.5602 14.1917C14.3935 13.2654 15.4123 12.5247 16.5504 12.0176C17.6885 11.5106 18.9205 11.2486 20.1665 11.2485H23.1191C23.6971 12.597 24.6581 13.7462 25.8829 14.5538C27.1077 15.3614 28.5426 15.7919 30.0097 15.7919C31.4768 15.7919 32.9116 15.3614 34.1364 14.5538C35.3613 13.7462 36.3222 12.597 36.9002 11.2485H39.8497C41.0963 11.2489 42.329 11.5114 43.4676 12.019C44.6063 12.5266 45.6255 13.2679 46.4591 14.1949L53.5328 22.058C53.6636 22.1919 53.762 22.354 53.8204 22.5318C53.8789 22.7097 53.8958 22.8985 53.8699 23.0839C53.8439 23.2693 53.7759 23.4462 53.6709 23.6012C53.566 23.7562 53.4269 23.8851 53.2644 23.978Z" fill="white"/>
</svg>
