<svg width="60" height="60" viewBox="0 0 60 60" fill="none" xmlns="http://www.w3.org/2000/svg">
<g clip-path="url(#clip0_162_1603)">
<path d="M23.1251 8.37488C23.1251 7.52996 22.4349 6.83984 21.5901 6.83984C20.741 6.83984 20.0552 7.53008 20.0552 8.37488V21.1352C21.0315 20.5712 22.0577 20.092 23.1251 19.6998V8.37488Z" fill="white"/>
<path d="M39.9435 8.37488C39.9435 7.52996 39.2523 6.83984 38.4086 6.83984C37.5594 6.83984 36.8735 7.53008 36.8735 8.37488V19.6998C37.9399 20.092 38.9672 20.5712 39.9435 21.1352V8.37488Z" fill="white"/>
<path d="M45.6679 23.6602V7.25848C45.6679 5.25914 44.8527 3.43465 43.5413 2.1266C42.2673 0.850196 40.5032 0.0498055 38.5664 0.00843831C38.5186 0.00328206 38.4656 0.00105549 38.4084 8.06744e-07C36.4091 -0.000936693 34.5846 0.815274 33.2755 2.1266C31.9651 3.43477 31.149 5.25926 31.15 7.25848V16.9329C30.7694 16.9116 30.3867 16.8968 29.9998 16.8968C29.6118 16.8968 29.2302 16.9116 28.8496 16.9329V7.25848C28.8507 5.25914 28.0344 3.43465 26.7241 2.12543C25.4499 0.849259 23.6838 0.048868 21.747 0.00750081C21.7036 0.00328206 21.6549 0.00105549 21.602 0.00105549C21.5987 0.00105549 21.5955 8.06744e-07 21.5913 8.06744e-07C21.5913 8.06744e-07 21.5913 8.06744e-07 21.5901 8.06744e-07C19.5918 -0.000936693 17.7665 0.815274 16.4582 2.12555C15.1479 3.43477 14.3318 5.25926 14.3318 7.25859V23.6592C10.6892 27.5147 8.44719 32.7251 8.44824 38.4485C8.44707 44.3945 10.8631 49.7925 14.76 53.6873C18.6547 57.5851 24.0528 60 29.9977 60H29.9998C35.9448 60.0011 41.3428 57.5851 45.2375 53.6882C49.1354 49.7936 51.5513 44.3954 51.5513 38.4495C51.5514 32.726 49.3093 27.5157 45.6679 23.6602ZM42.9944 51.4441C39.6636 54.7727 35.0798 56.8262 29.9998 56.8271H29.9988C24.9188 56.8262 20.334 54.7717 17.0032 51.443C13.6756 48.1121 11.6221 43.5284 11.6211 38.4484C11.6221 33.3514 13.6893 28.7549 17.0371 25.4209L17.5057 24.9555V7.25848C17.5057 6.12516 17.9605 5.11395 18.7014 4.36969C19.4456 3.62766 20.4569 3.17402 21.5901 3.17297H21.5913C22.7245 3.17402 23.7358 3.62766 24.48 4.36969C25.222 5.11395 25.6757 6.12516 25.6768 7.25848V20.4947L27.4789 20.2466C28.3091 20.1332 29.1486 20.0706 29.9998 20.0706C30.85 20.0706 31.6906 20.1332 32.5208 20.2466L34.3229 20.4947V7.25848C34.3239 6.12633 34.7787 5.11395 35.5197 4.36969C36.2629 3.62977 37.271 3.17602 38.401 3.17402H38.4085C39.5428 3.17496 40.5541 3.62871 41.2984 4.37086C42.0404 5.11395 42.4941 6.12633 42.4941 7.25859V24.9567L42.9615 25.4221C46.3081 28.755 48.3765 33.3516 48.3775 38.4496C48.3765 43.5293 46.3231 48.1132 42.9944 51.4441Z" fill="white"/>
<path d="M23.7832 36.0886C23.7832 34.9607 22.8683 34.0469 21.7415 34.0469C20.6135 34.0469 19.6987 34.9607 19.6987 36.0886C19.6987 37.2164 20.6136 38.1303 21.7415 38.1303C22.8683 38.1303 23.7832 37.2164 23.7832 36.0886Z" fill="white"/>
<path d="M38.2581 34.0469C37.13 34.0469 36.2163 34.9607 36.2163 36.0886C36.2163 37.2164 37.1301 38.1303 38.2581 38.1303C39.386 38.1303 40.2998 37.2164 40.2998 36.0886C40.2998 34.9607 39.386 34.0469 38.2581 34.0469Z" fill="white"/>
<path d="M36.0804 42.8117C35.6426 42.8117 35.2875 43.1669 35.2875 43.6046C35.2875 44.2279 35.0373 44.7856 34.6291 45.1947C34.22 45.6018 33.6635 45.852 33.0402 45.8531C32.4168 45.8519 31.8604 45.6018 31.45 45.1947C31.1617 44.9042 30.9539 44.5376 30.8563 44.1283C32.0414 43.7626 32.9033 42.658 32.9033 41.3531C32.9033 39.7492 31.6025 38.4485 29.9998 38.4485C28.3948 38.4485 27.0952 39.7492 27.0952 41.3531C27.0952 42.658 27.957 43.7627 29.1432 44.1283C29.0457 44.5376 28.8369 44.9042 28.5475 45.1947C28.1382 45.6018 27.5807 45.852 26.9584 45.8531C26.3351 45.8519 25.7786 45.6018 25.3693 45.1947C24.9612 44.7856 24.711 44.2279 24.7099 43.6046C24.7099 43.1668 24.3559 42.8117 23.917 42.8117C23.4791 42.8117 23.124 43.1669 23.124 43.6046C23.124 45.7227 24.8404 47.439 26.9584 47.439C28.1987 47.439 29.298 46.8474 29.9999 45.9337C30.6995 46.8475 31.7999 47.439 33.0402 47.439C35.1581 47.439 36.8734 45.7228 36.8746 43.6046C36.8745 43.1669 36.5193 42.8117 36.0804 42.8117Z" fill="white"/>
</g>
<defs>
<clipPath id="clip0_162_1603">
<rect width="60" height="60" fill="white"/>
</clipPath>
</defs>
</svg>
