<svg width="60" height="60" viewBox="0 0 60 60" fill="none" xmlns="http://www.w3.org/2000/svg">
<path d="M53.8613 53.0737H47.1488V50.085H44.0738V54.675C44.0738 54.7537 44.0737 54.8625 44.1038 54.9375C44.235 55.725 44.8388 56.1712 45.4913 56.25H53.8613C54.7275 56.25 55.4363 55.5412 55.4363 54.675C55.4363 54.2548 55.2712 53.8515 54.9766 53.5519C54.6819 53.2524 54.2814 53.0806 53.8613 53.0737ZM48.1688 42.2663C47.88 40.9012 47.1188 40.1663 46.5188 39.8288C45.0975 38.9588 43.4213 39.3525 43.2375 39.405L43.08 39.4575L42.9488 39.5363C41.4525 40.35 39.6413 41.2687 38.6738 41.6362C38.565 41.3737 38.46 41.0588 38.355 40.7738C38.145 40.1663 37.8825 39.4312 37.5675 38.6737C37.4663 38.1488 37.1513 36.9412 36.0488 33.8175C36.6263 34.71 37.23 35.5763 37.8563 36.4425C38.3288 37.23 39.0938 37.8037 39.9825 38.04C40.9013 38.3025 41.8725 38.1712 42.7125 37.7025C43.5357 37.2309 44.1387 36.4525 44.3895 35.5375C44.6404 34.6226 44.5188 33.6455 44.0513 32.82C43.9463 32.61 43.815 32.4 43.6575 32.1375C41.5575 28.44 39.1425 24.3975 36.915 23.295L36.8625 23.2687C33.6251 21.8601 30.0272 21.5034 26.5763 22.2488C23.5575 22.9538 21.3825 25.5788 20.2275 26.97L19.8863 27.39C19.1738 27.3375 17.4188 26.9175 15.8175 26.3925C15.0002 26.2127 14.164 26.1334 13.3275 26.1562V7.08375C13.3275 7.03125 13.3538 7.005 13.4025 7.005H43.8675C43.92 7.005 43.9425 7.0575 43.9425 7.08V29.805H47.0925V7.08C47.0925 5.2425 45.6488 3.75 43.8675 3.75H13.4325C12.9997 3.7544 12.5719 3.84421 12.1739 4.01428C11.7758 4.18434 11.4152 4.43132 11.1128 4.74104C10.8104 5.05076 10.5721 5.41714 10.4116 5.81916C10.2511 6.22117 10.1716 6.65092 10.1775 7.08375V53.0737H5.325C4.45875 53.0737 3.75 53.7863 3.75 54.6488C3.75 55.515 4.45875 56.2238 5.325 56.2238H11.775C12.645 56.2238 13.35 55.515 13.35 54.6488V54.5438C13.35 54.4688 13.3275 54.3862 13.3275 54.3075V33.1125L13.5638 33.1912L13.6163 33.2437L13.9838 33.3225C14.0363 33.3225 19.7288 34.5562 21.2513 34.95C22.7437 35.3437 24.0825 34.2675 25.1063 33.2437C25.3688 34.005 25.6838 34.845 25.9725 35.6325C25.2374 35.8163 24.5116 36.0353 23.7975 36.2887C20.91 37.2863 20.2275 38.0175 20.0438 38.8312C19.8862 39.5437 18.285 46.1812 17.445 49.6688C17.2806 50.0791 17.2005 50.5184 17.2096 50.9603C17.2186 51.4023 17.3165 51.8379 17.4975 52.2412C17.9475 53.235 18.8888 53.9175 20.2538 54.285C20.7525 54.4162 21.225 54.495 21.6713 54.495C22.3734 54.5089 23.0617 54.2988 23.6363 53.895C24.6338 53.1562 24.8738 52.0575 24.9488 51.6075C25.605 49.1175 26.6288 45.3112 26.9963 44.055C27.7313 43.7925 29.3588 43.4775 30.1163 43.4512C30.3525 43.8713 30.72 44.685 31.0088 45.3112C32.4 48.33 33.4238 50.3512 35.0213 50.745C37.6725 51.4012 43.3425 48.1987 45.2588 47.0438C46.7775 46.5713 48.7463 44.9738 48.1688 42.27V42.2663ZM44.1825 44.6287L44.025 44.7337C40.9013 46.62 36.8363 48.4575 35.655 48.2213C35.025 47.8538 33.9225 45.4388 33.3713 44.2613C32.4525 42.2363 31.9838 41.2162 31.035 40.9537C30.2475 40.7437 28.8075 40.9538 27.7313 41.19C25.2113 41.715 24.8175 42.24 24.6075 42.765C24.4237 43.2375 22.9575 48.7463 22.3538 51.0825L22.3275 51.2137V51.345C22.3275 51.345 22.275 51.6825 22.0912 51.8175C21.9037 51.9487 21.4613 51.9487 20.9363 51.8175C20.385 51.66 19.9913 51.45 19.8863 51.2137C19.8171 51.0456 19.8171 50.8569 19.8863 50.6888L19.9388 50.61L19.965 50.4525C20.07 50.0588 22.1175 41.6362 22.5338 39.72C23.4263 39.09 26.9175 38.0138 27.705 37.9875H29.5425L28.965 36.2587C28.4942 34.8695 28.0042 33.4869 27.495 32.1112C27.2859 31.5748 27.0933 31.032 26.9175 30.4837L26.55 29.4112L25.395 29.595C24.8175 29.7263 24.45 30.12 23.82 30.7725C23.4525 31.1663 22.38 32.3475 21.9338 32.3738C20.5425 32.0063 16.2375 31.0875 14.9288 30.7988L14.5613 30.7237C14.43 30.6937 13.7475 30.4613 13.5113 30.0638C13.4588 29.9888 13.3538 29.8312 13.485 29.4112C13.59 28.9912 13.7738 28.8862 13.8225 28.86C14.1675 28.6725 14.745 28.7812 15.0038 28.86C20.1488 30.5625 20.9363 29.9625 21.3563 29.6475C21.6188 29.4375 21.8813 29.1225 22.275 28.65C23.2425 27.495 25.0538 25.3162 27.15 24.8438C30.0571 24.2205 33.0864 24.5235 35.8125 25.71C37.4925 26.55 40.3238 31.56 41.4 33.4762C41.5575 33.7388 41.6888 33.975 41.7938 34.185C42.0563 34.6313 41.8988 35.235 41.4263 35.4975C41.3163 35.562 41.1937 35.6021 41.0669 35.615C40.9401 35.6279 40.812 35.6134 40.6912 35.5725C40.4537 35.4957 40.2497 35.3394 40.1138 35.13L40.0388 34.9988C38.7263 33.1875 37.4888 31.2975 36.3638 29.3587C35.5238 27.915 34.2113 27.3338 33.0825 27.9412C32.1375 28.44 31.9275 29.3588 33.1088 33.3188L33.135 33.3975C33.975 35.7338 34.92 38.5387 35.025 39.1425V39.3787L35.1563 39.6413C35.4713 40.3237 35.7075 41.0325 35.9175 41.6625C36.3375 42.9225 36.6525 43.8375 37.4663 44.2613C38.04 44.5763 38.67 44.9175 44.0775 41.9513C44.4485 41.8811 44.8322 41.9269 45.1763 42.0825C45.255 42.135 45.4913 42.2925 45.6263 42.8438C45.8888 44.0513 44.8388 44.4712 44.3888 44.5763L44.1825 44.6287ZM19.0725 14.85C18.8475 15.6919 18.8187 16.5742 18.9885 17.4289C19.1582 18.2837 19.522 19.0881 20.0516 19.78C20.5813 20.472 21.2628 21.0332 22.0436 21.4202C22.8244 21.8073 23.6836 22.0099 24.555 22.0125C27.075 22.0125 29.385 20.3325 30.0375 17.7863C30.4166 16.3331 30.2081 14.7891 29.4571 13.4885C28.7061 12.188 27.4731 11.2356 26.025 10.8375C24.571 10.448 23.0218 10.6519 21.718 11.4043C20.4143 12.1568 19.4627 13.3961 19.0725 14.85ZM27.495 17.1037C27.3381 17.6848 27.0134 18.2068 26.5614 18.6042C26.1094 19.0017 25.5502 19.257 24.9538 19.3383C24.3574 19.4195 23.7503 19.3231 23.2085 19.061C22.6666 18.799 22.2141 18.383 21.9075 17.865C21.6031 17.3439 21.4602 16.7442 21.497 16.1418C21.5337 15.5394 21.7483 14.9615 22.1138 14.4812C22.4792 14.0009 22.9789 13.6399 23.5497 13.4439C24.1205 13.2478 24.7366 13.2256 25.32 13.38C26.97 13.8 27.9412 15.48 27.495 17.1037Z" fill="white"/>
</svg>
