<svg width="60" height="60" viewBox="0 0 60 60" fill="none" xmlns="http://www.w3.org/2000/svg">
<g id="cleaning-svgrepo-com 1">
<g id="Cleaning">
<g id="XMLID_533_">
<path id="XMLID_534_" d="M11.0946 13.125H41.606C42.3996 12.1875 42.8361 11.0118 42.8137 9.80147C42.7889 8.45944 42.2257 7.21397 41.2281 6.33917C40.6849 5.86292 39.8315 5.28882 38.8503 5.28882C38.789 5.28882 38.7279 5.28671 38.6671 5.28882C36.1209 5.37847 33.7236 4.38483 32.088 2.5662C30.7542 1.08331 28.8464 0.232178 26.8536 0.232178C24.8488 0.232178 22.9332 1.09116 21.5983 2.58917C19.7735 4.63702 17.0149 5.65866 14.2187 5.32069C14.0132 5.29585 13.803 5.2839 13.5942 5.2839C12.97 5.2839 12.3163 5.54511 11.6514 6.05745C10.6576 6.82304 10.026 7.94183 9.87257 9.20241C9.71495 10.4991 10.0762 11.808 10.8901 12.8305L11.0946 13.125Z" fill="white"/>
<path id="XMLID_535_" d="M22.5165 18.0397C22.5594 18.0397 22.6017 18.0469 22.6434 18.0469H45.2587C46.0075 18.0469 46.6168 17.448 46.6168 16.6991C46.6168 15.9503 46.0075 15.3516 45.2587 15.3516H10.5339C10.5335 15.3516 10.533 15.3516 10.5325 15.3516C10.5322 15.3516 10.5318 15.3516 10.5315 15.3516H7.3748C6.62586 15.3516 6.0166 15.9504 6.0166 16.6991C6.0166 17.448 6.62586 18.0469 7.3748 18.0469H22.3895C22.4313 18.0469 22.4736 18.0397 22.5165 18.0397Z" fill="white"/>
<path id="XMLID_536_" d="M40.5469 43.4767H43.7109V26.8453C43.7109 26.4237 43.5102 26.0266 43.2115 25.7273C43.1014 25.6173 42.9573 25.5258 42.8238 25.4538C42.8179 25.4505 42.8037 25.4479 42.7977 25.4445C42.5749 25.3281 42.3555 25.2657 42.0964 25.2656C41.2257 25.2657 40.5469 25.9744 40.5469 26.8453V40.5543C40.5469 40.6159 40.5635 40.6787 40.5635 40.7432C40.5635 40.8076 40.5469 40.8704 40.5469 40.9321V43.4767Z" fill="white"/>
<path id="XMLID_537_" d="M44.8061 49.1016C44.1613 49.1016 43.7109 48.5855 43.7109 47.9407V45.7031H40.5469V47.9404C40.5469 48.5851 39.9561 49.1016 39.3114 49.1016H39.1373C37.3576 49.1016 35.9766 50.5557 35.9766 52.3355V53.0805C35.9766 53.1679 36.0096 53.2584 36.0096 53.3522C36.0096 53.4458 35.9766 53.5365 35.9766 53.6238V54.4922H48.8672V53.6095C48.8672 53.5266 48.8378 53.4407 48.8378 53.3521C48.8378 53.2635 48.8672 53.1776 48.8672 53.0946V52.3364C48.8672 52.3349 48.8994 52.3301 48.8995 52.3284C48.8972 50.5506 47.4821 49.1016 45.7037 49.1016H44.8061Z" fill="white"/>
<path id="XMLID_538_" d="M21.3281 24.3196V20.3906H9.9292L11.7646 35.5989C17.2151 34.695 21.3281 29.953 21.3281 24.3196Z" fill="white"/>
<path id="XMLID_539_" d="M53.1089 54.4922H51.2107V55.6372C51.2107 56.282 50.7434 56.8359 50.0986 56.8359H34.7419C34.0971 56.8359 33.6326 56.282 33.6326 55.6372V54.4922H32.3571L31.4829 59.7656H53.9831L53.1089 54.4922Z" fill="white"/>
<path id="XMLID_540_" d="M38.2031 46.8616V44.644C38.2031 44.6409 38.2031 44.638 38.2031 44.635V41.9531H12.5396L14.4305 57.4848C14.5902 58.7994 15.7143 59.7656 17.0454 59.7656H29.116L30.2163 53.1386C30.3101 52.5755 30.7971 52.1484 31.3679 52.1484H33.578C33.6495 49.5703 35.625 47.3228 38.2031 46.8616Z" fill="white"/>
<path id="XMLID_541_" d="M38.203 26.8451C38.203 24.6866 39.9299 22.9288 42.0883 22.9287C42.1941 22.9287 42.2802 22.9131 42.3845 22.9214L42.6783 20.3906H23.6718V24.3196C23.6718 31.1353 18.6626 36.9109 12.0508 37.9573L12.2556 39.6094H38.203V26.8451Z" fill="white"/>
</g>
</g>
</g>
</svg>
