<svg width="60" height="60" viewBox="0 0 60 60" fill="none" xmlns="http://www.w3.org/2000/svg">
<g id="valve-svgrepo-com 2" clip-path="url(#clip0_220_890)">
<path id="Vector" d="M59.0281 35.7668H56.3473C56.3299 35.7668 56.3137 35.7601 56.3015 35.7479L54.8352 34.2816C54.4558 33.9023 53.9515 33.6934 53.415 33.6934H50.6695V33.6286C50.6695 32.521 49.7685 31.6199 48.6609 31.6199H46.5875C45.4799 31.6199 44.5788 32.521 44.5788 33.6286V33.6934H41.8332C41.2967 33.6934 40.7925 33.9023 40.4129 34.2817L38.947 35.7478C38.9347 35.7601 38.9184 35.7667 38.9011 35.7667H35.1188V31.9843C35.1188 31.9674 35.1257 31.9506 35.1378 31.9385L36.6038 30.4724C36.9832 30.0931 37.1922 29.5887 37.1922 29.0521V26.3068H37.257C38.3646 26.3068 39.2657 25.4057 39.2657 24.2981V22.2247C39.2657 21.1171 38.3646 20.216 37.257 20.216H33.0454V19.0497H41.4039C42.2986 19.0497 43.1444 18.6585 43.7244 17.9766C44.3042 17.295 44.5534 16.3922 44.4083 15.5002C44.1726 14.0515 42.8333 12.959 41.293 12.959H33.8107L33.4681 11.9311C33.0529 10.6856 31.8918 9.84888 30.579 9.84888H29.421C28.1082 9.84888 26.9471 10.6856 26.5319 11.9311L26.1893 12.959H18.707C17.1667 12.959 15.8274 14.0515 15.5917 15.5C15.4466 16.3922 15.6958 17.295 16.2756 17.9765C16.8556 18.6585 17.7013 19.0496 18.5961 19.0496H26.9546V20.2159H22.743C21.6354 20.2159 20.7343 21.117 20.7343 22.2246V24.298C20.7343 25.4056 21.6354 26.3066 22.743 26.3066H22.8078V29.0522C22.8078 29.5889 23.0168 30.0932 23.3961 30.4724L24.8624 31.9387C24.8743 31.9508 24.8813 31.9675 24.8813 31.9845V35.7668H21.099C21.0816 35.7668 21.0654 35.7601 21.0533 35.7479L19.587 34.2816C19.2075 33.9023 18.7033 33.6934 18.1668 33.6934H15.4212V33.6286C15.4212 32.521 14.5201 31.6199 13.4125 31.6199H11.3391C10.2315 31.6199 9.33045 32.521 9.33045 33.6286V33.6934H6.58484C6.04834 33.6934 5.5441 33.9023 5.16454 34.2817L3.69862 35.7478C3.68631 35.7601 3.66998 35.7668 3.65274 35.7668H0.971922C0.435162 35.7668 0 36.2018 0 36.7387V45.0325C0 45.5694 0.435162 46.0044 0.971922 46.0044H3.65274C3.67011 46.0044 3.68631 46.0111 3.69849 46.0233L5.16479 47.4896C5.54423 47.8689 6.04847 48.0778 6.58497 48.0778H9.33045V48.1426C9.33045 49.2502 10.2315 50.1513 11.3391 50.1513H13.4125C14.5201 50.1513 15.4212 49.2502 15.4212 48.1426V48.0778H18.1668C18.7033 48.0778 19.2075 47.8689 19.5871 47.4895L21.053 46.0234C21.0653 46.0111 21.0816 46.0045 21.0989 46.0045H38.901C38.9184 46.0045 38.9347 46.0113 38.9467 46.0234L40.413 47.4897C40.7925 47.869 41.2967 48.0779 41.8332 48.0779H44.5788V48.1427C44.5788 49.2503 45.4799 50.1514 46.5875 50.1514H48.6609C49.7685 50.1514 50.6695 49.2503 50.6695 48.1427V48.0778H53.4152C53.9517 48.0778 54.4559 47.8689 54.8355 47.4895L56.3014 46.0234C56.3137 46.0111 56.33 46.0045 56.3473 46.0045H59.0281C59.5648 46.0045 60 45.5695 60 45.0326V36.7389C60 36.2018 59.5648 35.7668 59.0281 35.7668ZM53.4152 35.6372C53.4325 35.6372 53.4487 35.644 53.4609 35.6561L54.9272 37.1224C55.3067 37.5017 55.8109 37.7106 56.3474 37.7106H58.0562V40.9504H50.6695V35.6372H53.4152ZM17.7564 16.7173C17.5435 16.4669 17.4561 16.1456 17.5104 15.8122C17.5933 15.3023 18.119 14.9029 18.707 14.9029H26.8898C27.3083 14.9029 27.6796 14.6353 27.8119 14.2383L28.376 12.5459C28.5262 12.0953 28.9462 11.7926 29.421 11.7926H30.579C31.054 11.7926 31.4738 12.0953 31.624 12.5459L32.1881 14.2383C32.3204 14.6353 32.6918 14.9029 33.1101 14.9029H41.293C41.881 14.9029 42.4067 15.3023 42.4896 15.8122C42.5439 16.1456 42.4565 16.467 42.2436 16.7173C42.0336 16.9643 41.7276 17.1059 41.4039 17.1059H18.5961C18.2724 17.1059 17.9664 16.9643 17.7564 16.7173ZM28.8985 19.0497H31.1015V20.216H28.8985V19.0497ZM22.6782 24.2981V22.2247C22.6782 22.189 22.7072 22.1599 22.743 22.1599H37.257C37.2928 22.1599 37.3218 22.189 37.3218 22.2247V24.2981C37.3218 24.3338 37.2928 24.3629 37.257 24.3629H22.743C22.7072 24.3629 22.6782 24.3338 22.6782 24.2981ZM18.1668 35.6372C18.1841 35.6372 18.2003 35.644 18.2125 35.6561L19.6788 37.1224C20.0583 37.5017 20.5625 37.7106 21.099 37.7106H25.8531C26.3899 37.7106 26.8251 37.2756 26.8251 36.7387V31.9845C26.8251 31.4478 26.616 30.9435 26.2367 30.5643L24.7704 29.098C24.7585 29.0859 24.7515 29.0692 24.7515 29.0522V26.3068H35.2482V29.0524C35.2482 29.0694 35.2414 29.0861 35.2292 29.0983L33.7633 30.5643C33.3838 30.9436 33.1748 31.448 33.1748 31.9846V36.7387C33.1748 37.2756 33.61 37.7106 34.1467 37.7106H38.901C39.4375 37.7106 39.9417 37.5017 40.3213 37.1223L41.7872 35.6563C41.7995 35.644 41.8159 35.6373 41.8331 35.6373H44.5788V40.9505H15.4212V35.6373H18.1668V35.6372ZM3.65274 37.7106C4.18924 37.7106 4.69348 37.5017 5.07305 37.1223L6.53896 35.6563C6.55127 35.644 6.5676 35.6373 6.58484 35.6373H9.33045V40.9505H1.94384V37.7108H3.65274V37.7106ZM6.58484 46.134C6.56747 46.134 6.55127 46.1272 6.53909 46.1151L5.07279 44.6487C4.69348 44.2694 4.18911 44.0605 3.65274 44.0605H1.94384V42.8942H9.33045V46.134H6.58484ZM13.4773 48.1426C13.4773 48.1782 13.4483 48.2074 13.4125 48.2074H11.3391C11.3033 48.2074 11.2743 48.1782 11.2743 48.1426V33.6286C11.2743 33.5929 11.3033 33.5638 11.3391 33.5638H13.4125C13.4483 33.5638 13.4773 33.5929 13.4773 33.6286V48.1426ZM41.8332 46.134C41.8159 46.134 41.7995 46.1272 41.7875 46.1151L40.3212 44.6487C39.9417 44.2694 39.4375 44.0605 38.901 44.0605H21.0989C20.5624 44.0605 20.0581 44.2694 19.6786 44.6489L18.2127 46.1149C18.2003 46.1272 18.184 46.1338 18.1668 46.1338H15.4212V42.8941H44.5788V46.1338H41.8332V46.134ZM48.7257 48.1426C48.7257 48.1782 48.6967 48.2074 48.6609 48.2074H46.5875C46.5517 48.2074 46.5227 48.1782 46.5227 48.1426V33.6286C46.5227 33.5929 46.5517 33.5638 46.5875 33.5638H48.6609C48.6967 33.5638 48.7257 33.5929 48.7257 33.6286V48.1426ZM56.3473 44.0605C55.8108 44.0605 55.3065 44.2694 54.927 44.6489L53.461 46.1149C53.4487 46.1272 53.4324 46.1338 53.4152 46.1338H50.6695V42.8941H58.0562V44.0604H56.3473V44.0605Z" fill="white"/>
</g>
<defs>
<clipPath id="clip0_220_890">
<rect width="60" height="60" fill="white"/>
</clipPath>
</defs>
</svg>
