<svg width="60" height="60" viewBox="0 0 60 60" fill="none" xmlns="http://www.w3.org/2000/svg">
<g id="cache-cleaner-svgrepo-com 1">
<path id="c (Stroke)" fill-rule="evenodd" clip-rule="evenodd" d="M45.1203 27.2007C44.5037 27.2007 44.0039 27.7005 44.0039 28.3171C44.0039 28.9336 44.5037 29.4334 45.1203 29.4334C45.7368 29.4334 46.2367 28.9336 46.2367 28.3171C46.2367 27.7005 45.7368 27.2007 45.1203 27.2007ZM42.7539 28.3171C42.7539 27.0101 43.8134 25.9507 45.1203 25.9507C46.4272 25.9507 47.4867 27.0101 47.4867 28.3171C47.4867 29.624 46.4272 30.6834 45.1203 30.6834C43.8134 30.6834 42.7539 29.624 42.7539 28.3171Z" fill="white"/>
<path id="d (Stroke)" fill-rule="evenodd" clip-rule="evenodd" d="M50.2781 32.0522C49.4692 32.0522 48.8135 32.708 48.8135 33.5169C48.8135 34.3258 49.4692 34.9815 50.2781 34.9815C51.087 34.9815 51.7427 34.3258 51.7427 33.5169C51.7427 32.708 51.087 32.0522 50.2781 32.0522ZM47.5635 33.5169C47.5635 32.0176 48.7789 30.8022 50.2781 30.8022C51.7773 30.8022 52.9927 32.0176 52.9927 33.5169C52.9927 35.0161 51.7773 36.2315 50.2781 36.2315C48.7789 36.2315 47.5635 35.0161 47.5635 33.5169Z" fill="white"/>
<path id="e (Stroke)" fill-rule="evenodd" clip-rule="evenodd" d="M14.6511 12.9733C14.7106 12.6333 15.0345 12.406 15.3745 12.4655L29.5035 14.9398C29.8435 14.9993 30.0709 15.3232 30.0113 15.6632C29.9518 16.0032 29.6279 16.2306 29.2879 16.171L15.1589 13.6968C14.8189 13.6372 14.5915 13.3134 14.6511 12.9733Z" fill="white"/>
<path id="f (Stroke)" fill-rule="evenodd" clip-rule="evenodd" d="M18.8183 17.9855C18.8786 17.6456 19.2029 17.4189 19.5428 17.4792L28.7234 19.1069C29.0633 19.1672 29.29 19.4916 29.2297 19.8314C29.1695 20.1713 28.8451 20.398 28.5052 20.3377L19.3246 18.71C18.9847 18.6497 18.758 18.3254 18.8183 17.9855Z" fill="white"/>
<path id="g (Stroke)" fill-rule="evenodd" clip-rule="evenodd" d="M16.149 21.5682C16.2084 21.2282 16.5321 21.0006 16.8721 21.0599L28.0711 23.0133C28.4112 23.0726 28.6388 23.3964 28.5795 23.7364C28.5201 24.0765 28.1964 24.304 27.8564 24.2447L16.6574 22.2913C16.3173 22.232 16.0897 21.9083 16.149 21.5682Z" fill="white"/>
<path id="h (Stroke)" fill-rule="evenodd" clip-rule="evenodd" d="M31.6151 30.0842C33.9345 30.5123 35.9909 32.5359 36.4601 35.6463C36.4622 35.6604 36.4638 35.6746 36.465 35.6889L36.811 39.9444C36.839 40.2884 36.5827 40.59 36.2387 40.618C35.8947 40.6459 35.5931 40.3897 35.5651 40.0457L35.2209 35.812C34.816 33.1789 33.119 31.6329 31.3882 31.3135C29.6888 30.9999 27.7899 31.8383 26.857 34.361C26.85 34.3799 26.8422 34.3984 26.8334 34.4165C25.6119 36.941 22.8804 39.2965 19.4047 41.1476C16.1093 42.9027 12.0757 44.2421 7.83994 44.8523C9.74415 49.7543 14.8481 51.8376 20.0741 52.2666C22.7889 52.4895 25.4738 52.2563 27.6297 51.7656C28.7076 51.5202 29.6401 51.2134 30.3713 50.8752C31.1166 50.5306 31.5962 50.1792 31.8331 49.8751C32.0453 49.6028 32.438 49.554 32.7103 49.7661C32.9826 49.9782 33.0314 50.371 32.8192 50.6433C32.4023 51.1784 31.7118 51.6325 30.896 52.0098C30.0663 52.3935 29.0467 52.725 27.9071 52.9844C25.6278 53.5032 22.8149 53.7459 19.9719 53.5124C14.3256 53.0489 8.30481 50.6685 6.40101 44.5189C6.34625 44.342 6.37274 44.1499 6.47334 43.9945C6.57394 43.839 6.73829 43.7362 6.92208 43.7137C11.2887 43.1789 15.4636 41.8304 18.8171 40.0444C22.1749 38.256 24.6332 36.0707 25.6955 33.8981C26.8231 30.8836 29.2675 29.651 31.6151 30.0842Z" fill="white"/>
<path id="i (Stroke)" fill-rule="evenodd" clip-rule="evenodd" d="M49.8043 42.4217C51.3029 42.7534 52.3667 43.6295 52.9851 44.7404C53.6465 45.9288 53.785 47.3592 53.4552 48.6354C53.1245 49.9152 52.3083 51.0873 51.0119 51.6934C49.8231 52.2492 48.3213 52.2874 46.5804 51.6271C45.66 52.902 43.9067 53.6 42.1433 53.655C40.2784 53.7131 38.2293 53.0669 36.792 51.447C34.7313 52.3901 32.3133 51.292 31.1378 49.6151C30.4801 48.6768 30.1491 47.4903 30.4689 46.2636C30.7744 45.0913 31.6468 43.9858 33.1704 43.0695C33.9356 40.7417 35.0284 39.6071 36.4212 39.266C37.1043 39.0987 37.7975 39.1408 38.4493 39.2501C38.9454 39.3333 39.4565 39.4634 39.9371 39.5858C39.9673 39.5935 39.9975 39.6012 40.0275 39.6088C41.5979 38.2246 43.6358 37.7318 45.4983 38.1959C47.3813 38.6651 49.0204 40.0951 49.8043 42.4217ZM45.1961 39.4088C43.6685 39.0281 41.9463 39.4663 40.6414 40.7441C40.4868 40.8956 40.2648 40.9562 40.0546 40.9044C39.8973 40.8657 39.7438 40.8266 39.5933 40.7884C39.1235 40.6688 38.6824 40.5566 38.2426 40.4829C37.6711 40.3871 37.1682 40.37 36.7185 40.4801C35.8915 40.6827 34.9968 41.385 34.2902 43.6725C34.2432 43.8245 34.1399 43.953 34.0015 44.0315C32.5443 44.8585 31.8889 45.7716 31.6784 46.5789C31.4682 47.3855 31.6722 48.1997 32.1614 48.8976C33.184 50.3563 35.2009 51.0339 36.6097 50.1249C36.8859 49.9467 37.2529 50.0129 37.4495 50.2764C38.598 51.8159 40.4056 52.4586 42.1043 52.4056C43.8386 52.3515 45.2608 51.5895 45.7639 50.5691C45.9125 50.2679 46.2724 50.1379 46.5791 50.2747C48.299 51.0419 49.5892 50.9787 50.4825 50.5611C51.3828 50.1402 51.9902 49.3086 52.2449 48.3226C52.5007 47.333 52.3866 46.2354 51.8928 45.3483C51.4085 44.4781 50.5458 43.784 49.2265 43.5851C48.9845 43.5486 48.7861 43.3743 48.7187 43.139C48.1026 40.9856 46.7094 39.7859 45.1961 39.4088Z" fill="white"/>
<path id="j (Stroke)" fill-rule="evenodd" clip-rule="evenodd" d="M11.6211 21.134C11.9663 21.134 12.2461 21.4139 12.2461 21.759V23.6472C12.2461 23.9923 11.9663 24.2722 11.6211 24.2722C11.2759 24.2722 10.9961 23.9923 10.9961 23.6472V21.759C10.9961 21.4139 11.2759 21.134 11.6211 21.134Z" fill="white"/>
<path id="k (Stroke)" fill-rule="evenodd" clip-rule="evenodd" d="M11.6211 25.9626C11.9663 25.9626 12.2461 26.2425 12.2461 26.5876V28.4759C12.2461 28.8211 11.9663 29.1009 11.6211 29.1009C11.2759 29.1009 10.9961 28.8211 10.9961 28.4759V26.5876C10.9961 26.2425 11.2759 25.9626 11.6211 25.9626Z" fill="white"/>
<path id="l (Stroke)" fill-rule="evenodd" clip-rule="evenodd" d="M12.5316 25.0959C12.5436 24.7509 12.8329 24.4809 13.1778 24.4928L15.066 24.5581C15.4109 24.57 15.6809 24.8593 15.669 25.2043C15.6571 25.5492 15.3678 25.8192 15.0228 25.8073L13.1347 25.7421C12.7897 25.7301 12.5197 25.4408 12.5316 25.0959Z" fill="white"/>
<path id="m (Stroke)" fill-rule="evenodd" clip-rule="evenodd" d="M7.70215 25.1826C7.70215 24.8374 7.98197 24.5576 8.32715 24.5576H10.2154C10.5606 24.5576 10.8404 24.8374 10.8404 25.1826C10.8404 25.5278 10.5606 25.8076 10.2154 25.8076H8.32715C7.98197 25.8076 7.70215 25.5278 7.70215 25.1826Z" fill="white"/>
<path id="n (Stroke)" fill-rule="evenodd" clip-rule="evenodd" d="M19.3205 31.0249C19.5646 31.269 19.5645 31.6647 19.3205 31.9088L17.9852 33.2439C17.7411 33.488 17.3454 33.4879 17.1013 33.2438C16.8573 32.9998 16.8573 32.604 17.1014 32.36L18.4366 31.0248C18.6807 30.7808 19.0764 30.7808 19.3205 31.0249ZM13.687 31.1169C13.931 30.8728 14.3268 30.8728 14.5708 31.1169L15.906 32.452C16.1501 32.6961 16.1501 33.0918 15.906 33.3359C15.6619 33.5799 15.2662 33.5799 15.0221 33.3359L13.687 32.0007C13.4429 31.7567 13.4429 31.3609 13.687 31.1169ZM15.906 34.4392C16.15 34.6833 16.1501 35.079 15.906 35.3231L14.5709 36.6583C14.3268 36.9024 13.9311 36.9025 13.687 36.6584C13.4429 36.4143 13.4429 36.0186 13.6869 35.7745L15.0221 34.4393C15.2661 34.1952 15.6619 34.1951 15.906 34.4392ZM17.163 34.4704C17.4153 34.2349 17.8108 34.2485 18.0463 34.5009L19.3354 35.8821C19.571 36.1345 19.5573 36.5299 19.305 36.7655C19.0526 37.001 18.6571 36.9873 18.4216 36.735L17.1325 35.3537C16.897 35.1014 16.9106 34.7059 17.163 34.4704Z" fill="white"/>
<path id="o (Stroke)" fill-rule="evenodd" clip-rule="evenodd" d="M25.7904 33.7444C26.0115 33.4792 26.4056 33.4435 26.6707 33.6645C29.3646 35.91 32.3886 35.9824 35.6861 35.1345C36.0204 35.0485 36.3611 35.2499 36.4471 35.5842C36.533 35.9185 36.3317 36.2592 35.9974 36.3451C32.4977 37.245 28.9962 37.2303 25.8703 34.6246C25.6052 34.4036 25.5694 34.0095 25.7904 33.7444Z" fill="white"/>
<path id="p (Stroke)" fill-rule="evenodd" clip-rule="evenodd" d="M28.0552 41.7998C28.3403 41.9944 28.4137 42.3833 28.219 42.6684C25.6571 46.4212 21.1114 49.5747 13.9224 52.0108C13.5955 52.1216 13.2407 51.9464 13.1299 51.6194C13.0191 51.2925 13.1943 50.9377 13.5213 50.8269C20.5693 48.4385 24.8346 45.409 27.1867 41.9636C27.3813 41.6785 27.7702 41.6052 28.0552 41.7998Z" fill="white"/>
<path id="q (Stroke)" fill-rule="evenodd" clip-rule="evenodd" d="M28.0036 47.6041C28.2833 47.8063 28.3462 48.197 28.144 48.4767C26.6924 50.4853 24.9164 52.161 21.9405 53.5268C21.6268 53.6708 21.2558 53.5332 21.1118 53.2195C20.9678 52.9058 21.1054 52.5347 21.4191 52.3907C24.1796 51.1238 25.7925 49.5965 27.1309 47.7445C27.3331 47.4648 27.7238 47.4019 28.0036 47.6041Z" fill="white"/>
<path id="r (Stroke)" fill-rule="evenodd" clip-rule="evenodd" d="M19.7298 44.5048C19.8872 44.812 19.7659 45.1886 19.4587 45.3461C16.3627 46.9333 13.0913 48.3947 8.89448 48.5124C8.54943 48.5221 8.26188 48.2502 8.2522 47.9052C8.24253 47.5602 8.5144 47.2726 8.85944 47.2629C12.7666 47.1534 15.8317 45.8008 18.8885 44.2338C19.1956 44.0763 19.5723 44.1976 19.7298 44.5048Z" fill="white"/>
<path id="s (Stroke)" fill-rule="evenodd" clip-rule="evenodd" d="M35.038 7.86953C34.7142 8.12132 34.3997 8.59284 34.2784 9.39779C34.2773 9.40511 34.2761 9.41241 34.2747 9.41969L30.2541 30.8854C30.1905 31.2247 29.864 31.4482 29.5247 31.3847C29.1854 31.3211 28.9619 30.9946 29.0254 30.6553L33.0441 9.20014C33.2042 8.1532 33.6456 7.36885 34.2707 6.88276C34.8971 6.39566 35.6589 6.24858 36.3604 6.39648C37.7972 6.69937 38.8478 8.17611 38.3563 10.1566L34.1541 31.733C34.0881 32.0718 33.76 32.293 33.4212 32.227C33.0823 32.161 32.8612 31.8328 32.9272 31.494L37.1325 9.9014C37.1347 9.89019 37.1372 9.87904 37.14 9.86796C37.487 8.49295 36.7767 7.7617 36.1026 7.61959C35.7466 7.54455 35.3628 7.61698 35.038 7.86953Z" fill="white"/>
</g>
</svg>
