<svg width="60" height="60" viewBox="0 0 60 60" fill="none" xmlns="http://www.w3.org/2000/svg">
<g id="cleaning-mop-svgrepo-com 1" clip-path="url(#clip0_220_858)">
<g id="Group">
<g id="Group_2">
<g id="Group_3">
<path id="Vector" d="M24.9473 58.1053H4.73684C3.16969 58.1053 1.89469 56.8303 1.89469 55.2631C1.89469 53.696 3.16957 52.421 4.73684 52.421H11.0967C11.6736 52.421 12.2155 52.1959 12.6226 51.7873C13.0378 51.3706 13.2654 50.8142 13.2633 50.2237V50.2105C13.2633 48.6434 14.5382 47.3683 16.1054 47.3683H19.8949C20.4182 47.3683 20.8423 46.9443 20.8423 46.421C20.8423 45.8976 20.418 45.4736 19.8949 45.4736H16.1054C13.4934 45.4736 11.3686 47.5985 11.3686 50.2105V50.227C11.3689 50.3437 11.3136 50.4167 11.2806 50.45C11.2301 50.5006 11.1683 50.5263 11.0968 50.5263H4.73684C2.12484 50.5263 0 52.6511 0 55.2631C0 57.8751 2.12484 60 4.73684 60H24.9473C25.4706 60 25.8947 59.576 25.8947 59.0526C25.8947 58.5293 25.4706 58.1053 24.9473 58.1053Z" fill="white"/>
<path id="Vector_2" d="M56.5266 13.8948H52.2079C51.8526 13.1486 51.0909 12.6316 50.2108 12.6316H43.895C43.0149 12.6316 42.2533 13.1486 41.8979 13.8948H37.5792C37.0559 13.8948 36.6318 14.3189 36.6318 14.8421C36.6318 15.3653 37.0561 15.7894 37.5792 15.7894H41.6845V16.0477C41.6845 17.8774 43.0312 19.3884 44.8175 19.5623C45.0377 19.5837 45.2572 19.5844 45.474 19.5645V23.6235C45.474 25.5372 46.9446 27.0887 48.822 27.1555C49.7724 27.1873 50.6754 26.8442 51.3598 26.1837C52.0443 25.5232 52.4214 24.6353 52.4214 23.6841V23.3683H55.4933L53.8255 42.5496C53.7801 43.0707 54.166 43.5302 54.6871 43.5754C54.715 43.5779 54.7428 43.5789 54.7704 43.5789C55.2564 43.5789 55.6702 43.2069 55.713 42.7135L57.405 23.2557C58.8964 22.8659 60.0003 21.5069 60.0003 19.8948V17.3684C60.0003 15.4531 58.4421 13.8948 56.5266 13.8948ZM50.5265 14.8422V23.6845C50.5265 24.1169 50.3551 24.5204 50.0438 24.8208C49.7328 25.121 49.3234 25.2748 48.8891 25.2624C48.0507 25.2325 47.3686 24.4974 47.3686 23.6239V18.291C47.3686 17.9523 47.1879 17.6395 46.8944 17.4703C46.7479 17.3859 46.5846 17.3437 46.4212 17.3437C46.2573 17.3437 46.0933 17.3862 45.9465 17.4713C45.6588 17.638 45.3317 17.7092 45.0009 17.6769C44.2037 17.5992 43.5792 16.8837 43.5792 16.0481V14.8423C43.5792 14.6682 43.7209 14.5265 43.895 14.5265H50.2108C50.3848 14.5265 50.5266 14.6681 50.5266 14.8423L50.5265 14.8422ZM58.1056 19.8948C58.1056 20.763 57.4013 21.4698 56.5339 21.4737C56.5278 21.4737 56.522 21.4737 56.5157 21.4737H52.4214V15.7896H56.5268C57.3975 15.7896 58.1057 16.4978 58.1057 17.3685V19.8948H58.1056Z" fill="white"/>
<path id="Vector_3" d="M42.6318 23.3686C43.1551 23.3686 43.5792 22.9446 43.5792 22.4212C43.5792 21.8979 43.155 21.4739 42.6318 21.4739H37.5792C37.0559 21.4739 36.6318 21.8979 36.6318 22.4212C36.6318 22.9446 37.0561 23.3686 37.5792 23.3686H42.6318Z" fill="white"/>
<path id="Vector_4" d="M58.4923 48.4316C56.5726 45.1536 53.0129 42.9473 48.9475 42.9473H41.3686C40.4979 42.9473 39.7896 42.2391 39.7896 41.3684V40.1052C39.7896 39.7661 39.7399 39.43 39.6436 39.1078C40.498 38.4743 41.0527 37.4586 41.0527 36.3157C41.0527 34.4004 39.4945 32.842 37.5791 32.842H36.0002V32.5262C36.0002 31.646 35.4833 30.8844 34.737 30.529V3.47367C34.737 1.55836 33.1788 0 31.2634 0C29.3479 0 27.7897 1.55836 27.7897 3.47367V13.8947H16.1055C14.1901 13.8947 12.6318 15.453 12.6318 17.3684V19.8947C12.6318 21.5067 13.7357 22.8657 15.2271 23.256L16.919 42.7137C16.9644 43.2352 17.4233 43.623 17.945 43.5754C18.4662 43.5301 18.852 43.0707 18.8067 42.5495L17.1389 23.3685H27.7897V30.5292C27.0434 30.8846 26.5265 31.6463 26.5265 32.5264V32.8423H24.9475C23.0321 32.8423 21.4739 34.4006 21.4739 36.3159C21.4739 37.4589 22.0286 38.4745 22.883 39.108C22.7867 39.4301 22.737 39.7662 22.737 40.1054V48.9476C22.737 55.042 27.6952 60.0002 33.7897 60.0002H57.7897C59.0086 60.0002 60.0002 59.0085 60.0002 57.7897V54C60.0002 52.0055 59.469 50.1326 58.541 48.5154C58.5262 48.4866 58.5099 48.4587 58.4923 48.4316ZM29.6844 3.47367C29.6844 2.60297 30.3927 1.89469 31.2634 1.89469C32.1341 1.89469 32.8423 2.60297 32.8423 3.47367V30.3158H29.6845V3.47367H29.6844ZM16.1164 21.4737C16.1103 21.4738 16.1041 21.4738 16.0982 21.4737C15.2309 21.4698 14.5265 20.763 14.5265 19.8947V17.3684C14.5265 16.4977 15.2348 15.7894 16.1055 15.7894H27.7897V21.4736H16.1164V21.4737ZM58.1055 57.7895C58.1055 57.9636 57.9638 58.1053 57.7897 58.1053H43.8949C38.8452 58.1053 34.737 53.9972 34.737 48.9475V42.6316C34.737 42.1083 34.3128 41.6843 33.7897 41.6843C33.2664 41.6843 32.8423 42.1083 32.8423 42.6316V48.9475C32.8423 52.6996 34.7217 56.021 37.5884 58.0199C33.13 57.4068 29.6845 53.5718 29.6845 48.9475V42.6316C29.6845 42.1083 29.2603 41.6843 28.7371 41.6843C28.2139 41.6843 27.7898 42.1083 27.7898 42.6316V48.9475C27.7898 52.6996 29.6691 56.021 32.5359 58.0201C28.0775 57.407 24.632 53.572 24.632 48.9477V40.1055C24.632 39.9952 24.6436 39.8855 24.6661 39.7784C24.7589 39.786 24.853 39.7897 24.9478 39.7897H32.5268C33.05 39.7897 33.4741 39.3657 33.4741 38.8424C33.4741 38.319 33.0499 37.895 32.5268 37.895H24.9478C24.0771 37.895 23.3688 37.1868 23.3688 36.3161C23.3688 35.4454 24.0771 34.7371 24.9478 34.7371H27.4741C27.9973 34.7371 28.4214 34.3131 28.4214 33.7897V32.5266C28.4214 32.3524 28.5631 32.2107 28.7373 32.2107H33.7899C33.9639 32.2107 34.1057 32.3523 34.1057 32.5266V33.7897C34.1057 34.3131 34.53 34.7371 35.0531 34.7371H37.5794C38.4501 34.7371 39.1584 35.4454 39.1584 36.3161C39.1584 37.1868 38.4501 37.895 37.5794 37.895H36.3162C35.793 37.895 35.3689 38.319 35.3689 38.8424C35.3689 39.3657 35.7931 39.7897 36.3162 39.7897H37.5794C37.6741 39.7897 37.7681 39.786 37.8611 39.7784C37.8837 39.8855 37.8952 39.9952 37.8952 40.1055V41.3687C37.8952 43.284 39.4535 44.8424 41.3689 44.8424H48.9479C51.7045 44.8424 54.1807 46.0669 55.861 48.0002H43.8949C42.3414 48.0002 40.8073 47.6045 39.4583 46.8559C39.0008 46.6022 38.424 46.767 38.1703 47.2246C37.9163 47.682 38.0814 48.2586 38.5389 48.5125C40.1686 49.4168 42.0206 49.8947 43.8949 49.8947H57.1329C57.62 50.8622 57.9407 51.9277 58.0569 53.0525H43.895C42.3417 53.0525 40.8077 52.6569 39.4587 51.9083C39.0011 51.6543 38.4246 51.8197 38.1707 52.2771C37.9168 52.7346 38.0819 53.3113 38.5394 53.565C40.1688 54.4692 42.0207 54.947 43.8949 54.947H58.1054V57.7895H58.1055Z" fill="white"/>
</g>
</g>
</g>
</g>
<defs>
<clipPath id="clip0_220_858">
<rect width="60" height="60" fill="white"/>
</clipPath>
</defs>
</svg>
