<svg width="60" height="60" viewBox="0 0 60 60" fill="none" xmlns="http://www.w3.org/2000/svg">
<g id="cable-usb-svgrepo-com 1" clip-path="url(#clip0_220_892)">
<g id="Group">
<g id="Group_2">
<path id="Vector" d="M57.5 15V12.5C57.5 11.12 56.3825 10.0001 55.0001 10.0001H45C43.6175 10.0001 42.5 11.12 42.5 12.5V15C41.1176 15 40.0001 16.12 40.0001 17.5V27.4999C40.0001 28.8799 41.1176 29.9999 42.5 29.9999H47.5001V37.4999C47.5001 40.8424 46.5425 43.9574 44.9101 46.6148C44.9675 46.085 45 45.5475 45 45C45 36.7275 38.2725 30 30 30C21.7275 30 15 36.7275 15 45C15 45.545 15.0325 46.085 15.09 46.615C13.4575 43.9575 12.5 40.8424 12.5 37.5V25H17.5001C18.8825 25 20 23.88 20 22.5V12.5C20 11.12 18.8825 10.0001 17.5001 10.0001V7.08246C17.5 3.17754 14.3225 0 10.42 0H9.57996C5.6775 0 2.49996 3.17754 2.49996 7.08246V9.99996C1.1175 9.99996 0 11.12 0 12.5V22.5C0 23.88 1.1175 25 2.49996 25H7.5V37.5C7.5 49.3875 16.775 59.1275 28.4675 59.9225C28.9725 59.975 29.4825 60 30 60C30.5175 60 31.0275 59.975 31.5325 59.9225C43.225 59.1275 52.5 49.3875 52.5 37.5V30H57.5C58.8825 30 60 28.88 60 27.5V17.5001C60 16.12 58.8825 15 57.5 15ZM12.4999 9.99996H7.5V7.08246C7.5 5.93496 8.43246 4.99992 9.57996 4.99992H10.42C11.5675 4.99992 12.4999 5.93496 12.4999 7.08246V9.99996ZM30 55C24.485 55 20 50.515 20 45C20 39.485 24.485 35 30 35C35.515 35 40 39.485 40 45C40 50.515 35.515 55 30 55Z" fill="white"/>
</g>
</g>
</g>
<defs>
<clipPath id="clip0_220_892">
<rect width="60" height="60" fill="white"/>
</clipPath>
</defs>
</svg>
