<svg width="60" height="60" viewBox="0 0 60 60" fill="none" xmlns="http://www.w3.org/2000/svg">
<g id="night-svgrepo-com 1">
<path id="Vector" d="M33.9729 54.1475C24.2904 56.7425 12.6804 52.785 6.52293 45.0675C6.23362 44.7047 6.05099 44.2685 5.99549 43.8078C5.93999 43.3471 6.0138 42.8801 6.20867 42.4589C6.40353 42.0378 6.71176 41.6792 7.09886 41.4233C7.48595 41.1674 7.93662 41.0243 8.40043 41.01C18.3604 40.715 25.0554 37.2975 28.8254 30.765C32.6004 24.2325 32.2104 16.725 27.4879 7.95248C27.2677 7.54359 27.1657 7.08142 27.1933 6.6178C27.221 6.15418 27.3773 5.70743 27.6447 5.32766C27.9121 4.94789 28.2799 4.65011 28.7071 4.46771C29.1342 4.28531 29.6037 4.2255 30.0629 4.29499C39.8229 5.76999 49.0554 13.845 51.6504 23.53C55.2254 36.865 47.3079 50.575 33.9729 54.1475Z" fill="white"/>
</g>
</svg>
