<svg width="60" height="60" viewBox="0 0 60 60" fill="none" xmlns="http://www.w3.org/2000/svg">
<path d="M3.6 9.6001C1.62656 9.6001 0 11.2267 0 13.2001V46.8001C0 48.7735 1.62656 50.4001 3.6 50.4001H6V51.6001C6 52.9126 7.0875 54.0001 8.4 54.0001H12C13.3125 54.0001 14.4 52.9126 14.4 51.6001V50.4001H45.6V51.6001C45.6 52.9126 46.6875 54.0001 48 54.0001H51.6C52.9125 54.0001 54 52.9126 54 51.6001V50.4001H56.4C58.3734 50.4001 60 48.7735 60 46.8001V13.2001C60 11.2267 58.3734 9.6001 56.4 9.6001H3.6ZM3.6 12.0001H56.4C57.075 12.0001 57.6 12.5251 57.6 13.2001V46.8001C57.6 47.4751 57.075 48.0001 56.4 48.0001H47.025C46.8656 47.9673 46.6969 47.9673 46.5375 48.0001H7.425C7.26563 47.9673 7.09688 47.9673 6.9375 48.0001H3.6C2.925 48.0001 2.4 47.4751 2.4 46.8001V13.2001C2.4 12.5251 2.925 12.0001 3.6 12.0001ZM6 15.6001V44.4001H48V15.6001H6ZM8.4 18.0001H45.6V42.0001H8.4V18.0001ZM52.8 19.2001C51.4734 19.2001 50.4 20.2735 50.4 21.6001C50.4 22.9267 51.4734 24.0001 52.8 24.0001C54.1266 24.0001 55.2 22.9267 55.2 21.6001C55.2 20.2735 54.1266 19.2001 52.8 19.2001ZM40.9875 23.9251C40.7484 23.9204 40.5141 23.986 40.3125 24.1126C40.3125 24.1126 34.7578 26.4001 31.35 26.4001C29.6484 26.4001 28.5 25.9126 27.1125 25.3126C25.725 24.7126 24.0797 24.0001 21.8625 24.0001C17.4281 24.0001 12.675 26.5126 12.675 26.5126C12.075 26.8032 11.8219 27.5251 12.1125 28.1251C12.4031 28.7251 13.125 28.9782 13.725 28.6876C13.725 28.6876 18.3984 26.4001 21.8625 26.4001C23.5969 26.4001 24.7547 26.8876 26.1375 27.4876C27.5203 28.0876 29.1563 28.8001 31.35 28.8001C35.7422 28.8001 41.2875 26.2876 41.2875 26.2876C41.8734 26.1376 42.2578 25.5751 42.1781 24.9751C42.1031 24.3751 41.5922 23.9251 40.9875 23.9251ZM52.8 27.6001C51.4734 27.6001 50.4 28.6735 50.4 30.0001C50.4 31.3267 51.4734 32.4001 52.8 32.4001C54.1266 32.4001 55.2 31.3267 55.2 30.0001C55.2 28.6735 54.1266 27.6001 52.8 27.6001ZM40.9875 31.1251C40.7484 31.1204 40.5141 31.186 40.3125 31.3126C40.3125 31.3126 34.7578 33.6001 31.35 33.6001C29.6484 33.6001 28.5 33.1126 27.1125 32.5126C25.725 31.9126 24.0797 31.2001 21.8625 31.2001C17.4281 31.2001 12.675 33.7126 12.675 33.7126C12.075 34.0032 11.8219 34.7251 12.1125 35.3251C12.4031 35.9251 13.125 36.1782 13.725 35.8876C13.725 35.8876 18.3984 33.6001 21.8625 33.6001C23.5969 33.6001 24.7547 34.0876 26.1375 34.6876C27.5203 35.2876 29.1563 36.0001 31.35 36.0001C35.7422 36.0001 41.2875 33.4876 41.2875 33.4876C41.8734 33.3376 42.2578 32.7751 42.1781 32.1751C42.1031 31.5751 41.5922 31.1251 40.9875 31.1251ZM52.8 36.0001C51.4734 36.0001 50.4 37.0735 50.4 38.4001C50.4 39.7267 51.4734 40.8001 52.8 40.8001C54.1266 40.8001 55.2 39.7267 55.2 38.4001C55.2 37.0735 54.1266 36.0001 52.8 36.0001ZM8.4 50.4001H12V51.6001H8.4V50.4001ZM48 50.4001H51.6V51.6001H48V50.4001Z" fill="white"/>
</svg>
