<svg width="60" height="60" viewBox="0 0 60 60" fill="none" xmlns="http://www.w3.org/2000/svg">
<g clip-path="url(#clip0_162_985)">
<path d="M13.6194 9.6001C8.13088 9.6001 3.59984 13.8799 3.59984 19.2001V19.697C1.89669 20.4291 0.595469 21.9341 0.166243 23.7728C-0.526542 26.7416 1.10796 29.444 3.59984 30.572V39.6001C3.59984 42.4417 5.02841 44.9575 7.19984 46.479V51.6001C7.19987 51.9184 7.32631 52.2236 7.55134 52.4486C7.77638 52.6736 8.08159 52.8001 8.39984 52.8001H13.1998C13.5181 52.8001 13.8233 52.6736 14.0483 52.4486C14.2734 52.2236 14.3998 51.9184 14.3998 51.6001V48.0001H45.5998V51.6001C45.5999 51.9184 45.7263 52.2236 45.9513 52.4486C46.1764 52.6736 46.4816 52.8001 46.7998 52.8001H51.5998C51.9181 52.8001 52.2233 52.6736 52.4483 52.4486C52.6734 52.2236 52.7998 51.9184 52.7998 51.6001V46.479C54.9713 44.9575 56.3998 42.4417 56.3998 39.6001V30.5931C58.494 29.6581 59.9998 27.6347 59.9998 25.2001C59.9998 22.7555 58.5088 20.6439 56.3998 19.711V19.2001C56.3998 13.8799 51.8688 9.6001 46.3803 9.6001H13.6194ZM13.6194 12.0001H46.3803C50.6334 12.0001 53.9998 15.2419 53.9998 19.2001V19.2024C53.8062 19.2024 53.611 19.2094 53.4139 19.2282C50.265 19.528 47.9998 22.3148 47.9998 25.4063V31.2001H33.5998C32.1633 31.2001 30.882 31.8555 29.9998 32.8665C29.1177 31.8555 27.8364 31.2001 26.3998 31.2001H11.9998V25.2001C11.9998 21.9031 9.26999 19.2202 5.99984 19.2048V19.2001C5.99984 15.2419 9.36626 12.0001 13.6194 12.0001ZM15.5998 15.6001C15.2816 15.6001 14.9764 15.7265 14.7513 15.9516C14.5263 16.1766 14.3998 16.4818 14.3998 16.8001C14.3998 17.1184 14.5263 17.4236 14.7513 17.6486C14.9764 17.8737 15.2816 18.0001 15.5998 18.0001C15.9181 18.0001 16.2233 17.8737 16.4484 17.6486C16.6734 17.4236 16.7998 17.1184 16.7998 16.8001C16.7998 16.4818 16.6734 16.1766 16.4484 15.9516C16.2233 15.7265 15.9181 15.6001 15.5998 15.6001ZM25.1998 15.6001C24.8816 15.6001 24.5764 15.7265 24.3513 15.9516C24.1263 16.1766 23.9998 16.4818 23.9998 16.8001C23.9998 17.1184 24.1263 17.4236 24.3513 17.6486C24.5764 17.8737 24.8816 18.0001 25.1998 18.0001C25.5181 18.0001 25.8233 17.8737 26.0484 17.6486C26.2734 17.4236 26.3998 17.1184 26.3998 16.8001C26.3998 16.4818 26.2734 16.1766 26.0484 15.9516C25.8233 15.7265 25.5181 15.6001 25.1998 15.6001ZM34.7998 15.6001C34.4816 15.6001 34.1764 15.7265 33.9513 15.9516C33.7263 16.1766 33.5998 16.4818 33.5998 16.8001C33.5998 17.1184 33.7263 17.4236 33.9513 17.6486C34.1764 17.8737 34.4816 18.0001 34.7998 18.0001C35.1181 18.0001 35.4233 17.8737 35.6484 17.6486C35.8734 17.4236 35.9998 17.1184 35.9998 16.8001C35.9998 16.4818 35.8734 16.1766 35.6484 15.9516C35.4233 15.7265 35.1181 15.6001 34.7998 15.6001ZM44.3998 15.6001C44.0816 15.6001 43.7764 15.7265 43.5513 15.9516C43.3263 16.1766 43.1998 16.4818 43.1998 16.8001C43.1998 17.1184 43.3263 17.4236 43.5513 17.6486C43.7764 17.8737 44.0816 18.0001 44.3998 18.0001C44.7181 18.0001 45.0233 17.8737 45.2484 17.6486C45.4734 17.4236 45.5998 17.1184 45.5998 16.8001C45.5998 16.4818 45.4734 16.1766 45.2484 15.9516C45.0233 15.7265 44.7181 15.6001 44.3998 15.6001ZM20.3998 20.4001C20.0816 20.4001 19.7764 20.5265 19.5513 20.7516C19.3263 20.9766 19.1998 21.2818 19.1998 21.6001C19.1998 21.9184 19.3263 22.2236 19.5513 22.4486C19.7764 22.6737 20.0816 22.8001 20.3998 22.8001C20.7181 22.8001 21.0233 22.6737 21.2484 22.4486C21.4734 22.2236 21.5998 21.9184 21.5998 21.6001C21.5998 21.2818 21.4734 20.9766 21.2484 20.7516C21.0233 20.5265 20.7181 20.4001 20.3998 20.4001ZM29.9998 20.4001C29.6816 20.4001 29.3764 20.5265 29.1513 20.7516C28.9263 20.9766 28.7998 21.2818 28.7998 21.6001C28.7998 21.9184 28.9263 22.2236 29.1513 22.4486C29.3764 22.6737 29.6816 22.8001 29.9998 22.8001C30.3181 22.8001 30.6233 22.6737 30.8484 22.4486C31.0734 22.2236 31.1998 21.9184 31.1998 21.6001C31.1998 21.2818 31.0734 20.9766 30.8484 20.7516C30.6233 20.5265 30.3181 20.4001 29.9998 20.4001ZM39.5998 20.4001C39.2816 20.4001 38.9764 20.5265 38.7513 20.7516C38.5263 20.9766 38.3998 21.2818 38.3998 21.6001C38.3998 21.9184 38.5263 22.2236 38.7513 22.4486C38.9764 22.6737 39.2816 22.8001 39.5998 22.8001C39.9181 22.8001 40.2233 22.6737 40.4484 22.4486C40.6734 22.2236 40.7998 21.9184 40.7998 21.6001C40.7998 21.2818 40.6734 20.9766 40.4484 20.7516C40.2233 20.5265 39.9181 20.4001 39.5998 20.4001ZM6.02093 21.5978C8.04213 21.5941 9.59984 23.2031 9.59984 25.2001V37.2001C9.59984 39.1741 11.2259 40.8001 13.1998 40.8001H46.7998C48.7738 40.8001 50.3998 39.1741 50.3998 37.2001V25.4063C50.3998 23.4843 51.7981 21.792 53.6412 21.6165C55.8225 21.4081 57.5998 23.0797 57.5998 25.2001C57.5998 26.8854 56.4507 28.2657 54.8975 28.6688C54.6403 28.7358 54.4125 28.8863 54.2501 29.0967C54.0876 29.3071 53.9996 29.5655 53.9998 29.8313V39.6001C53.9998 42.9285 51.3282 45.6001 47.9998 45.6001H11.9998C8.67144 45.6001 5.99984 42.9285 5.99984 39.6001V29.8431C5.99943 29.5773 5.91084 29.3193 5.74796 29.1093C5.58508 28.8993 5.35713 28.7494 5.09984 28.6829C3.28895 28.2156 2.01102 26.4247 2.50296 24.3165C2.79721 23.0561 3.86846 21.9909 5.13031 21.7009C5.43482 21.6309 5.73219 21.5983 6.02093 21.5978ZM15.5998 25.2001C15.2816 25.2001 14.9764 25.3265 14.7513 25.5516C14.5263 25.7766 14.3998 26.0818 14.3998 26.4001C14.3998 26.7184 14.5263 27.0236 14.7513 27.2486C14.9764 27.4737 15.2816 27.6001 15.5998 27.6001C15.9181 27.6001 16.2233 27.4737 16.4484 27.2486C16.6734 27.0236 16.7998 26.7184 16.7998 26.4001C16.7998 26.0818 16.6734 25.7766 16.4484 25.5516C16.2233 25.3265 15.9181 25.2001 15.5998 25.2001ZM25.1998 25.2001C24.8816 25.2001 24.5764 25.3265 24.3513 25.5516C24.1263 25.7766 23.9998 26.0818 23.9998 26.4001C23.9998 26.7184 24.1263 27.0236 24.3513 27.2486C24.5764 27.4737 24.8816 27.6001 25.1998 27.6001C25.5181 27.6001 25.8233 27.4737 26.0484 27.2486C26.2734 27.0236 26.3998 26.7184 26.3998 26.4001C26.3998 26.0818 26.2734 25.7766 26.0484 25.5516C25.8233 25.3265 25.5181 25.2001 25.1998 25.2001ZM34.7998 25.2001C34.4816 25.2001 34.1764 25.3265 33.9513 25.5516C33.7263 25.7766 33.5998 26.0818 33.5998 26.4001C33.5998 26.7184 33.7263 27.0236 33.9513 27.2486C34.1764 27.4737 34.4816 27.6001 34.7998 27.6001C35.1181 27.6001 35.4233 27.4737 35.6484 27.2486C35.8734 27.0236 35.9998 26.7184 35.9998 26.4001C35.9998 26.0818 35.8734 25.7766 35.6484 25.5516C35.4233 25.3265 35.1181 25.2001 34.7998 25.2001ZM44.3998 25.2001C44.0816 25.2001 43.7764 25.3265 43.5513 25.5516C43.3263 25.7766 43.1998 26.0818 43.1998 26.4001C43.1998 26.7184 43.3263 27.0236 43.5513 27.2486C43.7764 27.4737 44.0816 27.6001 44.3998 27.6001C44.7181 27.6001 45.0233 27.4737 45.2484 27.2486C45.4734 27.0236 45.5998 26.7184 45.5998 26.4001C45.5998 26.0818 45.4734 25.7766 45.2484 25.5516C45.0233 25.3265 44.7181 25.2001 44.3998 25.2001ZM11.9998 33.6001H26.3998C27.7398 33.6001 28.7998 34.6601 28.7998 36.0001V38.4001H13.1998C12.5218 38.4001 11.9998 37.8781 11.9998 37.2001V33.6001ZM33.5998 33.6001H47.9998V37.2001C47.9998 37.8781 47.4779 38.4001 46.7998 38.4001H31.1998V36.0001C31.1998 34.6601 32.2598 33.6001 33.5998 33.6001ZM9.59984 47.6438C10.3611 47.872 11.1662 48.0001 11.9998 48.0001V50.4001H9.59984V47.6438ZM50.3998 47.6438V50.4001H47.9998V48.0001C48.8334 48.0001 49.6386 47.872 50.3998 47.6438Z" fill="white"/>
</g>
<defs>
<clipPath id="clip0_162_985">
<rect width="60" height="60" fill="white"/>
</clipPath>
</defs>
</svg>
