<svg width="60" height="60" viewBox="0 0 60 60" fill="none" xmlns="http://www.w3.org/2000/svg">
<g clip-path="url(#clip0_162_1008)">
<path d="M19.8687 40.8167H1.078L0.32548 55.1643C0.296995 55.7068 0.492752 56.2371 0.86649 56.6312C1.24043 57.0251 1.75962 57.2484 2.30285 57.2484C3.2972 57.2484 3.70124 57.4916 4.37033 57.8944C5.22104 58.4068 6.38609 59.1082 8.48063 59.1082C10.5752 59.1082 11.74 58.4068 12.5907 57.8944C13.2598 57.4916 13.6639 57.2484 14.6582 57.2484C15.6521 57.2484 16.0562 57.4916 16.7253 57.8944C17.5758 58.4068 18.7406 59.1082 20.8352 59.1082C22.9297 59.1082 24.0946 58.4068 24.9451 57.8944C25.6142 57.4916 26.0182 57.2484 27.0121 57.2484C27.7404 57.2484 28.4099 56.8486 28.7552 56.2076C29.1008 55.5665 29.0665 54.7876 28.6661 54.1793L19.8687 40.8167Z" fill="white"/>
<path d="M58.9216 40.8167H40.1309L31.3336 54.1791C30.9332 54.7874 30.8988 55.5663 31.2445 56.2074C31.5899 56.8484 32.2594 57.2482 32.9875 57.2482C33.9816 57.2482 34.3857 57.4914 35.0548 57.8942C35.9053 58.4065 37.0703 59.108 39.1647 59.108C41.2592 59.108 42.4241 58.4063 43.2748 57.8942C43.9437 57.4912 44.3475 57.2482 45.3414 57.2482C46.3358 57.2482 46.7398 57.4914 47.4089 57.8942C48.2596 58.4065 49.4247 59.108 51.5192 59.108C53.6138 59.108 54.7788 58.4065 55.6295 57.8942C56.2986 57.4914 56.7027 57.2482 57.697 57.2482C58.2402 57.2482 58.7596 57.0249 59.1334 56.631C59.5071 56.2369 59.7029 55.7065 59.6744 55.1641L58.9216 40.8167Z" fill="white"/>
<path d="M47.0095 11.8423C42.3006 13.7647 36.3895 14.9536 31.0113 15.0783C31.0105 15.1009 31.0077 15.1229 31.0077 15.1457C31.0077 15.3762 31.0261 20.8571 32.6182 26.4294C34.7281 33.8136 38.2978 36.9154 41.7012 38.0443H58.7768L57.036 4.85201H58.02C59.1135 4.85201 60.0002 3.96534 60.0002 2.8718C60.0002 1.77827 59.1135 0.891602 58.02 0.891602H1.9802C0.886667 0.891804 0 1.77847 0 2.87201C0 3.96554 0.886667 4.85221 1.9802 4.85221H2.96444L1.22364 38.0445H18.2992C21.7024 36.9156 25.2721 33.8138 27.382 26.4296C28.9741 20.8573 28.9925 15.3765 28.9925 15.1459C28.9925 15.1221 28.9895 15.0991 28.9887 15.0754C23.6541 14.9308 17.8137 13.7455 13.1523 11.8425C8.44949 9.92211 5.45838 7.48918 4.49051 4.85221H7.5996C8.67354 6.39483 10.9768 7.95968 14.2002 9.27584C18.8667 11.1813 24.8034 12.3187 30.0808 12.3187C35.3582 12.3187 41.295 11.1813 45.9614 9.27584C49.1849 7.95968 51.4881 6.39504 52.562 4.85221H55.6711C54.7034 7.48918 51.7123 9.92211 47.0095 11.8423Z" fill="white"/>
</g>
<defs>
<clipPath id="clip0_162_1008">
<rect width="60" height="60" fill="white"/>
</clipPath>
</defs>
</svg>
